<?xml version="1.0" encoding="UTF-8" standalone="no"?>
<svg
   xmlns:dc="http://purl.org/dc/elements/1.1/"
   xmlns:cc="http://creativecommons.org/ns#"
   xmlns:rdf="http://www.w3.org/1999/02/22-rdf-syntax-ns#"
   xmlns:svg="http://www.w3.org/2000/svg"
   xmlns="http://www.w3.org/2000/svg"
   xmlns:sodipodi="http://sodipodi.sourceforge.net/DTD/sodipodi-0.dtd"
   xmlns:inkscape="http://www.inkscape.org/namespaces/inkscape"
   version="1.1"
   id="svg4505"
   viewBox="0 0 10.739431 13.960097"
   height="3.9398496mm"
   width="3.0309062mm"
   inkscape:version="0.91 r13725"
   sodipodi:docname="mini_bo4ka.svg">
  <metadata
     id="metadata36">
    <rdf:RDF>
      <cc:Work
         rdf:about="">
        <dc:format>image/svg+xml</dc:format>
        <dc:type
           rdf:resource="http://purl.org/dc/dcmitype/StillImage" />
      </cc:Work>
    </rdf:RDF>
  </metadata>
  <sodipodi:namedview
     pagecolor="#ffffff"
     bordercolor="#666666"
     borderopacity="1"
     objecttolerance="10"
     gridtolerance="10"
     guidetolerance="10"
     inkscape:pageopacity="0"
     inkscape:pageshadow="2"
     inkscape:window-width="1366"
     inkscape:window-height="719"
     id="namedview34"
     showgrid="false"
     inkscape:zoom="16.905327"
     inkscape:cx="-4.4922306"
     inkscape:cy="8.6489085"
     inkscape:window-x="0"
     inkscape:window-y="0"
     inkscape:window-maximized="1"
     inkscape:current-layer="svg4505" />
  <style
     id="style3">.hidden { display: none; } :target { display: block; }</style>
  <defs
     id="defs4507">
    <filter
       height="1.1702341"
       y="-0.085117035"
       width="1.2331907"
       x="-0.11659532"
       id="filter4934"
       style="color-interpolation-filters:sRGB">
      <feGaussianBlur
         id="feGaussianBlur4936"
         stdDeviation="1.8182477" />
    </filter>
  </defs>
  <g
     transform="translate(-37.655497,-454.76336)"
     id="layer1">
    <g
       id="g4444"
       transform="translate(-159.90143,67.680313)">
      <g
         id="g4318">
        <g
           transform="matrix(0.23268473,0,0,0.23268473,176.07002,319.01895)"
           id="g5863"
           style="opacity:0.63599997;fill:#4d4d4d;filter:url(#filter4934)">
          <ellipse
             style="fill:#4d4d4d;fill-opacity:1;fill-rule:evenodd;stroke:none"
             id="ellipse5865"
             cx="115.48083"
             cy="303.50067"
             rx="18.653244"
             ry="6.6204739" />
          <rect
             style="fill:#4d4d4d;fill-opacity:1;fill-rule:evenodd;stroke:none"
             id="rect5867"
             width="35.621677"
             height="36.769093"
             x="97.707771"
             y="303.3988" />
          <ellipse
             ry="6.6204739"
             rx="18.653244"
             cy="341.52789"
             cx="115.36047"
             id="ellipse5870"
             style="fill:#4d4d4d;fill-opacity:1;fill-rule:evenodd;stroke:none" />
          <ellipse
             ry="4.7361846"
             rx="16.426889"
             cy="303.55157"
             cx="115.42064"
             id="ellipse5872"
             style="fill:#4d4d4d;fill-opacity:1;fill-rule:evenodd;stroke:none" />
          <path
             id="path5874"
             d="m 132.99338,340.67758 a 17.811725,4.8084377 0 0 1 -17.75575,4.50709 17.811725,4.8084377 0 0 1 -17.536794,-3.97471 17.811725,6.2072454 0 0 0 17.659044,5.45725 17.811725,6.2072454 0 0 0 17.79068,-5.98963 l -0.15718,0 z"
             style="fill:#4d4d4d;fill-opacity:1;fill-rule:evenodd;stroke:none" />
          <ellipse
             style="fill:#4d4d4d;fill-opacity:1;fill-rule:evenodd;stroke:none"
             id="ellipse5876"
             cx="115.36047"
             cy="322.7529"
             rx="18.653244"
             ry="6.6204739" />
          <path
             style="fill:#4d4d4d;fill-opacity:1;fill-rule:evenodd;stroke:none"
             d="m 132.99338,321.90262 a 17.811725,4.8084377 0 0 1 -17.75575,4.50708 17.811725,4.8084377 0 0 1 -17.536794,-3.9747 17.811725,6.2072454 0 0 0 17.659044,5.45724 17.811725,6.2072454 0 0 0 17.79068,-5.98962 l -0.15718,0 z"
             id="path5878" />
          <ellipse
             style="fill:#4d4d4d;fill-opacity:1;fill-rule:evenodd;stroke:none"
             id="ellipse5880"
             cx="106.39493"
             cy="303.09326"
             rx="2.7077289"
             ry="1.2222413" />
        </g>
        <ellipse
           style="fill:#4d4d4d;fill-opacity:1;fill-rule:evenodd;stroke:none"
           id="ellipse5882"
           cx="202.86035"
           cy="389.1972"
           rx="4.3403249"
           ry="1.5404829" />
        <rect
           style="fill:#4d4d4d;fill-opacity:1;fill-rule:evenodd;stroke:none"
           id="rect5884"
           width="8.288619"
           height="8.5556049"
           x="198.72482"
           y="389.17346" />
        <ellipse
           ry="1.5404829"
           rx="4.3403249"
           cy="398.04553"
           cx="202.83234"
           id="ellipse5886"
           style="fill:#4d4d4d;fill-opacity:1;fill-rule:evenodd;stroke:none" />
        <ellipse
           style="fill:#4d4d4d;fill-opacity:1;fill-rule:evenodd;stroke:none"
           id="ellipse5888"
           cx="202.83234"
           cy="393.67688"
           rx="4.3403249"
           ry="1.5404829" />
      </g>
      <path
         style="fill:#ff2a2a;fill-opacity:1;fill-rule:evenodd;stroke:none"
         d="m 202.82043,396.68302 c -1.84105,0 -3.33341,0.41158 -3.33306,0.91922 8.1e-4,0.0128 0.002,0.0257 0.005,0.0384 l -0.014,0 0,0.34423 0.0296,0 c 0.1726,0.46884 1.60329,0.82571 3.31235,0.82623 1.71041,-2e-5 3.14315,-0.35702 3.31588,-0.82623 l 0.0569,0 0,-0.34423 -0.0468,0 c 0.003,-0.0128 0.006,-0.0257 0.007,-0.0384 5.4e-4,-0.50764 -1.49202,-0.91922 -3.33307,-0.91922 z"
         id="level_0"
         class="hidden" />
      <path
         id="level_9"
         class="hidden"
         d="m 199.41732,390.01947 1.4e-4,7.94449 c 0,0 0.41169,0.8039 3.37929,0.8039 2.88964,-5e-5 3.41439,-0.8791 3.41439,-0.8791 l -0.0193,-7.8693 c 0,0 -0.99366,0.55266 -3.31493,0.55266 -2.31792,0.0356 -3.45952,-0.55266 -3.45952,-0.55266 z"
         style="fill:#1dc11c;fill-opacity:1;fill-rule:evenodd;stroke:none" />
      <path
         style="fill:#53dd20;fill-opacity:1;fill-rule:evenodd;stroke:none"
         d="m 199.39855,390.82236 1.4e-4,7.16422 c 0,0 0.41169,0.8039 3.37929,0.8039 2.88964,-4e-5 3.41439,-0.87909 3.41439,-0.87909 l -0.0193,-7.08903 c 0,0 -0.99366,0.55266 -3.31493,0.55266 -2.31792,0.0355 -3.45952,-0.55266 -3.45952,-0.55266 z"
         id="level_8"
         class="hidden" />
      <path
         id="level_7"
         class="hidden"
         d="m 199.39883,391.74164 1.4e-4,6.28326 c 0,0 0.41169,0.8039 3.37929,0.8039 2.88964,-4e-5 3.41439,-0.87909 3.41439,-0.87909 l -0.0193,-6.20807 c 0,0 -0.99366,0.55266 -3.31493,0.55266 -2.31792,0.0355 -3.45952,-0.55266 -3.45952,-0.55266 z"
         style="fill:#c4db1f;fill-opacity:1;fill-rule:evenodd;stroke:none" />
      <path
         style="fill:#e1de2f;fill-opacity:1;fill-rule:evenodd;stroke:none"
         d="m 199.39498,392.66361 1.4e-4,5.32679 c 0,0 0.41169,0.8039 3.37929,0.8039 2.88964,-4e-5 3.41439,-0.87909 3.41439,-0.87909 l -0.0193,-5.2516 c 0,0 -0.99366,0.55266 -3.31493,0.55266 -2.31792,0.0356 -3.45952,-0.55266 -3.45952,-0.55266 z"
         id="level_6"
         class="hidden" />
      <path
         id="level_5"
         class="hidden"
         d="m 199.40947,393.62169 1.4e-4,4.39549 c 0,0 0.41169,0.8039 3.37929,0.8039 2.88964,-4e-5 3.41439,-0.87909 3.41439,-0.87909 l -0.0193,-4.3203 c 0,0 -0.99366,0.55265 -3.31493,0.55265 -2.31792,0.0356 -3.45952,-0.55265 -3.45952,-0.55265 z"
         style="fill:#e1b52f;fill-opacity:1;fill-rule:evenodd;stroke:none" />
      <path
         class="hidden"
         style="fill:#e1962f;fill-opacity:1;fill-rule:evenodd;stroke:none"
         d="m 199.39498,394.52183 1.4e-4,3.46419 c 0,0 0.41169,0.8039 3.37929,0.8039 2.88964,-4e-5 3.41439,-0.87909 3.41439,-0.87909 l -0.0193,-3.389 c 0,0 -0.99366,0.55265 -3.31493,0.55265 -2.31792,0.0356 -3.45952,-0.55265 -3.45952,-0.55265 z"
         id="level_4" />
      <path
         id="level_3"
         class="hidden"
         d="m 199.41331,395.45754 1.4e-4,2.53289 c 0,0 0.41169,0.8039 3.37929,0.8039 2.88964,-4e-5 3.41439,-0.87909 3.41439,-0.87909 l -0.0193,-2.4577 c 0,0 -0.99366,0.55265 -3.31493,0.55265 -2.31792,0.0356 -3.45952,-0.55265 -3.45952,-0.55265 z"
         style="fill:#e1772f;fill-opacity:1;fill-rule:evenodd;stroke:none" />
      <path
         style="fill:#e1532f;fill-opacity:1;fill-rule:evenodd;stroke:none"
         d="m 199.40765,396.38035 1.4e-4,1.60161 c 0,0 0.41169,0.8039 3.37929,0.8039 2.88964,-5e-5 3.41439,-0.8791 3.41439,-0.8791 l -0.0193,-1.52641 c 0,0 -0.99366,0.55266 -3.31493,0.55266 -2.31792,0.0356 -3.45952,-0.55266 -3.45952,-0.55266 z"
         id="level_2"
         class="hidden" />
      <path
         id="level_1"
         class="hidden"
         d="m 199.40774,397.35158 1.4e-4,0.64513 c 0,0 0.41169,0.8039 3.37929,0.8039 2.88964,-4e-5 3.41439,-0.87909 3.41439,-0.87909 l -0.0193,-0.56994 c 0,0 -0.99366,0.55266 -3.31493,0.55266 -2.31792,0.0356 -3.45952,-0.55266 -3.45952,-0.55266 z"
         style="fill:#d8351f;fill-opacity:1;fill-rule:evenodd;stroke:none" />
    </g>
  </g>
</svg>
