<?xml version="1.0" encoding="UTF-8" standalone="no"?>
<!-- Created with Inkscape (http://www.inkscape.org/) -->

<svg
   xmlns:dc="http://purl.org/dc/elements/1.1/"
   xmlns:cc="http://creativecommons.org/ns#"
   xmlns:rdf="http://www.w3.org/1999/02/22-rdf-syntax-ns#"
   xmlns:svg="http://www.w3.org/2000/svg"
   xmlns="http://www.w3.org/2000/svg"
   xmlns:sodipodi="http://sodipodi.sourceforge.net/DTD/sodipodi-0.dtd"
   xmlns:inkscape="http://www.inkscape.org/namespaces/inkscape"
   width="20mm"
   height="20mm"
   viewBox="0 0 70.866142 70.866142"
   id="svg5851"
   version="1.1"
   inkscape:version="0.91 r13725"
   sodipodi:docname="fluid-container.svg">
  <defs
     id="defs5853">
    <filter
       inkscape:collect="always"
       style="color-interpolation-filters:sRGB"
       id="filter4934-74"
       x="-0.11659532"
       width="1.2331907"
       y="-0.085117035"
       height="1.1702341">
      <feGaussianBlur
         inkscape:collect="always"
         stdDeviation="1.8182477"
         id="feGaussianBlur4936-43" />
    </filter>
  </defs>
  <sodipodi:namedview
     id="base"
     pagecolor="#ffffff"
     bordercolor="#666666"
     borderopacity="1.0"
     inkscape:pageopacity="0.0"
     inkscape:pageshadow="2"
     inkscape:zoom="1.4961964"
     inkscape:cx="-213.89216"
     inkscape:cy="25.344699"
     inkscape:document-units="px"
     inkscape:current-layer="layer1"
     showgrid="false"
     fit-margin-top="0"
     fit-margin-left="0"
     fit-margin-right="0"
     fit-margin-bottom="0"
     inkscape:window-width="1366"
     inkscape:window-height="719"
     inkscape:window-x="0"
     inkscape:window-y="25"
     inkscape:window-maximized="1" />
  <metadata
     id="metadata5856">
    <rdf:RDF>
      <cc:Work
         rdf:about="">
        <dc:format>image/svg+xml</dc:format>
        <dc:type
           rdf:resource="http://purl.org/dc/dcmitype/StillImage" />
        <dc:title></dc:title>
      </cc:Work>
    </rdf:RDF>
  </metadata>
  <g
     inkscape:label="Layer 1"
     inkscape:groupmode="layer"
     id="layer1"
     transform="translate(-209.67223,-198.34838)">
    <g
       id="g5435"
       transform="matrix(0.51646004,0,0,0.51646004,26.17187,-63.096467)"
       inkscape:export-filename="/home/lonmadi/Рабочий стол/vida4a/vidacha_operator/21.png"
       inkscape:export-xdpi="150"
       inkscape:export-ydpi="150">
      <g
         transform="matrix(0.7365174,0,0,0.7365174,301.42071,289.3049)"
         id="g6059">
        <g
           inkscape:export-filename="/home/lonmadi/Рабочий стол/vida4a/vidacha_operator/20.png"
           inkscape:export-ydpi="150"
           inkscape:export-xdpi="150"
           transform="matrix(0.62208149,0,0,0.62208149,-187.87164,85.440455)"
           id="g5784">
          <g
             transform="translate(-46.467017,474.39445)"
             id="g5786">
            <g
               transform="matrix(3.9841476,0,0,3.9841476,98.166656,-1230.5958)"
               id="g5788"
               style="opacity:0.63599997;fill:#4d4d4d;filter:url(#filter4934-74)"
               inkscape:export-filename="/home/aproken/Рабочий стол/vida4a/vida4a13.png"
               inkscape:export-xdpi="150"
               inkscape:export-ydpi="150">
              <ellipse
                 style="fill:#4d4d4d;fill-opacity:1;fill-rule:evenodd;stroke:none"
                 id="ellipse5790"
                 cx="115.48083"
                 cy="303.50067"
                 rx="18.653244"
                 ry="6.6204739" />
              <rect
                 style="fill:#4d4d4d;fill-opacity:1;fill-rule:evenodd;stroke:none"
                 id="rect5792"
                 width="35.621677"
                 height="36.769093"
                 x="97.707771"
                 y="303.3988" />
              <ellipse
                 ry="6.6204739"
                 rx="18.653244"
                 cy="341.52789"
                 cx="115.36047"
                 id="ellipse5794"
                 style="fill:#4d4d4d;fill-opacity:1;fill-rule:evenodd;stroke:none" />
              <ellipse
                 ry="4.7361846"
                 rx="16.426889"
                 cy="303.55157"
                 cx="115.42064"
                 id="ellipse5796"
                 style="fill:#4d4d4d;fill-opacity:1;fill-rule:evenodd;stroke:none" />
              <path
                 inkscape:connector-curvature="0"
                 id="path5798"
                 d="m 132.99338,340.67758 a 17.811725,4.8084377 0 0 1 -17.75575,4.50709 17.811725,4.8084377 0 0 1 -17.536794,-3.97471 17.811725,6.2072454 0 0 0 17.659044,5.45725 17.811725,6.2072454 0 0 0 17.79068,-5.98963 l -0.15718,0 z"
                 style="fill:#4d4d4d;fill-opacity:1;fill-rule:evenodd;stroke:none" />
              <ellipse
                 style="fill:#4d4d4d;fill-opacity:1;fill-rule:evenodd;stroke:none"
                 id="ellipse5800"
                 cx="115.36047"
                 cy="322.7529"
                 rx="18.653244"
                 ry="6.6204739" />
              <path
                 style="fill:#4d4d4d;fill-opacity:1;fill-rule:evenodd;stroke:none"
                 d="m 132.99338,321.90262 a 17.811725,4.8084377 0 0 1 -17.75575,4.50708 17.811725,4.8084377 0 0 1 -17.536794,-3.9747 17.811725,6.2072454 0 0 0 17.659044,5.45724 17.811725,6.2072454 0 0 0 17.79068,-5.98962 l -0.15718,0 z"
                 id="path5802"
                 inkscape:connector-curvature="0" />
              <ellipse
                 style="fill:#4d4d4d;fill-opacity:1;fill-rule:evenodd;stroke:none"
                 id="ellipse5804"
                 cx="106.39493"
                 cy="303.09326"
                 rx="2.7077289"
                 ry="1.2222413" />
            </g>
            <ellipse
               style="fill:#4d4d4d;fill-opacity:1;fill-rule:evenodd;stroke:none"
               id="ellipse5806"
               cx="556.8844"
               cy="-28.967735"
               rx="74.317276"
               ry="26.376945" />
            <rect
               style="fill:#4d4d4d;fill-opacity:1;fill-rule:evenodd;stroke:none"
               id="rect5808"
               width="141.92201"
               height="146.49348"
               x="486.07397"
               y="-29.373499" />
            <ellipse
               ry="26.376945"
               rx="74.317276"
               cy="122.53837"
               cx="556.40497"
               id="ellipse5810"
               style="fill:#4d4d4d;fill-opacity:1;fill-rule:evenodd;stroke:none" />
            <ellipse
               ry="18.869658"
               rx="65.447159"
               cy="-28.764854"
               cx="556.64465"
               id="ellipse5812"
               style="fill:#ffffff;fill-opacity:1;fill-rule:evenodd;stroke:none" />
            <path
               inkscape:connector-curvature="0"
               id="path5814"
               d="m 626.65705,119.1506 a 70.964542,19.157526 0 0 1 -70.74153,17.95697 70.964542,19.157526 0 0 1 -69.86918,-15.83584 70.964542,24.730582 0 0 0 70.35625,21.74249 70.964542,24.730582 0 0 0 70.88069,-23.86362 l -0.62622,0 z"
               style="fill:#ffffff;fill-opacity:1;fill-rule:evenodd;stroke:none" />
            <ellipse
               style="fill:#4d4d4d;fill-opacity:1;fill-rule:evenodd;stroke:none"
               id="ellipse5816"
               cx="556.40497"
               cy="47.735882"
               rx="74.317276"
               ry="26.376945" />
            <path
               style="fill:#ffffff;fill-opacity:1;fill-rule:evenodd;stroke:none"
               d="M 626.65705,44.348394 A 70.964542,19.157526 0 0 1 555.91552,62.305228 70.964542,19.157526 0 0 1 486.04634,46.469452 70.964542,24.730582 0 0 0 556.40259,68.21194 70.964542,24.730582 0 0 0 627.28328,44.348394 l -0.62622,0 z"
               id="path5818"
               inkscape:connector-curvature="0" />
            <ellipse
               style="fill:#4d4d4d;fill-opacity:1;fill-rule:evenodd;stroke:none"
               id="ellipse5820"
               cx="520.68494"
               cy="-30.590788"
               rx="10.787992"
               ry="4.8695898" />
          </g>
          <g
             transform="matrix(3.9841476,0,0,3.9841476,51.699639,-756.20135)"
             id="g5823"
             style="opacity:0.63599997;fill:#4d4d4d;filter:url(#filter4934-74)"
             inkscape:export-filename="/home/aproken/Рабочий стол/vida4a/vida4a13.png"
             inkscape:export-xdpi="150"
             inkscape:export-ydpi="150">
            <ellipse
               style="fill:#4d4d4d;fill-opacity:1;fill-rule:evenodd;stroke:none"
               id="ellipse5826"
               cx="115.48083"
               cy="303.50067"
               rx="18.653244"
               ry="6.6204739" />
            <rect
               style="fill:#4d4d4d;fill-opacity:1;fill-rule:evenodd;stroke:none"
               id="rect5828"
               width="35.621677"
               height="36.769093"
               x="97.707771"
               y="303.3988" />
            <ellipse
               ry="6.6204739"
               rx="18.653244"
               cy="341.52789"
               cx="115.36047"
               id="ellipse5830"
               style="fill:#4d4d4d;fill-opacity:1;fill-rule:evenodd;stroke:none" />
            <ellipse
               ry="4.7361846"
               rx="16.426889"
               cy="303.55157"
               cx="115.42064"
               id="ellipse5832"
               style="fill:#4d4d4d;fill-opacity:1;fill-rule:evenodd;stroke:none" />
            <path
               inkscape:connector-curvature="0"
               id="path5834"
               d="m 132.99338,340.67758 a 17.811725,4.8084377 0 0 1 -17.75575,4.50709 17.811725,4.8084377 0 0 1 -17.536794,-3.97471 17.811725,6.2072454 0 0 0 17.659044,5.45725 17.811725,6.2072454 0 0 0 17.79068,-5.98963 l -0.15718,0 z"
               style="fill:#4d4d4d;fill-opacity:1;fill-rule:evenodd;stroke:none" />
            <ellipse
               style="fill:#4d4d4d;fill-opacity:1;fill-rule:evenodd;stroke:none"
               id="ellipse5836"
               cx="115.36047"
               cy="322.7529"
               rx="18.653244"
               ry="6.6204739" />
            <path
               style="fill:#4d4d4d;fill-opacity:1;fill-rule:evenodd;stroke:none"
               d="m 132.99338,321.90262 a 17.811725,4.8084377 0 0 1 -17.75575,4.50708 17.811725,4.8084377 0 0 1 -17.536794,-3.9747 17.811725,6.2072454 0 0 0 17.659044,5.45724 17.811725,6.2072454 0 0 0 17.79068,-5.98962 l -0.15718,0 z"
               id="path5838"
               inkscape:connector-curvature="0" />
            <ellipse
               style="fill:#4d4d4d;fill-opacity:1;fill-rule:evenodd;stroke:none"
               id="ellipse5840"
               cx="106.39493"
               cy="303.09326"
               rx="2.7077289"
               ry="1.2222413" />
          </g>
          <ellipse
             style="fill:#4d4d4d;fill-opacity:1;fill-rule:evenodd;stroke:none"
             id="ellipse5842"
             cx="510.41739"
             cy="445.42673"
             rx="74.317276"
             ry="26.376945" />
          <rect
             style="fill:#4d4d4d;fill-opacity:1;fill-rule:evenodd;stroke:none"
             id="rect5844"
             width="141.92201"
             height="146.49348"
             x="439.60696"
             y="445.02097" />
          <ellipse
             ry="26.376945"
             rx="74.317276"
             cy="596.9328"
             cx="509.93796"
             id="ellipse5846"
             style="fill:#4d4d4d;fill-opacity:1;fill-rule:evenodd;stroke:none" />
          <ellipse
             ry="18.869658"
             rx="65.447159"
             cy="445.62961"
             cx="510.17764"
             id="ellipse5848"
             style="fill:#ffffff;fill-opacity:1;fill-rule:evenodd;stroke:none" />
          <ellipse
             style="fill:#4d4d4d;fill-opacity:1;fill-rule:evenodd;stroke:none"
             id="ellipse5850"
             cx="509.93796"
             cy="522.13031"
             rx="74.317276"
             ry="26.376945" />
          <ellipse
             style="fill:#4d4d4d;fill-opacity:1;fill-rule:evenodd;stroke:none"
             id="ellipse5852"
             cx="474.21793"
             cy="443.80365"
             rx="10.787992"
             ry="4.8695898" />
        </g>
        <path
           inkscape:export-filename="/home/lonmadi/Рабочий стол/vida4a/vidacha_operator/20.png"
           sodipodi:nodetypes="cccccccccccccc"
           inkscape:export-ydpi="150"
           inkscape:export-xdpi="150"
           style="fill:#ffb82a;fill-opacity:1;fill-rule:evenodd;stroke:none"
           d="m 129.67357,401.23423 c -19.31885,5e-5 -34.97875,4.31887 -34.97506,9.64572 0.008,0.13474 0.025,0.26942 0.0529,0.40397 l -0.14606,0 0,43.35315 0.31074,0 c 1.81106,4.91966 16.8238,8.66445 34.75753,8.66996 17.94799,-2.4e-4 32.98224,-3.7464 34.79474,-8.66996 l 0.59667,0 0,-43.35315 -0.49101,0 c 0.0351,-0.1345 0.06,-0.26919 0.0745,-0.40397 0.004,-5.32686 -15.65623,-9.64568 -34.97508,-9.64572 z"
           id="path5854"
           inkscape:connector-curvature="0" />
      </g>
    </g>
  </g>
</svg>
