<?xml version="1.0" encoding="UTF-8" standalone="no"?>
<!-- Created with Inkscape (http://www.inkscape.org/) -->

<svg
   xmlns:dc="http://purl.org/dc/elements/1.1/"
   xmlns:cc="http://creativecommons.org/ns#"
   xmlns:rdf="http://www.w3.org/1999/02/22-rdf-syntax-ns#"
   xmlns:svg="http://www.w3.org/2000/svg"
   xmlns="http://www.w3.org/2000/svg"
   xmlns:sodipodi="http://sodipodi.sourceforge.net/DTD/sodipodi-0.dtd"
   xmlns:inkscape="http://www.inkscape.org/namespaces/inkscape"
   width="20mm"
   height="20mm"
   viewBox="0 0 70.866142 70.866142"
   id="svg5851"
   version="1.1"
   inkscape:version="0.91 r13725"
   sodipodi:docname="fluid-mean.svg">
  <defs
     id="defs5853" />
  <sodipodi:namedview
     id="base"
     pagecolor="#ffffff"
     bordercolor="#666666"
     borderopacity="1.0"
     inkscape:pageopacity="0.0"
     inkscape:pageshadow="2"
     inkscape:zoom="1.3955294"
     inkscape:cx="-142.27816"
     inkscape:cy="45.334479"
     inkscape:document-units="px"
     inkscape:current-layer="layer1"
     showgrid="false"
     fit-margin-top="0"
     fit-margin-left="0"
     fit-margin-right="0"
     fit-margin-bottom="0"
     inkscape:window-width="1366"
     inkscape:window-height="719"
     inkscape:window-x="0"
     inkscape:window-y="25"
     inkscape:window-maximized="1" />
  <metadata
     id="metadata5856">
    <rdf:RDF>
      <cc:Work
         rdf:about="">
        <dc:format>image/svg+xml</dc:format>
        <dc:type
           rdf:resource="http://purl.org/dc/dcmitype/StillImage" />
        <dc:title />
      </cc:Work>
    </rdf:RDF>
  </metadata>
  <g
     inkscape:label="Layer 1"
     inkscape:groupmode="layer"
     id="layer1"
     transform="translate(-209.67223,-198.34838)">
    <g
       id="g6978"
       transform="matrix(0.61347799,0,0,0.61347799,310.13287,-92.72591)"
       inkscape:export-filename="/home/lonmadi/Рабочий стол/vida4a/vidacha_operator/21.png"
       inkscape:export-xdpi="150"
       inkscape:export-ydpi="150">
      <g
         transform="matrix(1.8554959,0,0,1.8554959,-1062.0998,-692.55622)"
         id="g6933">
        <path
           inkscape:connector-curvature="0"
           style="opacity:1;fill:#4d4d4d;fill-opacity:1;stroke:none;stroke-opacity:1"
           d="m 508.49805,420.30078 a 9.2735319,9.2735319 0 0 0 -9.27344,9.27344 9.2735319,9.2735319 0 0 0 9.27344,9.27344 9.2735319,9.2735319 0 0 0 9.27343,-9.27344 9.2735319,9.2735319 0 0 0 -9.27343,-9.27344 z m 0,1.85352 a 7.4188256,7.4188256 0 0 1 7.41992,7.41992 7.4188256,7.4188256 0 0 1 -7.41992,7.41797 7.4188256,7.4188256 0 0 1 -7.41797,-7.41797 7.4188256,7.4188256 0 0 1 7.41797,-7.41992 z"
           transform="translate(0,252.36235)"
           id="path6918" />
        <circle
           style="opacity:1;fill:#4d4d4d;fill-opacity:1;stroke:none;stroke-opacity:1"
           id="path6927"
           cx="508.49805"
           cy="681.93658"
           r="2.0607846" />
        <rect
           style="opacity:1;fill:#4d4d4d;fill-opacity:1;stroke:none;stroke-opacity:1"
           id="rect6929"
           width="2.5500913"
           height="5.8287807"
           x="507.22299"
           y="676.58459"
           rx="1.2750456"
           ry="0.72859758" />
        <rect
           ry="1.047359"
           rx="0.91074693"
           y="-515.41608"
           x="-682.84735"
           height="8.3788719"
           width="1.8214939"
           id="rect6931"
           style="opacity:1;fill:#4d4d4d;fill-opacity:1;stroke:none;stroke-opacity:1"
           transform="matrix(0,-1,-1,0,0,0)" />
      </g>
      <g
         transform="matrix(1.1257827,0,0,1.1257827,-216.66151,223.17593)"
         id="g6939"
         inkscape:export-filename="/home/lonmadi/Рабочий стол/vida4a/vidacha_operator/22.png"
         inkscape:export-xdpi="150"
         inkscape:export-ydpi="150">
        <path
           inkscape:export-ydpi="150"
           inkscape:export-xdpi="150"
           inkscape:export-filename="/home/lonmadi/Рабочий стол/vida4a/vidacha_operator/212.png"
           style="fill:#0496f9;fill-opacity:1;fill-rule:evenodd;stroke:none"
           d="m 57.978571,260.80555 c 0,0 -3.512643,7.12048 -5.282873,10.67178 -1.626603,3.36219 -3.951776,7.58243 -5.164421,10.63222 -0.353995,1.09744 -0.535061,2.24334 -0.536765,3.39653 -5.28e-4,6.13918 4.975301,11.11649 11.114491,11.11755 6.140284,5.4e-4 11.118045,-4.9773 11.117416,-11.11755 -0.156045,-1.72163 -0.461284,-3.55381 -1.194796,-5.00994 -0.01649,-0.0247 -0.02196,-0.0483 -0.03563,-0.073 -0.812354,-1.57428 -3.099622,-6.00082 -4.63696,-9.00995 -1.802995,-3.52959 -5.379765,-10.60799 -5.379765,-10.60799 z"
           id="path6941"
           inkscape:connector-curvature="0"
           sodipodi:nodetypes="ccccccccccc" />
        <path
           inkscape:export-ydpi="150"
           inkscape:export-xdpi="150"
           inkscape:export-filename="/home/lonmadi/Рабочий стол/vida4a/vidacha_operator/212.png"
           sodipodi:nodetypes="cczc"
           inkscape:connector-curvature="0"
           id="path6943"
           d="m 58.028092,267.34657 0.02743,27.16526 c 0,0 12.315783,-2.31258 7.164583,-13.08376 -5.151073,-10.77118 -7.191125,-14.0815 -7.191125,-14.0815 z"
           style="fill:#ffffff;fill-opacity:1;fill-rule:evenodd;stroke:none" />
      </g>
      <rect
         transform="matrix(0.70710678,0.70710678,-0.70710678,0.70710678,0,0)"
         ry="1.3519106"
         rx="0.8117823"
         y="473.18909"
         x="295.79666"
         height="37.853466"
         width="1.8554958"
         id="rect6945"
         style="opacity:1;fill:#4d4d4d;fill-opacity:1;stroke:none;stroke-opacity:1" />
    </g>
  </g>
</svg>
