<?xml version="1.0" encoding="UTF-8" standalone="no"?>
<!-- Created with Inkscape (http://www.inkscape.org/) -->

<svg
   xmlns:dc="http://purl.org/dc/elements/1.1/"
   xmlns:cc="http://creativecommons.org/ns#"
   xmlns:rdf="http://www.w3.org/1999/02/22-rdf-syntax-ns#"
   xmlns:svg="http://www.w3.org/2000/svg"
   xmlns="http://www.w3.org/2000/svg"
   xmlns:sodipodi="http://sodipodi.sourceforge.net/DTD/sodipodi-0.dtd"
   xmlns:inkscape="http://www.inkscape.org/namespaces/inkscape"
   width="32.647331mm"
   height="24.732941mm"
   viewBox="0 0 115.67952 87.636403"
   id="svg6962"
   version="1.1"
   inkscape:version="0.91 r13725"
   sodipodi:docname="add-line.svg">
  <defs
     id="defs6964" />
  <sodipodi:namedview
     id="base"
     pagecolor="#ffffff"
     bordercolor="#666666"
     borderopacity="1.0"
     inkscape:pageopacity="0.0"
     inkscape:pageshadow="2"
     inkscape:zoom="1.979899"
     inkscape:cx="-60.965971"
     inkscape:cy="32.314081"
     inkscape:document-units="px"
     inkscape:current-layer="layer1"
     showgrid="false"
     fit-margin-top="0"
     fit-margin-left="0"
     fit-margin-right="0"
     fit-margin-bottom="0"
     inkscape:window-width="1366"
     inkscape:window-height="719"
     inkscape:window-x="0"
     inkscape:window-y="0"
     inkscape:window-maximized="1" />
  <metadata
     id="metadata6967">
    <rdf:RDF>
      <cc:Work
         rdf:about="">
        <dc:format>image/svg+xml</dc:format>
        <dc:type
           rdf:resource="http://purl.org/dc/dcmitype/StillImage" />
        <dc:title></dc:title>
      </cc:Work>
    </rdf:RDF>
  </metadata>
  <g
     inkscape:label="Layer 1"
     inkscape:groupmode="layer"
     id="layer1"
     transform="translate(-521.31715,-384.4397)">
    <g
       id="g7793"
       transform="translate(253.8927,-1231.9925)">
      <path
         style="opacity:1;fill:#0496f9;fill-opacity:1;fill-rule:evenodd;stroke:none;stroke-width:8.19999981;stroke-miterlimit:4;stroke-dasharray:none;stroke-dashoffset:0;stroke-opacity:1"
         d="m 280.69925,1616.4322 0,13.2749 -13.2748,0 0,14.2961 13.2748,0 0,13.2748 14.2961,0 0,-13.2748 13.2758,0 0,-14.2961 -13.2758,0 0,-13.2749 -14.2961,0 z"
         id="path7715"
         inkscape:connector-curvature="0" />
      <g
         id="g7783"
         transform="matrix(1.8115578,0,0,1.8115578,-1341.1433,617.48909)"
         style="fill:#4d4d4d;fill-opacity:1">
        <path
           inkscape:export-filename="/home/lonmadi/Рабочий стол/vida4a/vidacha_operator/20.png"
           inkscape:export-ydpi="150"
           inkscape:export-xdpi="150"
           sodipodi:nodetypes="czssssscccccccssscssssscc"
           inkscape:connector-curvature="0"
           id="path7785"
           d="m 907.02454,569.96475 c 0,0 2.94275,0.36211 4.23946,2.11973 1.29672,1.75763 1.95667,4.23946 1.95667,5.86998 0,1.63053 -0.43317,13.54549 -0.16307,15.49032 0.40765,2.93494 2.60889,3.3426 3.26113,1.87512 0.6522,-1.46747 -0.0815,-15.57178 0.24457,-16.71319 0.32611,-1.14138 0.65223,-2.03824 1.63058,-2.36433 0.97833,-0.32609 0.6522,-2.11973 0.6522,-2.11973 l 6.68528,-7.41902 2.52736,-0.81529 1.4675,-1.79358 5.70695,0 0,2.93496 -5.38082,0.16305 c 0,0 -0.65223,-1.46748 -0.81528,0.32616 -0.16306,1.79357 0.57069,2.28278 -0.73375,4.07634 -1.30445,1.79364 -2.77196,4.23946 -4.40251,4.56555 -1.63057,0.32616 -2.85346,1.14138 -3.34262,2.11974 -0.48917,0.97834 -0.65223,13.69666 -0.65223,15.65334 0,2.30601 -0.4892,4.23947 -1.95668,5.21781 -1.46751,0.97834 -4.40251,0.65226 -5.38084,0.32609 -0.97833,-0.32609 -2.28278,-2.03817 -2.77194,-3.50564 -0.48917,-1.46757 -0.45056,-15.74019 -0.32612,-17.2024 0.32612,-3.83181 -2.44584,-4.64711 -2.44584,-4.64711 z"
           style="fill:#4d4d4d;fill-opacity:1;fill-rule:evenodd;stroke:none;stroke-width:1px;stroke-linecap:butt;stroke-linejoin:miter;stroke-opacity:1" />
        <circle
           inkscape:export-filename="/home/lonmadi/Рабочий стол/vida4a/vidacha_operator/20.png"
           inkscape:export-ydpi="150"
           inkscape:export-xdpi="150"
           style="opacity:1;fill:#4d4d4d;fill-opacity:1;fill-rule:evenodd;stroke:none;stroke-width:1;stroke-miterlimit:4;stroke-dasharray:none;stroke-opacity:1"
           id="circle7787"
           cx="939.13177"
           cy="566.23932"
           r="1.6940776" />
        <circle
           inkscape:export-filename="/home/lonmadi/Рабочий стол/vida4a/vidacha_operator/20.png"
           inkscape:export-ydpi="150"
           inkscape:export-xdpi="150"
           r="2.5411167"
           cy="569.31702"
           cx="943.42346"
           id="circle7789"
           style="opacity:1;fill:#4d4d4d;fill-opacity:1;fill-rule:evenodd;stroke:none;stroke-width:1;stroke-miterlimit:4;stroke-dasharray:none;stroke-opacity:1" />
        <circle
           inkscape:export-filename="/home/lonmadi/Рабочий стол/vida4a/vidacha_operator/20.png"
           inkscape:export-ydpi="150"
           inkscape:export-xdpi="150"
           style="opacity:1;fill:#4d4d4d;fill-opacity:1;fill-rule:evenodd;stroke:none;stroke-width:1;stroke-miterlimit:4;stroke-dasharray:none;stroke-opacity:1"
           id="circle7791"
           cx="948.56738"
           cy="574.73895"
           r="3.2362363" />
      </g>
    </g>
  </g>
</svg>
