<?xml version="1.0" encoding="UTF-8" standalone="no"?>
<!-- Created with Inkscape (http://www.inkscape.org/) -->

<svg
   xmlns:dc="http://purl.org/dc/elements/1.1/"
   xmlns:cc="http://creativecommons.org/ns#"
   xmlns:rdf="http://www.w3.org/1999/02/22-rdf-syntax-ns#"
   xmlns:svg="http://www.w3.org/2000/svg"
   xmlns="http://www.w3.org/2000/svg"
   xmlns:sodipodi="http://sodipodi.sourceforge.net/DTD/sodipodi-0.dtd"
   xmlns:inkscape="http://www.inkscape.org/namespaces/inkscape"
   width="17.304119mm"
   height="18.593693mm"
   viewBox="0 0 61.313808 65.883163"
   id="svg6962"
   version="1.1"
   inkscape:version="0.91 r13725"
   sodipodi:docname="add-to.svg">
  <defs
     id="defs6964" />
  <sodipodi:namedview
     id="base"
     pagecolor="#ffffff"
     bordercolor="#666666"
     borderopacity="1.0"
     inkscape:pageopacity="0.0"
     inkscape:pageshadow="2"
     inkscape:zoom="5.6"
     inkscape:cx="25.247199"
     inkscape:cy="35.93512"
     inkscape:document-units="px"
     inkscape:current-layer="layer1"
     showgrid="false"
     fit-margin-top="0"
     fit-margin-left="0"
     fit-margin-right="0"
     fit-margin-bottom="0"
     inkscape:window-width="1280"
     inkscape:window-height="971"
     inkscape:window-x="-8"
     inkscape:window-y="-8"
     inkscape:window-maximized="1" />
  <metadata
     id="metadata6967">
    <rdf:RDF>
      <cc:Work
         rdf:about="">
        <dc:format>image/svg+xml</dc:format>
        <dc:type
           rdf:resource="http://purl.org/dc/dcmitype/StillImage" />
        <dc:title></dc:title>
      </cc:Work>
    </rdf:RDF>
  </metadata>
  <g
     inkscape:label="Layer 1"
     inkscape:groupmode="layer"
     id="layer1"
     transform="translate(-506.2759,-392.52259)">
    <g
       id="g4182">
      <path
         inkscape:connector-curvature="0"
         id="rect6444"
         d="m 519.5507,392.52259 0,13.2749 -13.2748,0 0,14.2961 13.2748,0 0,13.2748 14.2961,0 0,-13.2748 13.2758,0 0,-14.2961 -13.2758,0 0,-13.2749 -14.2961,0 z"
         style="opacity:1;fill:#0496f9;fill-opacity:1;fill-rule:evenodd;stroke:none;stroke-width:8.19999981;stroke-miterlimit:4;stroke-dasharray:none;stroke-dashoffset:0;stroke-opacity:1" />
      <path
         inkscape:connector-curvature="0"
         id="path4821"
         d="m 534.44773,458.24076 c -0.88648,-0.42441 -1.64433,-1.18793 -3.0522,-3.07501 -0.55941,-0.74981 -0.98896,-1.69649 -1.06176,-2.33991 -0.0334,-0.2949 -0.0156,-0.40206 0.12142,-0.73091 0.21439,-0.51469 0.46973,-0.92006 0.8003,-1.27054 0.2144,-0.22733 2.67254,-2.29114 3.66209,-3.07463 0.10203,-0.0807 0.57518,-0.46952 1.05145,-0.86386 0.47627,-0.39435 0.98265,-0.81083 1.12528,-0.92552 0.36932,-0.29697 1.85837,-1.53146 2.00044,-1.65846 0.24266,-0.21693 0.84913,-0.54196 1.31127,-0.70277 0.44343,-0.15429 0.54598,-0.16621 1.49677,-0.17394 0.92323,-0.008 1.03997,-0.0202 1.22234,-0.1329 0.56162,-0.3471 0.6574,-0.60618 0.70964,-1.91937 0.0485,-1.21985 0.14453,-1.58454 0.40023,-1.52036 0.22769,0.0571 0.72309,0.46222 1.14514,0.93636 0.80938,0.9093 1.20569,1.17842 1.75146,1.18939 0.8932,0.0179 1.04674,-1.07216 0.29274,-2.07834 -0.62949,-0.84005 -2.0433,-2.50115 -2.27319,-2.6708 -0.3164,-0.23351 -0.72584,-0.37821 -1.20087,-0.42441 -0.28187,-0.0274 -0.41935,0.002 -0.98349,0.21017 -0.8358,0.30845 -1.80997,0.54488 -2.24549,0.54498 -0.39495,6e-5 -1.18171,-0.23027 -1.64074,-0.48041 -1.2072,-0.65783 -2.21832,-1.85129 -3.17664,-3.74949 -0.44678,-0.88495 -0.61935,-1.35039 -0.83936,-2.26393 -0.21089,-0.87564 -0.28033,-1.94385 -0.17927,-2.7574 0.11532,-0.92821 0.3619,-1.26813 0.91383,-1.25973 0.39742,0.006 0.56533,0.14274 1.57835,1.28486 2.85542,3.21934 2.68365,3.05593 3.40725,3.24131 0.47675,0.12214 0.87247,0.077 1.34846,-0.15381 0.80138,-0.3886 2.62684,-1.95522 2.99088,-2.56679 0.22583,-0.37937 0.32219,-0.89446 0.255,-1.36307 -0.085,-0.5928 -0.0909,-0.60218 -1.24988,-2.00145 -2.46575,-2.97687 -2.40878,-2.89824 -2.40878,-3.32452 0,-0.62405 0.28475,-0.81047 1.23795,-0.81047 1.75334,0 3.38787,0.63326 5.43191,2.10444 0.44287,0.31876 1.60243,1.45703 1.83852,1.80478 0.48141,0.70907 0.61582,0.94193 0.79263,1.37314 0.25976,0.63349 0.33655,1.06663 0.2993,1.68816 -0.0357,0.59547 -0.26739,1.24599 -0.76397,2.14478 -0.58951,1.06699 -0.55938,0.97555 -0.55938,1.69795 0,0.60698 0.0127,0.67953 0.17192,0.98302 0.27264,0.51961 2.03214,2.59325 2.43929,2.8748 0.49097,0.33949 1.23278,0.37345 1.73457,0.0793 0.14821,-0.0868 1.00048,-0.77696 1.89394,-1.53357 0.89345,-0.7566 2.20087,-1.85957 2.90537,-2.45103 2.01313,-1.69012 2.53908,-2.27165 2.77098,-3.06381 0.0727,-0.24823 0.17342,-0.39267 0.49872,-0.71492 0.44299,-0.43884 0.69311,-0.6266 1.73477,-1.30223 1.04875,-0.68024 1.12422,-0.71022 1.78732,-0.71003 0.47369,1.3e-4 0.60484,0.0218 0.80428,0.13269 0.3611,0.20082 0.4903,0.3323 0.66889,0.68068 0.13164,0.25679 0.1634,0.39917 0.16409,0.73547 0.002,0.70645 -0.19148,1.02331 -1.31821,2.16524 -1.25832,1.2753 -1.67699,1.55217 -2.44986,1.62012 -0.70513,0.062 -1.41771,0.47799 -2.64014,1.54125 -0.24838,0.21604 -0.567,0.48663 -0.70803,0.60132 -0.14104,0.11468 -0.55628,0.4632 -0.92276,0.7745 -0.36649,0.31129 -1.25431,1.05906 -1.97295,1.66173 -1.63525,1.37137 -1.90326,1.64623 -2.02987,2.08173 -0.11734,0.40366 -0.0826,0.90766 0.085,1.23554 0.0912,0.1784 2.30257,2.84692 2.71021,3.27054 0.04,0.0417 0.18342,0.20653 0.31859,0.36646 0.27673,0.32742 0.42609,0.50323 1.59588,1.8783 1.15062,1.35257 1.30876,1.51149 1.86542,1.87464 0.46059,0.30048 0.7568,0.4449 2.07192,1.01016 1.06913,0.45954 2.01418,1.22909 2.56301,2.08705 0.4799,0.75019 0.79064,1.75589 0.84357,2.73019 0.0758,1.39506 -0.52349,2.90323 -1.56569,3.94032 -2.0887,2.07844 -5.42303,2.08654 -7.53131,0.0183 -1.03754,-1.01784 -1.53903,-2.22763 -1.57737,-3.80521 -0.0325,-1.33876 -0.0131,-1.30521 -2.61889,-4.52105 -0.88644,-1.09396 -1.73235,-2.14398 -1.8798,-2.33338 -0.827,-1.06224 -1.71281,-2.11352 -1.94291,-2.30587 -0.85958,-0.71852 -1.76279,-0.4848 -1.76279,0.45615 0,0.40577 0.0787,0.58207 0.52963,1.18652 0.17885,0.23975 0.40361,0.60168 0.49946,0.80429 0.351,0.74193 0.31471,0.7545 -1.73587,0.60125 -0.44422,-0.0332 -0.54122,-0.0223 -0.75035,0.0844 -0.4689,0.23921 -0.79311,0.79997 -0.79592,1.37659 -0.003,0.70778 -0.43615,1.7809 -0.99492,2.46743 -0.11807,0.14505 -1.65167,1.46673 -2.46469,2.12409 -0.28245,0.22837 -3.06139,2.54712 -3.53967,2.95349 -1.15337,0.97998 -2.23112,1.82424 -2.6296,2.05988 -0.91354,0.54023 -1.73344,0.66316 -2.37487,0.35607 z m 28.79478,-2.60538 c 1.14227,-0.42606 1.87156,-1.47992 1.87156,-2.70448 0,-0.81296 -0.27578,-1.46321 -0.86842,-2.04762 -1.12346,-1.10786 -2.91465,-1.1037 -4.02771,0.009 -0.57478,0.57477 -0.84659,1.23153 -0.84659,2.04556 0,2.01706 1.98558,3.40048 3.87116,2.69717 z"
         style="fill:#4d4d4d;fill-opacity:1" />
    </g>
  </g>
</svg>
