<?xml version="1.0" encoding="UTF-8" standalone="no"?>
<!-- Created with Inkscape (http://www.inkscape.org/) -->

<svg
   xmlns:dc="http://purl.org/dc/elements/1.1/"
   xmlns:cc="http://creativecommons.org/ns#"
   xmlns:rdf="http://www.w3.org/1999/02/22-rdf-syntax-ns#"
   xmlns:svg="http://www.w3.org/2000/svg"
   xmlns="http://www.w3.org/2000/svg"
   xmlns:sodipodi="http://sodipodi.sourceforge.net/DTD/sodipodi-0.dtd"
   xmlns:inkscape="http://www.inkscape.org/namespaces/inkscape"
   width="20.648081mm"
   height="19.261852mm"
   viewBox="0 0 73.162491 68.250657"
   id="svg6962"
   version="1.1"
   inkscape:version="0.91 r13725"
   sodipodi:docname="add-zone.svg">
  <defs
     id="defs6964" />
  <sodipodi:namedview
     id="base"
     pagecolor="#ffffff"
     bordercolor="#666666"
     borderopacity="1.0"
     inkscape:pageopacity="0.0"
     inkscape:pageshadow="2"
     inkscape:zoom="1.979899"
     inkscape:cx="-34.44281"
     inkscape:cy="65.472421"
     inkscape:document-units="px"
     inkscape:current-layer="layer1"
     showgrid="false"
     fit-margin-top="0"
     fit-margin-left="0"
     fit-margin-right="0"
     fit-margin-bottom="0"
     inkscape:window-width="1366"
     inkscape:window-height="719"
     inkscape:window-x="0"
     inkscape:window-y="25"
     inkscape:window-maximized="1" />
  <metadata
     id="metadata6967">
    <rdf:RDF>
      <cc:Work
         rdf:about="">
        <dc:format>image/svg+xml</dc:format>
        <dc:type
           rdf:resource="http://purl.org/dc/dcmitype/StillImage" />
        <dc:title></dc:title>
      </cc:Work>
    </rdf:RDF>
  </metadata>
  <g
     inkscape:label="Layer 1"
     inkscape:groupmode="layer"
     id="layer1"
     transform="translate(-506.2759,-392.52259)">
    <g
       id="g4174">
      <path
         inkscape:connector-curvature="0"
         id="rect6444-8"
         d="m 519.5507,392.52259 0,13.2749 -13.2748,0 0,14.2961 13.2748,0 0,13.2748 14.2961,0 0,-13.2748 13.2758,0 0,-14.2961 -13.2758,0 0,-13.2749 -14.2961,0 z"
         style="opacity:1;fill:#0496f9;fill-opacity:1;fill-rule:evenodd;stroke:none;stroke-width:8.19999981;stroke-miterlimit:4;stroke-dasharray:none;stroke-dashoffset:0;stroke-opacity:1" />
      <path
         inkscape:export-ydpi="150"
         inkscape:export-xdpi="150"
         inkscape:export-filename="/home/lonmadi/Рабочий стол/vida4a/vidacha_operator/50.png"
         style="fill:#666666;fill-opacity:1;fill-rule:evenodd;stroke:none"
         d="m 557.49273,420.43359 c 0,0 -16.32214,8.33607 -17.32245,8.79162 -0.62014,0.28242 -2.45977,1.09692 -2.45977,2.45977 l 0,4.67054 c 0,1.27259 0.96148,2.2978 2.19791,2.42971 l 0,19.78329 c 0,1.36284 1.09693,2.46084 2.45976,2.46084 l 30.52168,0 c 1.36285,0 2.46085,-1.098 2.46085,-2.46084 l 0,-19.78329 c 1.23613,-0.13229 2.1979,-1.15744 2.1979,-2.42971 l 0,-4.67054 c 0,-1.36285 -1.2417,-1.85063 -2.46084,-2.45977 z m 0,2.19791 15.39713,7.69266 c 1.21917,0.60909 2.46085,1.09693 2.46085,2.45976 l 0,2.47265 c 0,0.34639 -0.1366,0.82415 -0.20069,0.97339 -2.9e-4,5.4e-4 2.9e-4,0.008 0,0.009 -4e-5,10e-5 -8.1e-4,8e-4 -8.1e-4,8e-4 -0.31005,0.60038 -1.22317,1.0732 -1.72999,1.0732 -0.50682,0 -0.41276,0.88299 -0.40352,1.49496 l 0,18.36774 c 0,1.18332 -0.95233,2.13566 -2.13566,2.13566 l -26.50149,0 c -1.18331,0 -2.13566,-0.95234 -2.13566,-2.13566 l 0,-18.36774 c 0,-0.55266 0.17379,-1.49496 -0.48509,-1.49496 -0.69146,0 -1.31672,-0.5101 -1.63984,-1.06676 -1.3e-4,-3.1e-4 1.4e-4,-5.5e-4 0,-8.1e-4 -0.13244,-0.30269 -0.20927,-0.63585 -0.20927,-0.98841 l 0,-2.47264 c 0,-1.36284 1.83963,-2.17734 2.45976,-2.45977 1.00032,-0.45555 15.12455,-7.69266 15.12455,-7.69266 z"
         id="path5231"
         inkscape:connector-curvature="0"
         sodipodi:nodetypes="cssscsssscssccccssccczcssssccccssscc" />
    </g>
  </g>
</svg>
