<?xml version="1.0" encoding="UTF-8" standalone="no"?>
<!-- Created with Inkscape (http://www.inkscape.org/) -->

<svg
   xmlns:dc="http://purl.org/dc/elements/1.1/"
   xmlns:cc="http://creativecommons.org/ns#"
   xmlns:rdf="http://www.w3.org/1999/02/22-rdf-syntax-ns#"
   xmlns:svg="http://www.w3.org/2000/svg"
   xmlns="http://www.w3.org/2000/svg"
   xmlns:sodipodi="http://sodipodi.sourceforge.net/DTD/sodipodi-0.dtd"
   xmlns:inkscape="http://www.inkscape.org/namespaces/inkscape"
   width="20.648081mm"
   height="19.261852mm"
   viewBox="0 0 73.162491 68.250657"
   id="svg6962"
   version="1.1"
   inkscape:version="0.91 r13725"
   sodipodi:docname="add-user.svg">
  <defs
     id="defs6964" />
  <sodipodi:namedview
     id="base"
     pagecolor="#ffffff"
     bordercolor="#666666"
     borderopacity="1.0"
     inkscape:pageopacity="0.0"
     inkscape:pageshadow="2"
     inkscape:zoom="1.979899"
     inkscape:cx="-34.44281"
     inkscape:cy="66.482574"
     inkscape:document-units="px"
     inkscape:current-layer="layer1"
     showgrid="false"
     fit-margin-top="0"
     fit-margin-left="0"
     fit-margin-right="0"
     fit-margin-bottom="0"
     inkscape:window-width="1366"
     inkscape:window-height="719"
     inkscape:window-x="0"
     inkscape:window-y="0"
     inkscape:window-maximized="1" />
  <metadata
     id="metadata6967">
    <rdf:RDF>
      <cc:Work
         rdf:about="">
        <dc:format>image/svg+xml</dc:format>
        <dc:type
           rdf:resource="http://purl.org/dc/dcmitype/StillImage" />
        <dc:title></dc:title>
      </cc:Work>
    </rdf:RDF>
  </metadata>
  <g
     inkscape:label="Layer 1"
     inkscape:groupmode="layer"
     id="layer1"
     transform="translate(-506.2759,-392.52259)">
    <g
       id="g4177">
      <path
         inkscape:connector-curvature="0"
         id="rect6444-8"
         d="m 519.5507,392.52259 0,13.2749 -13.2748,0 0,14.2961 13.2748,0 0,13.2748 14.2961,0 0,-13.2748 13.2758,0 0,-14.2961 -13.2758,0 0,-13.2749 -14.2961,0 z"
         style="opacity:1;fill:#0496f9;fill-opacity:1;fill-rule:evenodd;stroke:none;stroke-width:8.19999981;stroke-miterlimit:4;stroke-dasharray:none;stroke-dashoffset:0;stroke-opacity:1" />
      <g
         id="g7699"
         transform="matrix(0.65931863,0,0,0.65931863,428.87275,115.38312)"
         inkscape:export-xdpi="150"
         inkscape:export-ydpi="150">
        <path
           sodipodi:nodetypes="ccccccccccscccccsc"
           inkscape:connector-curvature="0"
           id="path7701"
           d="m 183.3867,496.33734 -10.98393,1.97979 c -5.94953,0 -9.03194,5.04679 -7.30127,10.73904 2.50888,7.03141 2.89738,14.59627 7.30127,14.69485 l 22.51791,0 0.46528,0 22.51791,0 c 4.40389,-0.0986 4.79239,-7.66344 7.30127,-14.69485 1.73067,-5.69225 -1.35174,-10.73904 -7.30127,-10.73904 l -10.98393,-1.97979 c -3.61799,5.05642 -6.85262,6.37825 -11.20057,6.37825 -0.1098,0 -0.22238,-0.0105 -0.33341,-0.015 l 0,-0.0226 c -0.0785,0.007 -0.15536,0.006 -0.23359,0.0113 -0.0776,-0.005 -0.1538,-0.005 -0.23169,-0.0113 l 0,0.0226 c -0.11103,0.005 -0.22361,0.015 -0.33341,0.015 -4.34795,0 -7.58258,-1.32183 -11.20057,-6.37825 z"
           style="opacity:1;fill:#5c5c5c;fill-opacity:1;stroke:none;stroke-width:1;stroke-miterlimit:4;stroke-dasharray:none;stroke-dashoffset:0;stroke-opacity:1" />
        <g
           transform="matrix(0.88754162,0,0,0.88754162,21.950273,55.978507)"
           id="g7703">
          <path
             style="opacity:1;fill:#5c5c5c;fill-opacity:1;stroke:none;stroke-width:1;stroke-miterlimit:4;stroke-dasharray:none;stroke-dashoffset:0;stroke-opacity:1"
             d="m 212.56929,471.02194 c 0,12.42988 -9.61066,26.74892 -17.36812,26.74892 -7.75746,0 -17.36812,-13.96549 -17.36812,-26.39537 0,-6.87462 1.17109,-9.14025 5.16422,-13.2685 3.22677,-3.33598 7.45668,-5.34869 12.2039,-5.34869 5.04084,0 9.49841,2.26939 12.79102,5.98271 3.64547,4.11127 4.5771,5.74991 4.5771,12.28093 z"
             id="path7705"
             inkscape:connector-curvature="0"
             sodipodi:nodetypes="szsssss" />
          <ellipse
             ry="5.6568542"
             rx="4.0658641"
             cy="512.7807"
             cx="-23.181786"
             id="ellipse7707"
             style="opacity:1;fill:#5c5c5c;fill-opacity:1;stroke:none;stroke-width:1;stroke-miterlimit:4;stroke-dasharray:none;stroke-dashoffset:0;stroke-opacity:1"
             transform="matrix(0.91799501,-0.39659194,0.39659194,0.91799501,0,0)" />
          <ellipse
             transform="matrix(-0.91799501,-0.39659194,-0.39659194,0.91799501,0,0)"
             style="opacity:1;fill:#5c5c5c;fill-opacity:1;stroke:none;stroke-width:1;stroke-miterlimit:4;stroke-dasharray:none;stroke-dashoffset:0;stroke-opacity:1"
             id="ellipse7709"
             cx="-381.35403"
             cy="358.0433"
             rx="4.0658641"
             ry="5.6568542" />
        </g>
      </g>
    </g>
  </g>
</svg>
