<?xml version="1.0" encoding="UTF-8" standalone="no"?>
<!-- Created with Inkscape (http://www.inkscape.org/) -->

<svg
   xmlns:dc="http://purl.org/dc/elements/1.1/"
   xmlns:cc="http://creativecommons.org/ns#"
   xmlns:rdf="http://www.w3.org/1999/02/22-rdf-syntax-ns#"
   xmlns:svg="http://www.w3.org/2000/svg"
   xmlns="http://www.w3.org/2000/svg"
   xmlns:sodipodi="http://sodipodi.sourceforge.net/DTD/sodipodi-0.dtd"
   xmlns:inkscape="http://www.inkscape.org/namespaces/inkscape"
   width="20.648081mm"
   height="19.261852mm"
   viewBox="0 0 73.162491 68.250657"
   id="svg6962"
   version="1.1"
   inkscape:version="0.91 r13725"
   sodipodi:docname="add-oil.svg">
  <defs
     id="defs6964">
    <filter
       inkscape:collect="always"
       style="color-interpolation-filters:sRGB"
       id="filter4934-6"
       x="-0.11659532"
       width="1.2331907"
       y="-0.085117035"
       height="1.1702341">
      <feGaussianBlur
         inkscape:collect="always"
         stdDeviation="1.8182477"
         id="feGaussianBlur4936-3" />
    </filter>
  </defs>
  <sodipodi:namedview
     id="base"
     pagecolor="#ffffff"
     bordercolor="#666666"
     borderopacity="1.0"
     inkscape:pageopacity="0.0"
     inkscape:pageshadow="2"
     inkscape:zoom="5.6"
     inkscape:cx="28.372199"
     inkscape:cy="38.302617"
     inkscape:document-units="px"
     inkscape:current-layer="layer1"
     showgrid="false"
     fit-margin-top="0"
     fit-margin-left="0"
     fit-margin-right="0"
     fit-margin-bottom="0"
     inkscape:window-width="1366"
     inkscape:window-height="719"
     inkscape:window-x="0"
     inkscape:window-y="0"
     inkscape:window-maximized="1" />
  <metadata
     id="metadata6967">
    <rdf:RDF>
      <cc:Work
         rdf:about="">
        <dc:format>image/svg+xml</dc:format>
        <dc:type
           rdf:resource="http://purl.org/dc/dcmitype/StillImage" />
        <dc:title></dc:title>
      </cc:Work>
    </rdf:RDF>
  </metadata>
  <g
     inkscape:label="Layer 1"
     inkscape:groupmode="layer"
     id="layer1"
     transform="translate(-506.2759,-392.52259)">
    <g
       id="g9112"
       transform="translate(-658.1283,70.349452)">
      <path
         inkscape:connector-curvature="0"
         id="rect6444"
         d="m 1177.679,322.17314 0,13.2749 -13.2748,0 0,14.2961 13.2748,0 0,13.2748 14.2961,0 0,-13.2748 13.2758,0 0,-14.2961 -13.2758,0 0,-13.2749 -14.2961,0 z"
         style="opacity:1;fill:#0496f9;fill-opacity:1;fill-rule:evenodd;stroke:none;stroke-width:8.19999981;stroke-miterlimit:4;stroke-dasharray:none;stroke-dashoffset:0;stroke-opacity:1" />
      <g
         id="g9058"
         transform="matrix(0.81805192,0,0,0.81805192,836.49566,-58.010409)"
         inkscape:export-xdpi="150"
         inkscape:export-ydpi="150">
        <g
           transform="matrix(1.0651314,0,0,1.0651314,-28.919683,-34.95913)"
           id="g9060">
          <g
             transform="matrix(1.0219886,0,0,1.0219886,345.90408,187.21121)"
             id="g9062"
             style="opacity:0.63599997;fill:#4d4d4d;filter:url(#filter4934-6)"
             inkscape:export-filename="/home/aproken/Рабочий стол/vida4a/vida4a13.png"
             inkscape:export-xdpi="150"
             inkscape:export-ydpi="150">
            <ellipse
               style="fill:#4d4d4d;fill-opacity:1;fill-rule:evenodd;stroke:none"
               id="ellipse9064"
               cx="115.48083"
               cy="303.50067"
               rx="18.653244"
               ry="6.6204739" />
            <rect
               style="fill:#4d4d4d;fill-opacity:1;fill-rule:evenodd;stroke:none"
               id="rect9066"
               width="35.621677"
               height="36.769093"
               x="97.707771"
               y="303.3988" />
            <ellipse
               ry="6.6204739"
               rx="18.653244"
               cy="341.52789"
               cx="115.36047"
               id="ellipse9068"
               style="fill:#4d4d4d;fill-opacity:1;fill-rule:evenodd;stroke:none" />
            <ellipse
               ry="4.7361846"
               rx="16.426889"
               cy="303.55157"
               cx="115.42064"
               id="ellipse9070"
               style="fill:#4d4d4d;fill-opacity:1;fill-rule:evenodd;stroke:none" />
            <path
               inkscape:connector-curvature="0"
               id="path9072"
               d="m 132.99338,340.67758 a 17.811725,4.8084377 0 0 1 -17.75575,4.50709 17.811725,4.8084377 0 0 1 -17.536794,-3.97471 17.811725,6.2072454 0 0 0 17.659044,5.45725 17.811725,6.2072454 0 0 0 17.79068,-5.98963 l -0.15718,0 z"
               style="fill:#4d4d4d;fill-opacity:1;fill-rule:evenodd;stroke:none" />
            <ellipse
               style="fill:#4d4d4d;fill-opacity:1;fill-rule:evenodd;stroke:none"
               id="ellipse9074"
               cx="115.36047"
               cy="322.7529"
               rx="18.653244"
               ry="6.6204739" />
            <path
               style="fill:#4d4d4d;fill-opacity:1;fill-rule:evenodd;stroke:none"
               d="m 132.99338,321.90262 a 17.811725,4.8084377 0 0 1 -17.75575,4.50708 17.811725,4.8084377 0 0 1 -17.536794,-3.9747 17.811725,6.2072454 0 0 0 17.659044,5.45724 17.811725,6.2072454 0 0 0 17.79068,-5.98962 l -0.15718,0 z"
               id="path9076"
               inkscape:connector-curvature="0" />
            <ellipse
               style="fill:#4d4d4d;fill-opacity:1;fill-rule:evenodd;stroke:none"
               id="ellipse9078"
               cx="106.39493"
               cy="303.09326"
               rx="2.7077289"
               ry="1.2222413" />
          </g>
          <ellipse
             style="fill:#4d4d4d;fill-opacity:1;fill-rule:evenodd;stroke:none"
             id="ellipse9080"
             cx="463.57147"
             cy="495.44534"
             rx="19.063402"
             ry="6.766048" />
          <rect
             style="fill:#4d4d4d;fill-opacity:1;fill-rule:evenodd;stroke:none"
             id="rect9082"
             width="36.404945"
             height="37.577591"
             x="445.40765"
             y="495.34116" />
          <ellipse
             ry="6.766048"
             rx="19.063402"
             cy="534.30859"
             cx="463.44849"
             id="ellipse9084"
             style="fill:#4d4d4d;fill-opacity:1;fill-rule:evenodd;stroke:none" />
          <ellipse
             style="fill:#4d4d4d;fill-opacity:1;fill-rule:evenodd;stroke:none"
             id="ellipse9086"
             cx="463.44849"
             cy="515.12073"
             rx="19.063402"
             ry="6.766048" />
        </g>
        <g
           transform="matrix(1.1837307,0,0,1.1837307,276.64927,144.28017)"
           id="g9088"
           inkscape:export-filename="/home/aproken/Рабочий стол/vida4a/vida4a13.png"
           inkscape:export-xdpi="150"
           inkscape:export-ydpi="150">
          <circle
             style="fill:#ffffff;fill-opacity:1;fill-rule:evenodd;stroke:none"
             id="circle9090"
             cx="159.24715"
             cy="316.36078"
             r="9.2392225" />
          <path
             style="fill:#4d4d4d;fill-opacity:1;fill-rule:evenodd;stroke:none"
             d="m 159.19906,309.83061 c 0,0 -1.28082,2.59635 -1.9263,3.89127 -0.59311,1.22596 -1.44094,2.76479 -1.88311,3.87684 -0.12908,0.40016 -0.1951,0.81799 -0.19572,1.23848 -2.2e-4,2.23854 1.81415,4.05342 4.05269,4.05381 2.23894,2.3e-4 4.05399,-1.81488 4.05376,-4.05381 -0.0569,-0.62776 -0.1682,-1.29583 -0.43566,-1.82678 -0.006,-0.009 -0.008,-0.0176 -0.013,-0.0266 -0.29621,-0.57403 -1.13022,-2.18809 -1.69078,-3.28531 -0.65743,-1.287 -1.96163,-3.86801 -1.96163,-3.86801 z"
             id="path9092"
             inkscape:connector-curvature="0"
             sodipodi:nodetypes="ccccccccccc" />
          <path
             sodipodi:nodetypes="cczc"
             inkscape:connector-curvature="0"
             id="path9094"
             d="m 159.21712,312.21567 0.01,9.90531 c 0,0 4.49072,-0.84324 2.61243,-4.77075 -1.87824,-3.92751 -2.62211,-5.13456 -2.62211,-5.13456 z"
             style="fill:#ffffff;fill-opacity:1;fill-rule:evenodd;stroke:none" />
        </g>
      </g>
    </g>
  </g>
</svg>
