<?xml version="1.0" encoding="UTF-8" standalone="no"?>
<!-- Created with Inkscape (http://www.inkscape.org/) -->

<svg
   xmlns:dc="http://purl.org/dc/elements/1.1/"
   xmlns:cc="http://creativecommons.org/ns#"
   xmlns:rdf="http://www.w3.org/1999/02/22-rdf-syntax-ns#"
   xmlns:svg="http://www.w3.org/2000/svg"
   xmlns="http://www.w3.org/2000/svg"
   xmlns:sodipodi="http://sodipodi.sourceforge.net/DTD/sodipodi-0.dtd"
   xmlns:inkscape="http://www.inkscape.org/namespaces/inkscape"
   width="16.040581mm"
   height="15.52215mm"
   viewBox="0 0 56.836703 54.999744"
   id="svg6306"
   version="1.1"
   inkscape:version="0.91 r13725"
   sodipodi:docname="back.svg">
  <defs
     id="defs6308" />
  <sodipodi:namedview
     id="base"
     pagecolor="#ffffff"
     bordercolor="#666666"
     borderopacity="1.0"
     inkscape:pageopacity="0.0"
     inkscape:pageshadow="2"
     inkscape:zoom="0.41040253"
     inkscape:cx="-679.49655"
     inkscape:cy="366.59994"
     inkscape:document-units="px"
     inkscape:current-layer="layer1"
     showgrid="false"
     fit-margin-top="0"
     fit-margin-left="0"
     fit-margin-right="0"
     fit-margin-bottom="0"
     inkscape:window-width="1366"
     inkscape:window-height="719"
     inkscape:window-x="0"
     inkscape:window-y="25"
     inkscape:window-maximized="1" />
  <metadata
     id="metadata6311">
    <rdf:RDF>
      <cc:Work
         rdf:about="">
        <dc:format>image/svg+xml</dc:format>
        <dc:type
           rdf:resource="http://purl.org/dc/dcmitype/StillImage" />
        <dc:title></dc:title>
      </cc:Work>
    </rdf:RDF>
  </metadata>
  <g
     inkscape:label="Layer 1"
     inkscape:groupmode="layer"
     id="layer1"
     transform="translate(-1020.1534,-464.86233)">
    <path
       style="opacity:1;fill:#0496f9;fill-opacity:1;fill-rule:evenodd;stroke:none;stroke-width:1;stroke-miterlimit:4;stroke-dasharray:none;stroke-dashoffset:0;stroke-opacity:1"
       d="m 1047.6531,464.86233 c -0.048,0 -0.095,0.0177 -0.1311,0.0539 l -27.3146,27.31468 c -0.072,0.0722 -0.072,0.18996 0,0.26226 l 27.3146,27.31468 c 0.072,0.0723 0.19,0.0723 0.2623,0 l 0.4598,-0.45969 0,-17.75239 c 2.4761,-0.65378 6.7125,-0.93937 13.9865,0.29679 9.5125,1.8239 14.5635,12.96092 14.5635,12.96092 0,0 2.2682,-20.24519 -8.6273,-27.7815 -7.6649,-5.30175 -15.1153,-4.76704 -19.9227,-5.51047 l 0,-16.18561 -0.4598,-0.45967 c -0.036,-0.0362 -0.083,-0.0539 -0.1312,-0.0539 z"
       id="path9983"
       inkscape:connector-curvature="0"
       sodipodi:nodetypes="ssssccccccscccs" />
  </g>
</svg>
