<?xml version="1.0" encoding="UTF-8" standalone="no"?>
<!-- Created with Inkscape (http://www.inkscape.org/) -->

<svg
   xmlns:dc="http://purl.org/dc/elements/1.1/"
   xmlns:cc="http://creativecommons.org/ns#"
   xmlns:rdf="http://www.w3.org/1999/02/22-rdf-syntax-ns#"
   xmlns:svg="http://www.w3.org/2000/svg"
   xmlns="http://www.w3.org/2000/svg"
   xmlns:xlink="http://www.w3.org/1999/xlink"
   xmlns:sodipodi="http://sodipodi.sourceforge.net/DTD/sodipodi-0.dtd"
   xmlns:inkscape="http://www.inkscape.org/namespaces/inkscape"
   width="35.253849mm"
   height="35.253849mm"
   viewBox="0 0 124.91521 124.91521"
   id="svg5774"
   version="1.1"
   inkscape:version="0.91 r13725"
   sodipodi:docname="big-delete.svg">
  <defs
     id="defs5776">
    <linearGradient
       inkscape:collect="always"
       xlink:href="#linearGradient4606"
       id="linearGradient7349"
       gradientUnits="userSpaceOnUse"
       gradientTransform="matrix(2.1241351,0,0,2.1241351,-38.3558,86.94298)"
       x1="108.18733"
       y1="56.048752"
       x2="108.18733"
       y2="114.73861" />
    <linearGradient
       inkscape:collect="always"
       id="linearGradient4606">
      <stop
         style="stop-color:#9d9d9d;stop-opacity:1"
         offset="0"
         id="stop4608" />
      <stop
         style="stop-color:#e3e3e3;stop-opacity:1"
         offset="1"
         id="stop4610" />
    </linearGradient>
    <linearGradient
       inkscape:collect="always"
       xlink:href="#linearGradient8468"
       id="linearGradient7351"
       gradientUnits="userSpaceOnUse"
       gradientTransform="matrix(2.1241351,0,0,2.1241351,-38.3558,86.94298)"
       x1="108.5"
       y1="58.862213"
       x2="108.5"
       y2="111.36221" />
    <linearGradient
       inkscape:collect="always"
       id="linearGradient8468">
      <stop
         style="stop-color:#cccccc;stop-opacity:1"
         offset="0"
         id="stop8470" />
      <stop
         style="stop-color:#999999;stop-opacity:1"
         offset="1"
         id="stop8472" />
    </linearGradient>
    <linearGradient
       inkscape:collect="always"
       xlink:href="#linearGradient8474"
       id="linearGradient8040"
       gradientUnits="userSpaceOnUse"
       gradientTransform="translate(2.4748501,278.17164)"
       x1="640.25"
       y1="631"
       x2="640.25"
       y2="753.75" />
    <linearGradient
       inkscape:collect="always"
       id="linearGradient8474">
      <stop
         style="stop-color:#b3b3b3;stop-opacity:1"
         offset="0"
         id="stop8476" />
      <stop
         style="stop-color:#808080;stop-opacity:1"
         offset="1"
         id="stop8478" />
    </linearGradient>
    <clipPath
       clipPathUnits="userSpaceOnUse"
       id="clipPath4743-3-1">
      <circle
         r="61.639366"
         cy="970.43921"
         cx="642.47485"
         id="circle4745-5-6"
         style="opacity:1;fill:url(#linearGradient4747);fill-opacity:1;fill-rule:evenodd;stroke:none;stroke-width:2.37074494;stroke-miterlimit:4;stroke-dasharray:none;stroke-opacity:1" />
    </clipPath>
    <filter
       inkscape:collect="always"
       style="color-interpolation-filters:sRGB"
       id="filter4735-0-8"
       x="-0.0228"
       width="1.0456001"
       y="-0.0228"
       height="1.0456001">
      <feGaussianBlur
         inkscape:collect="always"
         stdDeviation="1.1711347"
         id="feGaussianBlur4737-5-2" />
    </filter>
    <clipPath
       clipPathUnits="userSpaceOnUse"
       id="clipPath6442">
      <circle
         r="61.639366"
         cy="970.43921"
         cx="642.47485"
         id="circle6444"
         style="opacity:1;fill:url(#linearGradient4747);fill-opacity:1;fill-rule:evenodd;stroke:none;stroke-width:2.37074494;stroke-miterlimit:4;stroke-dasharray:none;stroke-opacity:1" />
    </clipPath>
    <linearGradient
       inkscape:collect="always"
       xlink:href="#linearGradient8474"
       id="linearGradient6524"
       gradientUnits="userSpaceOnUse"
       gradientTransform="translate(2.4748501,278.17164)"
       x1="640.25"
       y1="631"
       x2="640.25"
       y2="753.75" />
    <clipPath
       id="clipPath4743-0-3"
       clipPathUnits="userSpaceOnUse">
      <circle
         style="opacity:1;fill:url(#linearGradient4747);fill-opacity:1;fill-rule:evenodd;stroke:none;stroke-width:2.37074494;stroke-miterlimit:4;stroke-dasharray:none;stroke-opacity:1"
         id="circle4745-23-6"
         cx="642.47485"
         cy="970.43921"
         r="61.639366" />
    </clipPath>
  </defs>
  <sodipodi:namedview
     id="base"
     pagecolor="#ffffff"
     bordercolor="#666666"
     borderopacity="1.0"
     inkscape:pageopacity="0.0"
     inkscape:pageshadow="2"
     inkscape:zoom="1.8809628"
     inkscape:cx="-62.348017"
     inkscape:cy="21.435229"
     inkscape:document-units="px"
     inkscape:current-layer="layer1"
     showgrid="false"
     fit-margin-top="0"
     fit-margin-left="0"
     fit-margin-right="0"
     fit-margin-bottom="0"
     inkscape:window-width="1280"
     inkscape:window-height="971"
     inkscape:window-x="-8"
     inkscape:window-y="-8"
     inkscape:window-maximized="1" />
  <metadata
     id="metadata5779">
    <rdf:RDF>
      <cc:Work
         rdf:about="">
        <dc:format>image/svg+xml</dc:format>
        <dc:type
           rdf:resource="http://purl.org/dc/dcmitype/StillImage" />
        <dc:title></dc:title>
      </cc:Work>
    </rdf:RDF>
  </metadata>
  <g
     inkscape:label="Layer 1"
     inkscape:groupmode="layer"
     id="layer1"
     transform="translate(-129.6552,-205.80623)">
    <g
       id="g4286">
      <circle
         inkscape:export-ydpi="150"
         inkscape:export-xdpi="150"
         inkscape:export-filename="/home/lonmadi/Рабочий стол/vida4a/vidacha_operator/72.png"
         style="fill:url(#linearGradient7349);fill-opacity:1;fill-rule:evenodd;stroke:none"
         id="circle5230-0"
         cx="192.11281"
         cy="268.26382"
         r="62.457607" />
      <circle
         inkscape:export-ydpi="150"
         inkscape:export-xdpi="150"
         inkscape:export-filename="/home/lonmadi/Рабочий стол/vida4a/vidacha_operator/72.png"
         r="55.227512"
         cy="268.26382"
         cx="192.11281"
         id="circle5232-3"
         style="fill:url(#linearGradient7351);fill-opacity:1;fill-rule:evenodd;stroke:none" />
      <path
         inkscape:export-ydpi="150"
         inkscape:export-xdpi="150"
         inkscape:export-filename="/home/lonmadi/Рабочий стол/vida4a/vidacha_operator/72.png"
         transform="matrix(0.89597792,0,0,0.89597792,-383.53048,-601.22831)"
         clip-path="url(#clipPath4743-3-1)"
         inkscape:connector-curvature="0"
         id="path5234-6"
         d="m 642.47485,908.80055 a 61.639366,61.639366 0 0 0 -61.63867,61.63867 61.639366,61.639366 0 0 0 61.63867,61.63868 61.639366,61.639366 0 0 0 61.63867,-61.63868 61.639366,61.639366 0 0 0 -61.63867,-61.63867 z m 0,1.375 a 60.264366,60.264366 0 0 1 60.26367,60.26367 60.264366,60.264366 0 0 1 -60.26367,60.26368 60.264366,60.264366 0 0 1 -60.26367,-60.26368 60.264366,60.264366 0 0 1 60.26367,-60.26367 z"
         style="fill:url(#linearGradient6524);fill-opacity:1;fill-rule:evenodd;stroke:none;filter:url(#filter4735-0-8)" />
      <path
         style="fill:url(#linearGradient8040);fill-opacity:1;fill-rule:evenodd;stroke:none;filter:url(#filter4735-0-8)"
         d="m 642.47485,908.80055 a 61.639366,61.639366 0 0 0 -61.63867,61.63867 61.639366,61.639366 0 0 0 61.63867,61.63868 61.639366,61.639366 0 0 0 61.63867,-61.63868 61.639366,61.639366 0 0 0 -61.63867,-61.63867 z m 0,1.375 a 60.264366,60.264366 0 0 1 60.26367,60.26367 60.264366,60.264366 0 0 1 -60.26367,60.26368 60.264366,60.264366 0 0 1 -60.26367,-60.26368 60.264366,60.264366 0 0 1 60.26367,-60.26367 z"
         id="path6054"
         inkscape:connector-curvature="0"
         clip-path="url(#clipPath4743-3-1)"
         transform="matrix(0.89597792,0,0,0.89597792,-383.53048,-601.22831)"
         inkscape:export-filename="/home/lonmadi/Рабочий стол/vida4a/vidacha_operator/72.png"
         inkscape:export-xdpi="150"
         inkscape:export-ydpi="150" />
      <g
         transform="matrix(1.6569274,0,0,1.6569274,-942.9915,-1077.6675)"
         id="g6239">
        <path
           inkscape:connector-curvature="0"
           style="opacity:1;fill:#5c5c5c;fill-opacity:1;fill-rule:evenodd;stroke:none;stroke-width:8.19999981;stroke-miterlimit:4;stroke-dasharray:none;stroke-dashoffset:0;stroke-opacity:1"
           d="m 676.25391,552.1582 c -2.34281,0 -4.42221,1.89373 -4.22852,4.22852 l 1.52149,18.33594 c 0.1937,2.33479 1.8857,4.22851 4.22851,4.22851 l 15.29297,0 c 2.34281,0 4.03678,-1.89372 4.23047,-4.22851 l 1.51953,-18.33594 c 0.19369,-2.33479 -1.88571,-4.22852 -4.22852,-4.22852 l -18.33593,0 z m 3.65429,5.33594 c 1.60635,0 2.89844,1.29209 2.89844,2.89844 l 0,11.07031 c 0,1.60634 -1.29209,2.90039 -2.89844,2.90039 -1.60634,0 -2.90039,-1.29405 -2.90039,-2.90039 l 0,-11.07031 c 0,-1.60635 1.29405,-2.89844 2.90039,-2.89844 z m 11.0293,0 c 1.60634,0 2.89844,1.29209 2.89844,2.89844 l 0,11.07031 c 0,1.60634 -1.2921,2.90039 -2.89844,2.90039 -1.60634,0 -2.90039,-1.29405 -2.90039,-2.90039 l 0,-11.07031 c 0,-1.60635 1.29405,-2.89844 2.90039,-2.89844 z"
           transform="translate(0,252.36235)"
           id="rect6214" />
        <g
           id="g6235"
           transform="matrix(0.97779629,-0.20955765,0.20955765,0.97779629,-153.85415,160.55457)">
          <rect
             ry="2.1365638"
             y="797.19958"
             x="672.63104"
             height="4.9419913"
             width="27.831213"
             id="rect6231"
             style="opacity:1;fill:#666666;fill-opacity:1;fill-rule:evenodd;stroke:none;stroke-width:8.19999981;stroke-miterlimit:4;stroke-dasharray:none;stroke-dashoffset:0;stroke-opacity:1" />
          <ellipse
             ry="2.4709957"
             rx="3.1212575"
             cy="796.80939"
             cx="686.54663"
             id="path6233"
             style="opacity:1;fill:#666666;fill-opacity:1;fill-rule:evenodd;stroke:none;stroke-width:8.19999981;stroke-miterlimit:4;stroke-dasharray:none;stroke-dashoffset:0;stroke-opacity:1" />
        </g>
      </g>
    </g>
  </g>
</svg>
