<?xml version="1.0" encoding="UTF-8" standalone="no"?>
<svg
   xmlns:dc="http://purl.org/dc/elements/1.1/"
   xmlns:cc="http://creativecommons.org/ns#"
   xmlns:rdf="http://www.w3.org/1999/02/22-rdf-syntax-ns#"
   xmlns:svg="http://www.w3.org/2000/svg"
   xmlns="http://www.w3.org/2000/svg"
   xmlns:sodipodi="http://sodipodi.sourceforge.net/DTD/sodipodi-0.dtd"
   xmlns:inkscape="http://www.inkscape.org/namespaces/inkscape"
   version="1.1"
   id="svg7461"
   viewBox="0 0 52.869889 47.629502"
   height="47.629501"
   width="52.869888"
   inkscape:version="0.91 r13725"
   sodipodi:docname="dots-hover.svg">
  <sodipodi:namedview
     pagecolor="#ffffff"
     bordercolor="#666666"
     borderopacity="1"
     objecttolerance="10"
     gridtolerance="10"
     guidetolerance="10"
     inkscape:pageopacity="0"
     inkscape:pageshadow="2"
     inkscape:window-width="1366"
     inkscape:window-height="719"
     id="namedview11"
     showgrid="false"
     inkscape:zoom="4.9549123"
     inkscape:cx="-1.5171149"
     inkscape:cy="23.814751"
     inkscape:window-x="0"
     inkscape:window-y="0"
     inkscape:window-maximized="1"
     inkscape:current-layer="svg7461" />
  <defs
     id="defs7463" />
  <metadata
     id="metadata7466">
    <rdf:RDF>
      <cc:Work
         rdf:about="">
        <dc:format>image/svg+xml</dc:format>
        <dc:type
           rdf:resource="http://purl.org/dc/dcmitype/StillImage" />
        <dc:title></dc:title>
      </cc:Work>
    </rdf:RDF>
  </metadata>
  <path
     inkscape:connector-curvature="0"
     style="fill:#bdbfc4;fill-opacity:1;fill-rule:evenodd;stroke:#737373;stroke-width:1.50218642;stroke-opacity:1"
     d="m 13.39699,1.75109 26.0758,0 c 6.452,0 11.646,4.27518 11.646,9.58556 l 0,24.94047 c 0,5.31038 -5.194,9.58553 -11.646,9.58553 l -26.0758,0 c 0,0 -11.6014,0.81263 -11.6459,-9.58542 l 0,-24.94048 c 0,-5.31037 5.1942,-9.58555 11.6459,-9.58555 z"
     id="path5821" />
  <g
     style="fill:#737373;fill-opacity:1"
     id="g5824"
     transform="matrix(1.8958461,0,0,1.8958461,-2248.9358,-1073.0264)">
    <path
       inkscape:connector-curvature="0"
       transform="translate(0,252.36218)"
       style="fill:#737373;fill-opacity:1;stroke:none"
       d="m 1196.125,326.1875 c 0,1.07005 -0.8674,1.9375 -1.9375,1.9375 -1.0701,0 -1.9375,-0.86745 -1.9375,-1.9375 0,-1.07005 0.8674,-1.9375 1.9375,-1.9375 1.0562,0 1.9178,0.84589 1.9372,1.90188"
       id="path5826" />
    <path
       inkscape:connector-curvature="0"
       transform="translate(6,252.36218)"
       style="fill:#737373;fill-opacity:1;stroke:none"
       d="m 1196.125,326.1875 c 0,1.07005 -0.8674,1.9375 -1.9375,1.9375 -1.0701,0 -1.9375,-0.86745 -1.9375,-1.9375 0,-1.07005 0.8674,-1.9375 1.9375,-1.9375 1.0562,0 1.9178,0.84589 1.9372,1.90188"
       id="path5828" />
    <path
       inkscape:connector-curvature="0"
       transform="translate(12,252.36218)"
       style="fill:#737373;fill-opacity:1;stroke:none"
       d="m 1196.125,326.1875 c 0,1.07005 -0.8674,1.9375 -1.9375,1.9375 -1.0701,0 -1.9375,-0.86745 -1.9375,-1.9375 0,-1.07005 0.8674,-1.9375 1.9375,-1.9375 1.0562,0 1.9178,0.84589 1.9372,1.90188"
       id="path5830" />
  </g>
</svg>
