<?xml version="1.0" encoding="UTF-8" standalone="no"?>
<!-- Created with Inkscape (http://www.inkscape.org/) -->

<svg
   xmlns:dc="http://purl.org/dc/elements/1.1/"
   xmlns:cc="http://creativecommons.org/ns#"
   xmlns:rdf="http://www.w3.org/1999/02/22-rdf-syntax-ns#"
   xmlns:svg="http://www.w3.org/2000/svg"
   xmlns="http://www.w3.org/2000/svg"
   xmlns:sodipodi="http://sodipodi.sourceforge.net/DTD/sodipodi-0.dtd"
   xmlns:inkscape="http://www.inkscape.org/namespaces/inkscape"
   width="16.728746mm"
   height="17.886206mm"
   viewBox="0 0 59.275086 63.376319"
   id="svg6312"
   version="1.1"
   inkscape:version="0.91 r13725"
   sodipodi:docname="print.svg">
  <defs
     id="defs6314" />
  <sodipodi:namedview
     id="base"
     pagecolor="#ffffff"
     bordercolor="#666666"
     borderopacity="1.0"
     inkscape:pageopacity="0.0"
     inkscape:pageshadow="2"
     inkscape:zoom="0.35"
     inkscape:cx="40.351829"
     inkscape:cy="91.688158"
     inkscape:document-units="px"
     inkscape:current-layer="layer1"
     showgrid="false"
     fit-margin-top="0"
     fit-margin-left="0"
     fit-margin-right="0"
     fit-margin-bottom="0"
     inkscape:window-width="1366"
     inkscape:window-height="719"
     inkscape:window-x="0"
     inkscape:window-y="0"
     inkscape:window-maximized="1" />
  <metadata
     id="metadata6317">
    <rdf:RDF>
      <cc:Work
         rdf:about="">
        <dc:format>image/svg+xml</dc:format>
        <dc:type
           rdf:resource="http://purl.org/dc/dcmitype/StillImage" />
        <dc:title></dc:title>
      </cc:Work>
    </rdf:RDF>
  </metadata>
  <g
     inkscape:label="Layer 1"
     inkscape:groupmode="layer"
     id="layer1"
     transform="translate(-284.64817,-560.67404)">
    <g
       transform="matrix(0.28509148,0,0,0.28509148,90.206317,394.98185)"
       id="g10060">
      <path
         inkscape:connector-curvature="0"
         style="opacity:1;fill:#0496f9;fill-opacity:1;fill-rule:evenodd;stroke:none;stroke-width:3.78200006;stroke-miterlimit:4;stroke-dasharray:none;stroke-dashoffset:0;stroke-opacity:1"
         d="m 690.16211,381.01562 c -4.50419,0 -8.12891,3.62472 -8.12891,8.12891 l 0,75.09766 c 0,4.50419 3.62472,8.13086 8.12891,8.13086 l 43.84961,0 0,-37.54883 c 0,-4.50419 3.62667,-8.13086 8.13086,-8.13086 l 87.69726,0 c 4.5042,0 8.13086,3.62667 8.13086,8.13086 l 0,37.54883 43.84961,0 c 4.5042,0 8.12891,-3.62667 8.12891,-8.13086 l 0,-75.09766 c 0,-4.50419 -3.62471,-8.12891 -8.12891,-8.12891 l -191.6582,0 z m 172.22266,12.59961 a 13.388624,13.388624 0 0 1 13.38867,13.38868 13.388624,13.388624 0 0 1 -13.38867,13.38867 13.388624,13.388624 0 0 1 -13.38868,-13.38867 13.388624,13.388624 0 0 1 13.38868,-13.38868 z"
         id="path10062"
         transform="translate(0,252.36235)" />
      <path
         inkscape:connector-curvature="0"
         style="opacity:1;fill:#0496f9;fill-opacity:1;fill-rule:evenodd;stroke:none;stroke-width:3.78200006;stroke-miterlimit:4;stroke-dasharray:none;stroke-dashoffset:0;stroke-opacity:1"
         d="m 729.54102,437.71875 c -4.5042,0 -8.13086,3.62667 -8.13086,8.13086 l 0,97.14844 c 0,4.50419 3.62666,8.13086 8.13086,8.13086 l 112.90039,0 c 4.50419,0 8.13086,-3.62667 8.13086,-8.13086 l 0,-97.14844 c 0,-4.50419 -3.62667,-8.13086 -8.13086,-8.13086 l -4.47071,0 0,94.25391 c 0,4.50419 -3.62666,8.13086 -8.13086,8.13086 l -87.69726,0 c -4.50419,0 -8.13086,-3.62667 -8.13086,-8.13086 l 0,-94.25391 -4.4707,0 z"
         transform="translate(0,252.36235)"
         id="path10064" />
      <path
         id="path10066"
         d="m 729.54101,624.59973 c -4.5042,0 -8.13086,-3.62667 -8.13086,-8.13086 l 0,-27.14844 c 0,-4.50419 3.62666,-8.13086 8.13086,-8.13086 l 112.90039,0 c 4.50419,0 8.13086,3.62667 8.13086,8.13086 l 0,27.14844 c 0,4.50419 -6.29252,4.0189 -8.13086,8.13086 l -4.47071,0 0,-24.25391 c 0,-4.50419 -3.62666,-8.13086 -8.13086,-8.13086 l -87.69726,0 c -4.50419,0 -8.13086,3.62667 -8.13086,8.13086 l 0,24.25391 z"
         style="opacity:1;fill:#0496f9;fill-opacity:1;fill-rule:evenodd;stroke:none;stroke-width:3.78200006;stroke-miterlimit:4;stroke-dasharray:none;stroke-dashoffset:0;stroke-opacity:1"
         inkscape:connector-curvature="0"
         sodipodi:nodetypes="sssssssscsssscs" />
      <rect
         style="opacity:1;fill:#0496f9;fill-opacity:1;fill-rule:evenodd;stroke:none;stroke-width:3.78200006;stroke-miterlimit:4;stroke-dasharray:none;stroke-dashoffset:0;stroke-opacity:1"
         id="rect10068"
         width="48.829102"
         height="15.751323"
         x="749.76294"
         y="691.65704"
         ry="0" />
      <rect
         ry="0"
         y="725.5224"
         x="749.76294"
         height="15.751323"
         width="75.606346"
         id="rect10070"
         style="opacity:1;fill:#0496f9;fill-opacity:1;fill-rule:evenodd;stroke:none;stroke-width:3.78200006;stroke-miterlimit:4;stroke-dasharray:none;stroke-dashoffset:0;stroke-opacity:1" />
      <rect
         style="opacity:1;fill:#0496f9;fill-opacity:1;fill-rule:evenodd;stroke:none;stroke-width:3.78200006;stroke-miterlimit:4;stroke-dasharray:none;stroke-dashoffset:0;stroke-opacity:1"
         id="rect10072"
         width="75.606346"
         height="15.751323"
         x="749.76294"
         y="759.38776"
         ry="0" />
    </g>
  </g>
</svg>
