<?xml version="1.0" encoding="UTF-8" standalone="no"?>
<!-- Created with Inkscape (http://www.inkscape.org/) -->

<svg
   xmlns:dc="http://purl.org/dc/elements/1.1/"
   xmlns:cc="http://creativecommons.org/ns#"
   xmlns:rdf="http://www.w3.org/1999/02/22-rdf-syntax-ns#"
   xmlns:svg="http://www.w3.org/2000/svg"
   xmlns="http://www.w3.org/2000/svg"
   xmlns:sodipodi="http://sodipodi.sourceforge.net/DTD/sodipodi-0.dtd"
   xmlns:inkscape="http://www.inkscape.org/namespaces/inkscape"
   width="7.0124888mm"
   height="7.0124946mm"
   viewBox="0 0 24.8474 24.847421"
   id="svg5786"
   version="1.1"
   inkscape:version="0.91 r"
   sodipodi:docname="remove-all.svg">
  <defs
     id="defs5788" />
  <sodipodi:namedview
     id="base"
     pagecolor="#ffffff"
     bordercolor="#666666"
     borderopacity="1.0"
     inkscape:pageopacity="0.0"
     inkscape:pageshadow="2"
     inkscape:zoom="0.35"
     inkscape:cx="110.23527"
     inkscape:cy="163.05489"
     inkscape:document-units="px"
     inkscape:current-layer="layer1"
     showgrid="false"
     fit-margin-top="0"
     fit-margin-left="0"
     fit-margin-right="0"
     fit-margin-bottom="0"
     inkscape:window-width="1366"
     inkscape:window-height="716"
     inkscape:window-x="0"
     inkscape:window-y="0"
     inkscape:window-maximized="1" />
  <metadata
     id="metadata5791">
    <rdf:RDF>
      <cc:Work
         rdf:about="">
        <dc:format>image/svg+xml</dc:format>
        <dc:type
           rdf:resource="http://purl.org/dc/dcmitype/StillImage" />
        <dc:title></dc:title>
      </cc:Work>
    </rdf:RDF>
  </metadata>
  <g
     inkscape:label="Layer 1"
     inkscape:groupmode="layer"
     id="layer1"
     transform="translate(-214.76471,-670.56965)">
    <path
       inkscape:export-ydpi="150"
       inkscape:export-xdpi="150"
       inkscape:export-filename="/home/lonmadi/Рабочий стол/vida4a/vidacha_operator/72.png"
       inkscape:connector-curvature="0"
       id="path5444"
       d="m 227.18861,670.56965 a 12.423748,12.423748 0 0 0 -12.4239,12.42396 12.423748,12.423748 0 0 0 12.4239,12.42346 12.423748,12.423748 0 0 0 12.4235,-12.42346 12.423748,12.423748 0 0 0 -12.4235,-12.42396 z m 0,3.07439 a 9.3494577,9.3494577 0 0 1 5.341,1.68057 l -13.005,13.00497 a 9.3494577,9.3494577 0 0 1 -1.6855,-5.33597 9.3494577,9.3494577 0 0 1 9.3495,-9.34957 z m 7.6635,4.01309 a 9.3494577,9.3494577 0 0 1 1.6856,5.33648 9.3494577,9.3494577 0 0 1 -9.3491,9.34957 9.3494577,9.3494577 0 0 1 -5.3419,-1.68058 l 13.0054,-13.00547 z"
       style="opacity:1;fill:#4d4d4d;fill-opacity:1;stroke:none;stroke-opacity:1" />
  </g>
</svg>
