<?xml version="1.0" encoding="UTF-8" standalone="no"?>
<!-- Created with Inkscape (http://www.inkscape.org/) -->

<svg
   xmlns:dc="http://purl.org/dc/elements/1.1/"
   xmlns:cc="http://creativecommons.org/ns#"
   xmlns:rdf="http://www.w3.org/1999/02/22-rdf-syntax-ns#"
   xmlns:svg="http://www.w3.org/2000/svg"
   xmlns="http://www.w3.org/2000/svg"
   xmlns:sodipodi="http://sodipodi.sourceforge.net/DTD/sodipodi-0.dtd"
   xmlns:inkscape="http://www.inkscape.org/namespaces/inkscape"
   width="19.899883mm"
   height="18.462404mm"
   viewBox="0 0 70.511396 65.417967"
   id="svg5287"
   version="1.1"
   inkscape:version="0.91 r13725"
   sodipodi:docname="reset-otchet.svg">
  <defs
     id="defs5289" />
  <sodipodi:namedview
     id="base"
     pagecolor="#ffffff"
     bordercolor="#666666"
     borderopacity="1.0"
     inkscape:pageopacity="0.0"
     inkscape:pageshadow="2"
     inkscape:zoom="2.8"
     inkscape:cx="47.331777"
     inkscape:cy="74.037934"
     inkscape:document-units="px"
     inkscape:current-layer="layer1"
     showgrid="false"
     fit-margin-top="0"
     fit-margin-left="0"
     fit-margin-right="0"
     fit-margin-bottom="0"
     inkscape:window-width="1366"
     inkscape:window-height="719"
     inkscape:window-x="0"
     inkscape:window-y="0"
     inkscape:window-maximized="1" />
  <metadata
     id="metadata5292">
    <rdf:RDF>
      <cc:Work
         rdf:about="">
        <dc:format>image/svg+xml</dc:format>
        <dc:type
           rdf:resource="http://purl.org/dc/dcmitype/StillImage" />
        <dc:title></dc:title>
      </cc:Work>
    </rdf:RDF>
  </metadata>
  <g
     inkscape:label="Layer 1"
     inkscape:groupmode="layer"
     id="layer1"
     transform="translate(-569.78988,-298.29649)">
    <g
       id="g7253"
       transform="translate(28.166236,-10.988478)">
      <g
         transform="translate(-184.46697,-23.933673)"
         id="g9847">
        <path
           inkscape:connector-curvature="0"
           style="fill:#0496f9;fill-opacity:1;fill-rule:evenodd;stroke:none"
           d="m 762.36171,333.21864 a 32.70887,32.70887 0 0 0 -32.7089,32.70898 32.70887,32.70887 0 0 0 5.0918,17.45508 l 3.8281,-3.41016 a 27.659452,27.659452 0 0 1 -3.8692,-14.04492 27.659452,27.659452 0 0 1 27.6582,-27.66015 27.659452,27.659452 0 0 1 16.6914,5.64648 l 3.8457,-3.42773 a 32.70887,32.70887 0 0 0 -20.5371,-7.26758 z m 25.5567,12.3457 -3.7598,3.34961 a 27.659452,27.659452 0 0 1 5.8633,17.01367 27.659452,27.659452 0 0 1 -27.6602,27.65821 27.659452,27.659452 0 0 1 -19.3984,-7.97852 l -3.7793,3.36719 a 32.70887,32.70887 0 0 0 23.1777,9.66211 32.70887,32.70887 0 0 0 32.709,-32.70899 32.70887,32.70887 0 0 0 -7.1523,-20.36328 z"
           id="circle6186" />
        <path
           style="fill:#0496f9;fill-opacity:1;fill-rule:evenodd;stroke:none;stroke-width:1px;stroke-linecap:butt;stroke-linejoin:miter;stroke-opacity:1"
           d="m 726.09061,380.65348 13.2719,3.82337 0.2745,-13.94262 z"
           id="path6206"
           inkscape:connector-curvature="0"
           sodipodi:nodetypes="cccc" />
        <path
           sodipodi:nodetypes="cccc"
           inkscape:connector-curvature="0"
           id="path6208"
           d="m 783.42891,358.20845 -0.3989,-13.80587 13.572,3.20527 z"
           style="fill:#0496f9;fill-opacity:1;fill-rule:evenodd;stroke:none;stroke-width:1px;stroke-linecap:butt;stroke-linejoin:miter;stroke-opacity:1" />
      </g>
      <g
         transform="matrix(0.63660463,0,0,0.63660463,535.57333,105.73026)"
         id="g6331">
        <g
           transform="matrix(0.93160388,0,0,0.93160388,-66.8802,-436.22805)"
           inkscape:export-ydpi="150"
           inkscape:export-xdpi="150"
           id="g6333">
          <path
             style="fill:#4d4d4d;fill-opacity:1;fill-rule:evenodd;stroke:#5c5c5c;stroke-width:0.1158229;stroke-miterlimit:4;stroke-dasharray:none;stroke-opacity:1"
             d="m 118.85252,835.51691 c -1.39617,0 -2.52005,1.12389 -2.52005,2.52005 l 0,55.68209 c 0,1.39617 1.12388,2.52005 2.52005,2.52005 l 48.54517,0 c 1.39617,0 2.52006,-1.12388 2.52006,-2.52005 l 0,-55.68209 c 0,-1.39616 -1.12389,-2.52005 -2.52006,-2.52005 l -48.54517,0 z m 3.60114,4.43497 41.10899,0 c 1.19216,0 2.15177,0.95984 2.15177,2.15201 l 0,47.54598 c 0,1.19216 -0.95961,2.15199 -2.15177,2.15199 l -41.10899,0 c -1.19216,0 -2.152,-0.95983 -2.152,-2.15199 l 0,-47.54598 c 0,-1.19217 0.95984,-2.15201 2.152,-2.15201 z"
             id="path6335"
             inkscape:connector-curvature="0" />
          <g
             style="fill:#0496f9;fill-opacity:1"
             id="g6337"
             transform="matrix(0.1158229,0,0,0.1158229,-80.108604,708.59819)">
            <path
               d="m 1832.4167,1240.7557 a 37.880722,37.880722 0 0 1 -37.7066,37.8804 37.880722,37.880722 0 0 1 -38.0532,-37.5323 37.880722,37.880722 0 0 1 37.357,-38.2252 37.880722,37.880722 0 0 1 38.3964,37.181"
               sodipodi:open="true"
               sodipodi:end="6.264807"
               sodipodi:start="0"
               sodipodi:ry="37.880722"
               sodipodi:rx="37.880722"
               sodipodi:cy="1240.7557"
               sodipodi:cx="1794.536"
               sodipodi:type="arc"
               id="path6339"
               style="fill:#0496f9;fill-opacity:1;fill-rule:evenodd;stroke:#5c5c5c;stroke-width:1;stroke-miterlimit:4;stroke-dasharray:none;stroke-opacity:1" />
            <rect
               ry="21.758659"
               y="1218.9971"
               x="1870.7621"
               height="43.517319"
               width="230.39554"
               id="rect6341"
               style="fill:#0496f9;fill-opacity:1;fill-rule:evenodd;stroke:#5c5c5c;stroke-width:0.9192394;stroke-miterlimit:4;stroke-dasharray:none;stroke-opacity:1" />
          </g>
          <g
             style="fill:#0496f9;fill-opacity:1"
             id="g6343"
             transform="matrix(0.1158229,0,0,0.1158229,-80.108604,722.17005)">
            <path
               style="fill:#0496f9;fill-opacity:1;fill-rule:evenodd;stroke:#5c5c5c;stroke-width:1;stroke-miterlimit:4;stroke-dasharray:none;stroke-opacity:1"
               id="path6345"
               sodipodi:type="arc"
               sodipodi:cx="1794.536"
               sodipodi:cy="1240.7557"
               sodipodi:rx="37.880722"
               sodipodi:ry="37.880722"
               sodipodi:start="0"
               sodipodi:end="6.264807"
               sodipodi:open="true"
               d="m 1832.4167,1240.7557 a 37.880722,37.880722 0 0 1 -37.7066,37.8804 37.880722,37.880722 0 0 1 -38.0532,-37.5323 37.880722,37.880722 0 0 1 37.357,-38.2252 37.880722,37.880722 0 0 1 38.3964,37.181" />
            <rect
               style="fill:#0496f9;fill-opacity:1;fill-rule:evenodd;stroke:#5c5c5c;stroke-width:0.9192394;stroke-miterlimit:4;stroke-dasharray:none;stroke-opacity:1"
               id="rect6347"
               width="230.39554"
               height="43.517319"
               x="1870.7621"
               y="1218.9971"
               ry="21.758659" />
          </g>
          <g
             style="fill:#0496f9;fill-opacity:1"
             transform="matrix(0.1158229,0,0,0.1158229,-80.108604,735.74191)"
             id="g6349">
            <path
               d="m 1832.4167,1240.7557 a 37.880722,37.880722 0 0 1 -37.7066,37.8804 37.880722,37.880722 0 0 1 -38.0532,-37.5323 37.880722,37.880722 0 0 1 37.357,-38.2252 37.880722,37.880722 0 0 1 38.3964,37.181"
               sodipodi:open="true"
               sodipodi:end="6.264807"
               sodipodi:start="0"
               sodipodi:ry="37.880722"
               sodipodi:rx="37.880722"
               sodipodi:cy="1240.7557"
               sodipodi:cx="1794.536"
               sodipodi:type="arc"
               id="path6351"
               style="fill:#0496f9;fill-opacity:1;fill-rule:evenodd;stroke:#5c5c5c;stroke-width:1;stroke-miterlimit:4;stroke-dasharray:none;stroke-opacity:1" />
            <rect
               ry="21.758659"
               y="1218.9971"
               x="1870.7621"
               height="43.517319"
               width="230.39554"
               id="rect6353"
               style="fill:#0496f9;fill-opacity:1;fill-rule:evenodd;stroke:#5c5c5c;stroke-width:0.9192394;stroke-miterlimit:4;stroke-dasharray:none;stroke-opacity:1" />
          </g>
          <g
             style="fill:#4d4d4d;fill-opacity:1"
             id="g6355"
             transform="matrix(0.1158229,0,0,0.1158229,-81.103081,693.15435)">
            <rect
               ry="28.111298"
               y="1192.7443"
               x="1831.3773"
               height="102.08375"
               width="209.15993"
               id="rect6357"
               style="fill:#4d4d4d;fill-opacity:1;fill-rule:evenodd;stroke:#5c5c5c;stroke-width:0.94165754;stroke-miterlimit:4;stroke-dasharray:none;stroke-opacity:1" />
            <path
               inkscape:connector-curvature="0"
               id="path6359"
               d="m 1935.2685,1125.2237 a 50.000015,50.000015 0 0 0 -49.3093,50.4546 50.000015,50.000015 0 0 0 50.2273,49.5402 50.000015,50.000015 0 0 0 49.7709,-49.9983 l -0.01,-0.9198 a 50.000015,50.000015 0 0 0 -50.6801,-49.0767 z m 0.096,17.374 a 32.627056,32.627056 0 0 1 8.6026,0.9925 32.627056,32.627056 0 0 1 23.6559,39.4922 l -0.1509,0.5806 a 32.627056,32.627056 0 0 1 -39.8153,23.1108 32.627056,32.627056 0 0 1 -23.292,-39.7088 32.627056,32.627056 0 0 1 30.9997,-24.4673 z"
               style="fill:#4d4d4d;fill-opacity:1;fill-rule:evenodd;stroke:none" />
          </g>
        </g>
      </g>
    </g>
  </g>
</svg>
