<?xml version="1.0" encoding="UTF-8" standalone="no"?>
<!-- Created with Inkscape (http://www.inkscape.org/) -->

<svg
   xmlns:dc="http://purl.org/dc/elements/1.1/"
   xmlns:cc="http://creativecommons.org/ns#"
   xmlns:rdf="http://www.w3.org/1999/02/22-rdf-syntax-ns#"
   xmlns:svg="http://www.w3.org/2000/svg"
   xmlns="http://www.w3.org/2000/svg"
   xmlns:xlink="http://www.w3.org/1999/xlink"
   xmlns:sodipodi="http://sodipodi.sourceforge.net/DTD/sodipodi-0.dtd"
   xmlns:inkscape="http://www.inkscape.org/namespaces/inkscape"
   width="12.28852mm"
   height="11.288817mm"
   viewBox="0 0 43.542001 39.999746"
   id="svg5791"
   version="1.1"
   inkscape:version="0.91 r13725"
   sodipodi:docname="search.svg">
  <defs
     id="defs5793">
    <linearGradient
       inkscape:collect="always"
       xlink:href="#linearGradient4253"
       id="linearGradient6325"
       x1="886.46838"
       y1="370.3718"
       x2="887.24579"
       y2="337.03674"
       gradientUnits="userSpaceOnUse"
       gradientTransform="matrix(1.0647345,0,0,1.0647345,-56.208034,-21.792742)" />
    <linearGradient
       inkscape:collect="always"
       id="linearGradient4253">
      <stop
         style="stop-color:#b4bac0;stop-opacity:1"
         offset="0"
         id="stop4255" />
      <stop
         style="stop-color:#ffffff;stop-opacity:1"
         offset="1"
         id="stop4257" />
    </linearGradient>
  </defs>
  <sodipodi:namedview
     id="base"
     pagecolor="#ffffff"
     bordercolor="#666666"
     borderopacity="1.0"
     inkscape:pageopacity="0.0"
     inkscape:pageshadow="2"
     inkscape:zoom="1.1666868"
     inkscape:cx="-183.80623"
     inkscape:cy="-101.76594"
     inkscape:document-units="px"
     inkscape:current-layer="layer1"
     showgrid="false"
     fit-margin-top="0"
     fit-margin-left="0"
     fit-margin-right="0"
     fit-margin-bottom="0"
     inkscape:window-width="1366"
     inkscape:window-height="719"
     inkscape:window-x="0"
     inkscape:window-y="25"
     inkscape:window-maximized="1" />
  <metadata
     id="metadata5796">
    <rdf:RDF>
      <cc:Work
         rdf:about="">
        <dc:format>image/svg+xml</dc:format>
        <dc:type
           rdf:resource="http://purl.org/dc/dcmitype/StillImage" />
        <dc:title></dc:title>
      </cc:Work>
    </rdf:RDF>
  </metadata>
  <g
     inkscape:label="Layer 1"
     inkscape:groupmode="layer"
     id="layer1"
     transform="translate(-396.71305,-27.475908)">
    <g
       id="g6327"
       transform="matrix(0.78203368,0,0,0.78203368,-280.97529,-234.49689)"
       inkscape:export-filename="/home/lonmadi/Рабочий стол/vida4a/vidacha_operator/3/31.png"
       inkscape:export-xdpi="150"
       inkscape:export-ydpi="150">
      <circle
         r="17.622551"
         cy="354.27063"
         cx="885.9082"
         id="path6309"
         style="opacity:1;fill:url(#linearGradient6325);fill-opacity:1;stroke:none;stroke-width:2;stroke-miterlimit:4;stroke-dasharray:2, 2;stroke-dashoffset:0;stroke-opacity:1" />
      <path
         style="opacity:1;fill:#8f8f8f;fill-opacity:1;stroke:none;stroke-width:2;stroke-miterlimit:4;stroke-dasharray:2, 2;stroke-dashoffset:0;stroke-opacity:1"
         d="m 885.54,334.98915 a 18.969313,18.969313 0 0 0 -18.96819,18.96938 18.969313,18.969313 0 0 0 18.96819,18.96938 18.969313,18.969313 0 0 0 13.51916,-5.67149 l 2.79963,2.70554 c -0.59887,2.01049 -0.0851,4.27107 1.5331,5.83533 l 9.00057,8.70102 c 2.31501,2.23818 5.98,2.17691 8.21805,-0.13816 2.23815,-2.31506 2.1769,-5.97992 -0.13802,-8.2181 l -9.00057,-8.70225 c -1.61804,-1.56425 -3.89506,-2.00148 -5.88435,-1.33505 l -3.32778,-3.21779 a 18.969313,18.969313 0 0 0 2.24955,-8.92843 A 18.969313,18.969313 0 0 0 885.54,334.98915 Z m 0,2.52827 A 16.440073,16.440073 0 0 1 901.98102,353.95853 16.440073,16.440073 0 0 1 885.54,370.39841 16.440073,16.440073 0 0 1 869.10004,353.95853 16.440073,16.440073 0 0 1 885.54,337.51742 Z m 30.24386,39.945 a 2.235555,2.235555 0 0 1 1.55872,0.6284 2.235555,2.235555 0 0 1 0.0535,3.16157 2.235555,2.235555 0 0 1 -3.1615,0.0527 2.235555,2.235555 0 0 1 -0.0526,-3.16034 2.235555,2.235555 0 0 1 1.60155,-0.68221 z"
         id="path6296"
         inkscape:connector-curvature="0" />
    </g>
  </g>
</svg>
