<?xml version="1.0" encoding="UTF-8" standalone="no"?>
<svg
   xmlns:dc="http://purl.org/dc/elements/1.1/"
   xmlns:cc="http://creativecommons.org/ns#"
   xmlns:rdf="http://www.w3.org/1999/02/22-rdf-syntax-ns#"
   xmlns:svg="http://www.w3.org/2000/svg"
   xmlns="http://www.w3.org/2000/svg"
   version="1.1"
   id="svg8265"
   viewBox="0 0 51.751092 52.697301"
   height="52.6973"
   width="51.751091">
  <defs
     id="defs8267" />
  <metadata
     id="metadata8270">
    <rdf:RDF>
      <cc:Work
         rdf:about="">
        <dc:format>image/svg+xml</dc:format>
        <dc:type
           rdf:resource="http://purl.org/dc/dcmitype/StillImage" />
        <dc:title></dc:title>
      </cc:Work>
    </rdf:RDF>
  </metadata>
  <g
     transform="translate(-8.4101689,-11.72784)"
     id="layer1">
    <path
       id="path5231"
       d="m 34.114839,12.72784 c 0,0 -20.38361,10.41035 -21.63283,10.97926 -0.77445,0.35269 -3.0718401,1.36987 -3.0718401,3.07183 l 0,5.83273 c 0,1.58924 1.2007301,2.86956 2.7448201,3.0343 l 0,24.706 c 0,1.70196 1.36988,3.07318 3.07183,3.07318 l 38.11645,0 c 1.70197,0 3.07318,-1.37122 3.07318,-3.07318 l 0,-24.706 c 1.54372,-0.16521 2.74481,-1.44545 2.74481,-3.0343 l 0,-5.83273 c 0,-1.70196 -1.55067,-2.31112 -3.07317,-3.07183 z m 0,2.74482 19.22843,9.60684 c 1.52253,0.76065 3.07318,1.36988 3.07318,3.07183 l 0,3.08792 c 0,0.43258 -0.17059,1.02922 -0.25063,1.2156 -3.6e-4,6.8e-4 3.7e-4,0.01 0,0.0107 -5e-5,1.3e-4 -10e-4,10e-4 -10e-4,10e-4 -0.3872,0.74978 -1.52754,1.34025 -2.16047,1.34025 -0.63293,0 -0.51547,1.1027 -0.50393,1.86695 l 0,22.93822 c 0,1.47777 -1.1893,2.66708 -2.66708,2.66708 l -33.09591,0 c -1.47776,0 -2.66708,-1.18931 -2.66708,-2.66708 l 0,-22.93822 c 0,-0.69018 0.21704,-1.86695 -0.60579,-1.86695 -0.86352,0 -1.64437,-0.63703 -2.04789,-1.33221 -1.6e-4,-3.8e-4 1.7e-4,-6.8e-4 0,-10e-4 -0.16539,-0.37801 -0.26134,-0.79407 -0.26134,-1.23436 l 0,-3.08792 c 0,-1.70195 2.29738,-2.71913 3.07183,-3.07183 1.24922,-0.56891 18.88802,-9.60684 18.88802,-9.60684 z"
       style="fill:#666666;fill-opacity:1;fill-rule:evenodd;stroke:none" />
  </g>
</svg>
