<?xml version="1.0" encoding="UTF-8" standalone="no"?>
<svg
   xmlns:dc="http://purl.org/dc/elements/1.1/"
   xmlns:cc="http://creativecommons.org/ns#"
   xmlns:rdf="http://www.w3.org/1999/02/22-rdf-syntax-ns#"
   xmlns:svg="http://www.w3.org/2000/svg"
   xmlns="http://www.w3.org/2000/svg"
   xmlns:sodipodi="http://sodipodi.sourceforge.net/DTD/sodipodi-0.dtd"
   xmlns:inkscape="http://www.inkscape.org/namespaces/inkscape"
   version="1.1"
   id="svg8096"
   viewBox="0 0 26.836273 34.284466"
   height="34.284466"
   width="26.836273"
   inkscape:version="0.91 r13725"
   sodipodi:docname="mini_bo4ka_critical-level.svg">
  <sodipodi:namedview
     pagecolor="#ffffff"
     bordercolor="#666666"
     borderopacity="1"
     objecttolerance="10"
     gridtolerance="10"
     guidetolerance="10"
     inkscape:pageopacity="0"
     inkscape:pageshadow="2"
     inkscape:window-width="1366"
     inkscape:window-height="719"
     id="namedview23"
     showgrid="false"
     inkscape:zoom="6.883584"
     inkscape:cx="-6.8474692"
     inkscape:cy="17.142233"
     inkscape:window-x="0"
     inkscape:window-y="0"
     inkscape:window-maximized="1"
     inkscape:current-layer="svg8096" />
  <defs
     id="defs8098">
    <filter
       height="1.1702341"
       y="-0.085117035"
       width="1.2331907"
       x="-0.11659532"
       id="filter4934-7"
       style="color-interpolation-filters:sRGB">
      <feGaussianBlur
         id="feGaussianBlur4936-4"
         stdDeviation="1.8182477" />
    </filter>
  </defs>
  <metadata
     id="metadata8101">
    <rdf:RDF>
      <cc:Work
         rdf:about="">
        <dc:format>image/svg+xml</dc:format>
        <dc:type
           rdf:resource="http://purl.org/dc/dcmitype/StillImage" />
        <dc:title></dc:title>
      </cc:Work>
    </rdf:RDF>
  </metadata>
  <g
     transform="matrix(0.53811243,0,0,0.53811243,-48.691155,-156.40671)"
     id="g5793"
     style="opacity:0.63599997;fill:#4d4d4d;filter:url(#filter4934-7)">
    <ellipse
       style="fill:#4d4d4d;fill-opacity:1;fill-rule:evenodd;stroke:none"
       id="ellipse5795"
       cx="115.48083"
       cy="303.50067"
       rx="18.653244"
       ry="6.6204739" />
    <rect
       style="fill:#4d4d4d;fill-opacity:1;fill-rule:evenodd;stroke:none"
       id="rect5797"
       width="35.621677"
       height="36.769093"
       x="97.707771"
       y="303.3988" />
    <ellipse
       ry="6.6204739"
       rx="18.653244"
       cy="341.52789"
       cx="115.36047"
       id="ellipse5799"
       style="fill:#4d4d4d;fill-opacity:1;fill-rule:evenodd;stroke:none" />
    <ellipse
       ry="4.7361846"
       rx="16.426889"
       cy="303.55157"
       cx="115.42064"
       id="ellipse5801"
       style="fill:#4d4d4d;fill-opacity:1;fill-rule:evenodd;stroke:none" />
    <path
       id="path5803"
       d="m 132.99338,340.67758 a 17.811725,4.8084377 0 0 1 -17.75575,4.50709 17.811725,4.8084377 0 0 1 -17.536794,-3.97471 17.811725,6.2072454 0 0 0 17.659044,5.45725 17.811725,6.2072454 0 0 0 17.79068,-5.98963 l -0.15718,0 z"
       style="fill:#4d4d4d;fill-opacity:1;fill-rule:evenodd;stroke:none"
       inkscape:connector-curvature="0" />
    <ellipse
       style="fill:#4d4d4d;fill-opacity:1;fill-rule:evenodd;stroke:none"
       id="ellipse5805"
       cx="115.36047"
       cy="322.7529"
       rx="18.653244"
       ry="6.6204739" />
    <path
       style="fill:#4d4d4d;fill-opacity:1;fill-rule:evenodd;stroke:none"
       d="m 132.99338,321.90262 a 17.811725,4.8084377 0 0 1 -17.75575,4.50708 17.811725,4.8084377 0 0 1 -17.536794,-3.9747 17.811725,6.2072454 0 0 0 17.659044,5.45724 17.811725,6.2072454 0 0 0 17.79068,-5.98962 l -0.15718,0 z"
       id="path5807"
       inkscape:connector-curvature="0" />
    <ellipse
       style="fill:#4d4d4d;fill-opacity:1;fill-rule:evenodd;stroke:none"
       id="ellipse5809"
       cx="106.39493"
       cy="303.09326"
       rx="2.7077289"
       ry="1.2222413" />
  </g>
  <ellipse
     style="fill:#4d4d4d;fill-opacity:1;fill-rule:evenodd;stroke:none"
     id="ellipse5811"
     cx="13.264804"
     cy="5.8891983"
     rx="10.037542"
     ry="3.5625587" />
  <rect
     style="fill:#4d4d4d;fill-opacity:1;fill-rule:evenodd;stroke:none"
     id="rect5813"
     width="19.168465"
     height="19.785904"
     x="3.7009189"
     y="5.8343968" />
  <ellipse
     ry="3.5625587"
     rx="10.037542"
     cy="26.352131"
     cx="13.200048"
     id="ellipse5815"
     style="fill:#4d4d4d;fill-opacity:1;fill-rule:evenodd;stroke:none" />
  <ellipse
     style="fill:#4d4d4d;fill-opacity:1;fill-rule:evenodd;stroke:none"
     id="ellipse5817"
     cx="13.200048"
     cy="16.24905"
     rx="10.037542"
     ry="3.5625587" />
  <path
     inkscape:connector-curvature="0"
     id="path7208"
     d="m 13.161793,20.325424 c -4.5672162,0 -8.2694086,1.021035 -8.2685198,2.28037 0.00175,0.03185 0.00591,0.06369 0.0125,0.0955 l -0.0345,0 0,3.16498 0.0735,0 c 0.428163,1.163064 3.9773456,2.048376 8.2170898,2.04968 4.243121,-5.7e-5 7.797405,-0.88569 8.225911,-2.04968 l 0.14105,0 0,-3.16498 -0.11607,0 c 0.0083,-0.0318 0.01415,-0.06364 0.0176,-0.0955 8.89e-4,-1.259335 -3.701304,-2.28037 -8.268521,-2.28037 z"
     style="opacity:1;fill:#d8351f;fill-opacity:1;fill-rule:evenodd;stroke:none;stroke-width:1;stroke-miterlimit:4;stroke-dasharray:none;stroke-opacity:1"
     sodipodi:nodetypes="scccccccccccss" />
</svg>
