<?xml version="1.0" encoding="UTF-8" standalone="no"?>
<!-- Created with Inkscape (http://www.inkscape.org/) -->

<svg
   xmlns:dc="http://purl.org/dc/elements/1.1/"
   xmlns:cc="http://creativecommons.org/ns#"
   xmlns:rdf="http://www.w3.org/1999/02/22-rdf-syntax-ns#"
   xmlns:svg="http://www.w3.org/2000/svg"
   xmlns="http://www.w3.org/2000/svg"
   xmlns:sodipodi="http://sodipodi.sourceforge.net/DTD/sodipodi-0.dtd"
   xmlns:inkscape="http://www.inkscape.org/namespaces/inkscape"
   width="14.097638mm"
   height="17.428619mm"
   viewBox="0 0 49.952261 61.75495"
   id="svg6962"
   version="1.1"
   inkscape:version="0.91 r13725"
   sodipodi:docname="bg-oil.svg">
  <defs
     id="defs6964" />
  <sodipodi:namedview
     id="base"
     pagecolor="#ffffff"
     bordercolor="#666666"
     borderopacity="1.0"
     inkscape:pageopacity="0.0"
     inkscape:pageshadow="2"
     inkscape:zoom="5.6"
     inkscape:cx="-9.5088112"
     inkscape:cy="51.501519"
     inkscape:document-units="px"
     inkscape:current-layer="layer1"
     showgrid="false"
     fit-margin-top="0"
     fit-margin-left="0"
     fit-margin-right="0"
     fit-margin-bottom="0"
     inkscape:window-width="1366"
     inkscape:window-height="719"
     inkscape:window-x="0"
     inkscape:window-y="0"
     inkscape:window-maximized="1" />
  <metadata
     id="metadata6967">
    <rdf:RDF>
      <cc:Work
         rdf:about="">
        <dc:format>image/svg+xml</dc:format>
        <dc:type
           rdf:resource="http://purl.org/dc/dcmitype/StillImage" />
        <dc:title></dc:title>
      </cc:Work>
    </rdf:RDF>
  </metadata>
  <g
     inkscape:label="Layer 1"
     inkscape:groupmode="layer"
     id="layer1"
     transform="translate(-544.15691,-412.2172)">
    <path
       style="fill:#999999;fill-opacity:1;stroke:none"
       d="m 569.19981,412.2172 c -13.75169,0 -24.87595,3.57958 -24.87595,7.98295 0,0.84808 0.40266,1.67339 1.16866,2.44007 l 0,18.165 c -0.86618,0.81021 -1.33561,1.68646 -1.33561,2.5907 0,0.90269 0.47225,1.7515 1.33561,2.56056 l 0,17.442 c -0.86618,0.81024 -1.33561,1.68647 -1.33561,2.59071 0,4.40337 11.12426,7.98296 24.87594,7.98296 13.75172,0 24.90937,-3.57959 24.90937,-7.98296 0,-0.73151 -0.32542,-1.43576 -0.90155,-2.10871 l 0,-18.37586 c 0.58347,-0.67691 0.90155,-1.37239 0.90155,-2.1087 0,-0.73632 -0.31808,-1.46194 -0.90155,-2.13885 l 0,-18.76746 c 0.67621,-0.72443 1.0685,-1.49462 1.0685,-2.28946 0,-4.40337 -11.15765,-7.98295 -24.90936,-7.98295 z"
       id="path6023"
       inkscape:connector-curvature="0"
       inkscape:export-filename="/home/aproken/Рабочий стол/vida4a/vidacha_operator/61.png"
       inkscape:export-xdpi="150"
       inkscape:export-ydpi="150" />
  </g>
</svg>
