<?xml version="1.0" encoding="UTF-8" standalone="no"?>
<!-- Created with Inkscape (http://www.inkscape.org/) -->

<svg
   xmlns:dc="http://purl.org/dc/elements/1.1/"
   xmlns:cc="http://creativecommons.org/ns#"
   xmlns:rdf="http://www.w3.org/1999/02/22-rdf-syntax-ns#"
   xmlns:svg="http://www.w3.org/2000/svg"
   xmlns="http://www.w3.org/2000/svg"
   xmlns:sodipodi="http://sodipodi.sourceforge.net/DTD/sodipodi-0.dtd"
   xmlns:inkscape="http://www.inkscape.org/namespaces/inkscape"
   width="20mm"
   height="20mm"
   viewBox="0 0 70.866142 70.866142"
   id="svg5851"
   version="1.1"
   inkscape:version="0.91 r13725"
   sodipodi:docname="fluid-day.svg">
  <defs
     id="defs5853" />
  <sodipodi:namedview
     id="base"
     pagecolor="#ffffff"
     bordercolor="#666666"
     borderopacity="1.0"
     inkscape:pageopacity="0.0"
     inkscape:pageshadow="2"
     inkscape:zoom="1.4961964"
     inkscape:cx="-50.578439"
     inkscape:cy="32.300778"
     inkscape:document-units="px"
     inkscape:current-layer="layer1"
     showgrid="false"
     fit-margin-top="0"
     fit-margin-left="0"
     fit-margin-right="0"
     fit-margin-bottom="0"
     inkscape:window-width="1366"
     inkscape:window-height="719"
     inkscape:window-x="0"
     inkscape:window-y="25"
     inkscape:window-maximized="1" />
  <metadata
     id="metadata5856">
    <rdf:RDF>
      <cc:Work
         rdf:about="">
        <dc:format>image/svg+xml</dc:format>
        <dc:type
           rdf:resource="http://purl.org/dc/dcmitype/StillImage" />
        <dc:title></dc:title>
      </cc:Work>
    </rdf:RDF>
  </metadata>
  <g
     inkscape:label="Layer 1"
     inkscape:groupmode="layer"
     id="layer1"
     transform="translate(-209.67223,-198.34838)">
    <g
       transform="matrix(2.5090737,0,0,2.5090737,-1030.0953,-1476.5694)"
       id="g6967"
       inkscape:export-filename="/home/lonmadi/Рабочий стол/vida4a/vidacha_operator/21.png"
       inkscape:export-xdpi="150"
       inkscape:export-ydpi="150">
      <path
         inkscape:connector-curvature="0"
         style="opacity:1;fill:#4d4d4d;fill-opacity:1;stroke:none;stroke-opacity:1"
         d="m 508.49805,420.30078 a 9.2735319,9.2735319 0 0 0 -9.27344,9.27344 9.2735319,9.2735319 0 0 0 9.27344,9.27344 9.2735319,9.2735319 0 0 0 9.27343,-9.27344 9.2735319,9.2735319 0 0 0 -9.27343,-9.27344 z m 0,1.85352 a 7.4188256,7.4188256 0 0 1 7.41992,7.41992 7.4188256,7.4188256 0 0 1 -7.41992,7.41797 7.4188256,7.4188256 0 0 1 -7.41797,-7.41797 7.4188256,7.4188256 0 0 1 7.41797,-7.41992 z"
         transform="translate(0,252.36235)"
         id="path6969" />
      <circle
         style="opacity:1;fill:#4d4d4d;fill-opacity:1;stroke:none;stroke-opacity:1"
         id="circle6971"
         cx="508.49805"
         cy="681.93658"
         r="2.0607846" />
      <rect
         style="opacity:1;fill:#4d4d4d;fill-opacity:1;stroke:none;stroke-opacity:1"
         id="rect6973"
         width="2.5500913"
         height="5.8287807"
         x="507.22299"
         y="676.58459"
         rx="1.2750456"
         ry="0.72859758" />
      <rect
         ry="1.047359"
         rx="0.91074693"
         y="-515.41608"
         x="-682.84735"
         height="8.3788719"
         width="1.8214939"
         id="rect6975"
         style="opacity:1;fill:#4d4d4d;fill-opacity:1;stroke:none;stroke-opacity:1"
         transform="matrix(0,-1,-1,0,0,0)" />
    </g>
  </g>
</svg>
