<?xml version="1.0" encoding="UTF-8" standalone="no"?>
<!-- Created with Inkscape (http://www.inkscape.org/) -->

<svg
   xmlns:dc="http://purl.org/dc/elements/1.1/"
   xmlns:cc="http://creativecommons.org/ns#"
   xmlns:rdf="http://www.w3.org/1999/02/22-rdf-syntax-ns#"
   xmlns:svg="http://www.w3.org/2000/svg"
   xmlns="http://www.w3.org/2000/svg"
   xmlns:sodipodi="http://sodipodi.sourceforge.net/DTD/sodipodi-0.dtd"
   xmlns:inkscape="http://www.inkscape.org/namespaces/inkscape"
   width="13.970668mm"
   height="21.238327mm"
   viewBox="0 0 49.502366 75.253914"
   id="svg5036"
   version="1.1"
   inkscape:version="0.91 r13725"
   sodipodi:docname="icon-add-to-sklad.svg">
  <defs
     id="defs5038">
    <filter
       inkscape:collect="always"
       style="color-interpolation-filters:sRGB"
       id="filter4934-2"
       x="-0.11659532"
       width="1.2331907"
       y="-0.085117035"
       height="1.1702341">
      <feGaussianBlur
         inkscape:collect="always"
         stdDeviation="1.8182477"
         id="feGaussianBlur4936-8" />
    </filter>
  </defs>
  <sodipodi:namedview
     id="base"
     pagecolor="#ffffff"
     bordercolor="#666666"
     borderopacity="1.0"
     inkscape:pageopacity="0.0"
     inkscape:pageshadow="2"
     inkscape:zoom="1.979899"
     inkscape:cx="-99.860237"
     inkscape:cy="66.789995"
     inkscape:document-units="px"
     inkscape:current-layer="layer1"
     showgrid="false"
     fit-margin-top="0"
     fit-margin-left="0"
     fit-margin-right="0"
     fit-margin-bottom="0"
     inkscape:window-width="1366"
     inkscape:window-height="719"
     inkscape:window-x="0"
     inkscape:window-y="0"
     inkscape:window-maximized="1" />
  <metadata
     id="metadata5041">
    <rdf:RDF>
      <cc:Work
         rdf:about="">
        <dc:format>image/svg+xml</dc:format>
        <dc:type
           rdf:resource="http://purl.org/dc/dcmitype/StillImage" />
        <dc:title></dc:title>
      </cc:Work>
    </rdf:RDF>
  </metadata>
  <g
     inkscape:label="Layer 1"
     inkscape:groupmode="layer"
     id="layer1"
     transform="translate(-12.042088,-504.14237)">
    <g
       inkscape:export-filename="/home/lonmadi/Рабочий стол/vida4a/vidacha_operator/22.png"
       transform="matrix(0.85996918,0,0,0.85996918,-83.027685,117.71487)"
       inkscape:export-ydpi="150"
       inkscape:export-xdpi="150"
       id="g7892">
      <path
         style="opacity:1;fill:#0496f9;fill-opacity:1;fill-rule:evenodd;stroke:none;stroke-width:1;stroke-miterlimit:4;stroke-dasharray:none;stroke-opacity:1"
         d="m 119.87717,449.35041 c -1.4142,0 -2.55256,1.13835 -2.55256,2.55257 0,1.41419 1.13836,2.55282 2.55256,2.55282 l 4.47343,0 c -0.0348,0.14522 -0.055,0.29619 -0.055,0.45237 l 0,4.06375 -12.12548,0 c -0.55156,0 -1.09192,0.0446 -1.61991,0.12618 l 0,6.45201 13.80821,0 a 4.1236187,4.1236187 0 0 0 2.98076,1.27654 4.1236187,4.1236187 0 0 0 2.9762,-1.27654 l 2.81646,0 c 2.06693,0 3.73086,1.66394 3.73086,3.73085 l 8.04723,0 c -0.0785,-5.72411 -4.70922,-10.30904 -10.45268,-10.30904 l -3.58373,0 0,-4.06375 c 0,-0.15618 -0.0202,-0.30715 -0.055,-0.45237 l 4.76793,0 c 1.41421,0 2.55257,-1.13863 2.55257,-2.55282 0,-1.41422 -1.13836,-2.55257 -2.55257,-2.55257 l -15.70921,0 z"
         id="path7894"
         inkscape:connector-curvature="0" />
      <g
         id="g7896"
         transform="matrix(0.87039379,0,0,0.87039379,17.103672,68.671522)">
        <g
           inkscape:export-ydpi="150"
           inkscape:export-xdpi="150"
           inkscape:export-filename="/home/aproken/Рабочий стол/vida4a/vida4a13.png"
           style="opacity:0.63599997;fill:#4d4d4d;filter:url(#filter4934-2)"
           id="g7898"
           transform="matrix(1.2603727,0,0,1.2603727,-1.0633293,93.605316)">
          <ellipse
             ry="6.6204739"
             rx="18.653244"
             cy="303.50067"
             cx="115.48083"
             id="ellipse7900"
             style="fill:#4d4d4d;fill-opacity:1;fill-rule:evenodd;stroke:none" />
          <rect
             y="303.3988"
             x="97.707771"
             height="36.769093"
             width="35.621677"
             id="rect7902"
             style="fill:#4d4d4d;fill-opacity:1;fill-rule:evenodd;stroke:none" />
          <ellipse
             style="fill:#4d4d4d;fill-opacity:1;fill-rule:evenodd;stroke:none"
             id="ellipse7904"
             cx="115.36047"
             cy="341.52789"
             rx="18.653244"
             ry="6.6204739" />
          <ellipse
             style="fill:#4d4d4d;fill-opacity:1;fill-rule:evenodd;stroke:none"
             id="ellipse7906"
             cx="115.42064"
             cy="303.55157"
             rx="16.426889"
             ry="4.7361846" />
          <path
             style="fill:#4d4d4d;fill-opacity:1;fill-rule:evenodd;stroke:none"
             d="m 132.99338,340.67758 a 17.811725,4.8084377 0 0 1 -17.75575,4.50709 17.811725,4.8084377 0 0 1 -17.536794,-3.97471 17.811725,6.2072454 0 0 0 17.659044,5.45725 17.811725,6.2072454 0 0 0 17.79068,-5.98963 l -0.15718,0 z"
             id="path7908"
             inkscape:connector-curvature="0" />
          <ellipse
             ry="6.6204739"
             rx="18.653244"
             cy="322.7529"
             cx="115.36047"
             id="ellipse7910"
             style="fill:#4d4d4d;fill-opacity:1;fill-rule:evenodd;stroke:none" />
          <path
             inkscape:connector-curvature="0"
             id="path7912"
             d="m 132.99338,321.90262 a 17.811725,4.8084377 0 0 1 -17.75575,4.50708 17.811725,4.8084377 0 0 1 -17.536794,-3.9747 17.811725,6.2072454 0 0 0 17.659044,5.45724 17.811725,6.2072454 0 0 0 17.79068,-5.98962 l -0.15718,0 z"
             style="fill:#4d4d4d;fill-opacity:1;fill-rule:evenodd;stroke:none" />
          <ellipse
             ry="1.2222413"
             rx="2.7077289"
             cy="303.09326"
             cx="106.39493"
             id="ellipse7914"
             style="fill:#4d4d4d;fill-opacity:1;fill-rule:evenodd;stroke:none" />
        </g>
        <ellipse
           ry="8.3442631"
           rx="23.510038"
           cy="473.73654"
           cx="144.05058"
           id="ellipse7916"
           style="fill:#4d4d4d;fill-opacity:1;fill-rule:evenodd;stroke:none" />
        <rect
           y="473.60818"
           x="121.64995"
           height="46.342754"
           width="44.896584"
           id="rect7918"
           style="fill:#4d4d4d;fill-opacity:1;fill-rule:evenodd;stroke:none" />
        <ellipse
           style="fill:#4d4d4d;fill-opacity:1;fill-rule:evenodd;stroke:none"
           id="ellipse7920"
           cx="143.89891"
           cy="521.66504"
           rx="23.510038"
           ry="8.3442631" />
        <ellipse
           ry="8.3442631"
           rx="23.510038"
           cy="498.0015"
           cx="143.89891"
           id="ellipse7922"
           style="fill:#4d4d4d;fill-opacity:1;fill-rule:evenodd;stroke:none" />
        <path
           inkscape:connector-curvature="0"
           id="path7924"
           d="m 143.89611,485.29391 a 19.366765,5.3400679 0 0 0 -19.36662,5.34109 19.366765,5.3400679 0 0 0 0.0293,0.22369 l -0.0809,0 0,30.83516 0.17207,0 a 19.366765,5.3400679 0 0 0 19.24617,4.80079 19.366765,5.3400679 0 0 0 19.26681,-4.80079 l 0.33038,0 0,-30.83516 -0.27188,0 a 19.366765,5.3400679 0 0 0 0.0413,-0.22369 19.366765,5.3400679 0 0 0 -19.36661,-5.34109 z"
           style="opacity:1;fill:#0496f9;fill-opacity:1;fill-rule:evenodd;stroke:none;stroke-width:1;stroke-miterlimit:4;stroke-dasharray:none;stroke-opacity:1" />
      </g>
      <circle
         style="opacity:1;fill:#0496f9;fill-opacity:1;fill-rule:evenodd;stroke:none;stroke-width:1;stroke-miterlimit:4;stroke-dasharray:none;stroke-opacity:1"
         id="circle7926"
         cx="141.20268"
         cy="473.32303"
         r="2.1759844" />
      <circle
         r="3.2639768"
         cy="482.99063"
         cx="141.35812"
         id="circle7928"
         style="opacity:1;fill:#0496f9;fill-opacity:1;fill-rule:evenodd;stroke:none;stroke-width:1;stroke-miterlimit:4;stroke-dasharray:none;stroke-opacity:1" />
    </g>
  </g>
</svg>
