<?xml version="1.0" encoding="UTF-8" standalone="no"?>
<!-- Created with Inkscape (http://www.inkscape.org/) -->

<svg
   xmlns:dc="http://purl.org/dc/elements/1.1/"
   xmlns:cc="http://creativecommons.org/ns#"
   xmlns:rdf="http://www.w3.org/1999/02/22-rdf-syntax-ns#"
   xmlns:svg="http://www.w3.org/2000/svg"
   xmlns="http://www.w3.org/2000/svg"
   xmlns:sodipodi="http://sodipodi.sourceforge.net/DTD/sodipodi-0.dtd"
   xmlns:inkscape="http://www.inkscape.org/namespaces/inkscape"
   width="13.050884mm"
   height="12.908326mm"
   viewBox="0 0 46.24329 45.738163"
   id="svg5066"
   version="1.1"
   inkscape:version="0.91 r13725"
   sodipodi:docname="icon-other-setting.svg">
  <defs
     id="defs5068" />
  <sodipodi:namedview
     id="base"
     pagecolor="#ffffff"
     bordercolor="#666666"
     borderopacity="1.0"
     inkscape:pageopacity="0.0"
     inkscape:pageshadow="2"
     inkscape:zoom="1.2759881"
     inkscape:cx="-175.26663"
     inkscape:cy="51.08031"
     inkscape:document-units="px"
     inkscape:current-layer="layer1"
     showgrid="false"
     fit-margin-top="0"
     fit-margin-left="0"
     fit-margin-right="0"
     fit-margin-bottom="0"
     inkscape:window-width="1366"
     inkscape:window-height="719"
     inkscape:window-x="0"
     inkscape:window-y="25"
     inkscape:window-maximized="1" />
  <metadata
     id="metadata5071">
    <rdf:RDF>
      <cc:Work
         rdf:about="">
        <dc:format>image/svg+xml</dc:format>
        <dc:type
           rdf:resource="http://purl.org/dc/dcmitype/StillImage" />
        <dc:title></dc:title>
      </cc:Work>
    </rdf:RDF>
  </metadata>
  <g
     inkscape:label="Layer 1"
     inkscape:groupmode="layer"
     id="layer1"
     transform="translate(-194.53177,-687.77564)">
    <g
       id="g4142">
      <path
         inkscape:export-ydpi="150"
         inkscape:export-xdpi="150"
         inkscape:export-filename="/home/lonmadi/Рабочий стол/vida4a/vidacha_operator/20.png"
         style="fill:#b3b3b3;fill-opacity:1"
         d="m 218.98231,687.77564 c -0.94404,0 -1.40856,0.80723 -1.7041,1.70395 l -0.79522,2.41458 c -0.0437,0.13007 -0.0562,0.25806 -0.0437,0.38214 a 15.763702,15.763702 0 0 0 -2.78881,1.18286 c -0.077,-0.0819 -0.16856,-0.1538 -0.27805,-0.2089 l -2.27038,-1.1425 c -0.42145,-0.21148 -0.85746,-0.37732 -1.27119,-0.40694 -0.41376,-0.0298 -0.80481,0.0774 -1.13843,0.41162 l -3.21067,3.21687 c -0.66556,0.6683 -0.42144,1.56738 0,2.40992 l 1.14695,2.26781 c 0.0916,0.18168 0.22665,0.31341 0.38606,0.40543 a 15.763702,15.763702 0 0 0 -0.91967,2.36019 c -0.0229,0 -0.0417,-0.003 -0.0645,-0.007 -0.10823,-0.003 -0.21854,0.0123 -0.33071,0.0496 l -2.41461,0.79529 c -0.89679,0.29541 -1.70388,0.76062 -1.70388,1.70475 l 0,4.54411 c 0,0.94418 0.80709,1.40858 1.70388,1.70399 l 2.41461,0.79528 c 0.19563,0.0647 0.38814,0.0615 0.56859,0.0123 a 15.763702,15.763702 0 0 0 0.84746,2.01462 c -0.20999,0.0903 -0.38668,0.24023 -0.49949,0.46443 l -1.14257,2.27012 c -0.4229,0.84347 -0.66453,1.74388 0,2.41072 l 3.2169,3.20986 c 0.66849,0.66553 1.56736,0.42159 2.41004,-0.003 l 2.26851,-1.14715 c 0.17898,-0.0914 0.31032,-0.22441 0.40229,-0.38209 a 15.763702,15.763702 0 0 0 2.52243,1.06557 c -0.0208,0.14214 -0.0208,0.28965 0.0374,0.44034 l 0.79524,2.41384 c 0.29573,0.8967 0.76004,1.70471 1.70407,1.70471 l 4.54516,0 c 0.94382,0 1.40833,-0.80801 1.70386,-1.70471 l 0.79544,-2.41384 c 0.0436,-0.13007 0.0562,-0.25722 0.0436,-0.38132 a 15.763702,15.763702 0 0 0 2.68017,-1.13004 c 0.0832,0.10327 0.18731,0.19211 0.31843,0.25785 l 2.27099,1.14165 c 0.84331,0.42293 1.74301,0.66456 2.41005,-0.003 l 3.20961,-3.21692 c 0.66537,-0.66833 0.42228,-1.56741 0,-2.40993 l -1.14714,-2.2686 c -0.0894,-0.17461 -0.21728,-0.30294 -0.36859,-0.39455 a 15.763702,15.763702 0 0 0 0.92385,-2.33458 c 0.14152,0.0208 0.28991,0.0104 0.44059,-0.0392 l 2.41378,-0.7953 c 0.89679,-0.29543 1.7045,-0.75987 1.7045,-1.70395 l 0,-4.54499 c 0,-0.94411 -0.80771,-1.4085 -1.7045,-1.70391 l -2.41378,-0.79528 c -0.11238,-0.037 -0.22312,-0.0531 -0.33092,-0.0507 -0.0645,0 -0.12694,0.0125 -0.19146,0.0262 a 15.763702,15.763702 0 0 0 -0.85121,-2.05499 c 0.0978,-0.0825 0.18105,-0.18335 0.24598,-0.30914 l 1.1428,-2.27012 c 0.42394,-0.84346 0.66599,-1.74385 0,-2.41072 l -3.21816,-3.20987 c -0.33404,-0.33273 -0.7253,-0.4379 -1.13903,-0.40696 -0.41376,0.031 -0.84956,0.19793 -1.27059,0.41082 l -2.26788,1.14792 c -0.0729,0.0382 -0.13737,0.0845 -0.19772,0.13508 a 15.763702,15.763702 0 0 0 -2.5193,-1.06323 c 0.0208,-0.14215 0.0208,-0.2904 -0.0417,-0.44115 l -0.79543,-2.41458 c -0.29533,-0.89674 -0.75964,-1.70393 -1.70388,-1.70393 l -4.54493,0 z m 2.20169,12.21437 a 7.3137901,7.3137901 0 0 1 7.31377,7.31359 7.3137901,7.3137901 0 0 1 -7.31377,7.3137 7.3137901,7.3137901 0 0 1 -7.31458,-7.3137 7.3137901,7.3137901 0 0 1 7.31458,-7.31359 z"
         id="path6000"
         inkscape:connector-curvature="0" />
      <g
         inkscape:export-ydpi="150"
         inkscape:export-xdpi="150"
         transform="matrix(0.41644077,0,0,0.41644077,-352.22677,454.29394)"
         id="g6187">
        <path
           style="fill:#4d4d4d;fill-opacity:1;fill-rule:evenodd;stroke:none"
           d="m 1333.3227,603.99976 c 0,0 -6.5207,13.2182 -9.8069,19.81073 -3.0196,6.24145 -7.3359,14.07574 -9.5871,19.73727 -0.6571,2.03724 -0.9932,4.16444 -0.9964,6.30519 0,11.39656 9.236,20.63625 20.6326,20.63823 11.3986,10e-4 20.6391,-9.23968 20.6379,-20.63823 -0.2896,-3.19597 -0.8563,-6.59716 -2.2179,-9.30027 -0.031,-0.0458 -0.041,-0.0896 -0.066,-0.13542 -1.508,-2.92243 -5.7541,-11.13972 -8.6079,-16.72575 -3.347,-6.5522 -9.9868,-19.69231 -9.9868,-19.69231 z"
           id="path6179"
           inkscape:connector-curvature="0"
           sodipodi:nodetypes="ccccccccccc" />
        <path
           sodipodi:nodetypes="cczc"
           inkscape:connector-curvature="0"
           id="path6182"
           d="m 1333.4147,616.14227 0.051,50.42864 c 0,0 22.8626,-4.293 13.3,-24.28823 -9.5622,-19.99523 -13.3493,-26.14041 -13.3493,-26.14041 z"
           style="fill:#ffffff;fill-opacity:1;fill-rule:evenodd;stroke:none" />
      </g>
    </g>
  </g>
</svg>
