<?xml version="1.0" encoding="UTF-8" standalone="no"?>
<!-- Created with Inkscape (http://www.inkscape.org/) -->

<svg
   xmlns:dc="http://purl.org/dc/elements/1.1/"
   xmlns:cc="http://creativecommons.org/ns#"
   xmlns:rdf="http://www.w3.org/1999/02/22-rdf-syntax-ns#"
   xmlns:svg="http://www.w3.org/2000/svg"
   xmlns="http://www.w3.org/2000/svg"
   xmlns:sodipodi="http://sodipodi.sourceforge.net/DTD/sodipodi-0.dtd"
   xmlns:inkscape="http://www.inkscape.org/namespaces/inkscape"
   width="16.553249mm"
   height="11.970683mm"
   viewBox="0 0 58.653247 42.415806"
   id="svg5066"
   version="1.1"
   inkscape:version="0.91 r13725"
   sodipodi:docname="icon-setting.svg">
  <defs
     id="defs5068" />
  <sodipodi:namedview
     id="base"
     pagecolor="#ffffff"
     bordercolor="#666666"
     borderopacity="1.0"
     inkscape:pageopacity="0.0"
     inkscape:pageshadow="2"
     inkscape:zoom="3.8890229"
     inkscape:cx="-22.747737"
     inkscape:cy="1.4811531"
     inkscape:document-units="px"
     inkscape:current-layer="layer1"
     showgrid="false"
     fit-margin-top="0"
     fit-margin-left="0"
     fit-margin-right="0"
     fit-margin-bottom="0"
     inkscape:window-width="1366"
     inkscape:window-height="719"
     inkscape:window-x="0"
     inkscape:window-y="25"
     inkscape:window-maximized="1" />
  <metadata
     id="metadata5071">
    <rdf:RDF>
      <cc:Work
         rdf:about="">
        <dc:format>image/svg+xml</dc:format>
        <dc:type
           rdf:resource="http://purl.org/dc/dcmitype/StillImage" />
        <dc:title></dc:title>
      </cc:Work>
    </rdf:RDF>
  </metadata>
  <g
     inkscape:label="Layer 1"
     inkscape:groupmode="layer"
     id="layer1"
     transform="translate(-777.03918,-603.10083)">
    <g
       id="g4138">
      <path
         inkscape:connector-curvature="0"
         id="path5520"
         d="m 813.8996,603.10083 c -0.94404,0 -1.40857,0.80723 -1.70411,1.70396 l -0.79523,2.4146 c -0.0437,0.13007 -0.0562,0.25806 -0.0437,0.38213 a 15.763825,15.763825 0 0 0 -2.78883,1.18288 c -0.077,-0.082 -0.16857,-0.1538 -0.27805,-0.20892 l -2.2704,-1.1425 c -0.42145,-0.21147 -0.85747,-0.37733 -1.27121,-0.40693 -0.41375,-0.0297 -0.80481,0.0774 -1.13842,0.41162 l -3.21071,3.21689 c -0.66556,0.66831 -0.42144,1.56739 0,2.40995 l 1.14697,2.26782 c 0.0916,0.18169 0.22665,0.31341 0.38605,0.40542 a 15.763825,15.763825 0 0 0 -0.91968,2.36023 c -0.0229,0 -0.0416,-0.003 -0.0646,-0.007 -0.10823,-0.003 -0.21852,0.0125 -0.33072,0.0496 l -2.41462,0.7953 c -0.89679,0.29543 -1.70389,0.76063 -1.70389,1.70477 l 0,4.54416 c 0,0.94417 0.8071,1.40858 1.70389,1.70399 l 2.41462,0.79528 c 0.19565,0.0646 0.38815,0.0614 0.56861,0.0125 a 15.763825,15.763825 0 0 0 0.84746,2.01464 c -0.21,0.0903 -0.38668,0.24023 -0.49949,0.46443 l -1.14258,2.27014 c -0.4229,0.84347 -0.66454,1.74388 0,2.41073 l 3.21694,3.20989 c 0.66848,0.66552 1.56736,0.42158 2.41005,-0.003 l 2.26852,-1.14716 c 0.17899,-0.0914 0.31031,-0.22442 0.40229,-0.38211 a 15.763825,15.763825 0 0 0 2.52246,1.06558 c -0.0208,0.14214 -0.0208,0.28967 0.0374,0.44035 l 0.79524,2.41386 c 0.29574,0.89671 0.76005,1.70473 1.70408,1.70473 l 4.54519,0 c 0.94383,0 1.40836,-0.80802 1.7039,-1.70473 l 0.79544,-2.41386 c 0.0436,-0.13007 0.0562,-0.25722 0.0436,-0.38132 a 15.763825,15.763825 0 0 0 2.68019,-1.13005 c 0.0832,0.10324 0.18731,0.1921 0.31844,0.25785 l 2.27101,1.14165 c 0.84331,0.42295 1.74303,0.66459 2.41006,-0.003 l 3.20965,-3.21695 c 0.66537,-0.66834 0.42228,-1.56742 0,-2.40995 l -1.14716,-2.26861 c -0.0895,-0.1746 -0.21728,-0.30295 -0.36859,-0.39455 a 15.763825,15.763825 0 0 0 0.92386,-2.33461 c 0.14152,0.0208 0.28991,0.0104 0.44059,-0.0391 l 2.41379,-0.79532 c 0.89681,-0.29543 1.70452,-0.75988 1.70452,-1.70396 l 0,-4.54504 c 0,-0.94411 -0.80771,-1.4085 -1.70452,-1.70392 l -2.41379,-0.79528 c -0.1124,-0.037 -0.22311,-0.0531 -0.33092,-0.0506 -0.0645,0 -0.12695,0.0125 -0.19146,0.0262 a 15.763825,15.763825 0 0 0 -0.85122,-2.05499 c 0.0978,-0.0824 0.18105,-0.18335 0.24599,-0.30914 l 1.14279,-2.27014 c 0.42396,-0.84347 0.66601,-1.74388 0,-2.41074 l -3.21817,-3.2099 c -0.33404,-0.33273 -0.7253,-0.4379 -1.13906,-0.40695 -0.41375,0.0311 -0.84955,0.19792 -1.27058,0.41081 l -2.26791,1.14794 c -0.0729,0.0382 -0.13735,0.0845 -0.19771,0.13507 a 15.763825,15.763825 0 0 0 -2.51932,-1.06324 c 0.0208,-0.14214 0.0208,-0.29039 -0.0416,-0.44115 l -0.79544,-2.41458 c -0.29533,-0.89677 -0.75966,-1.70396 -1.70389,-1.70396 l -4.54496,0 z m 2.20172,12.21446 a 7.3138467,7.3138467 0 0 1 7.31382,7.31365 7.3138467,7.3138467 0 0 1 -7.31382,7.31375 7.3138467,7.3138467 0 0 1 -7.31465,-7.31375 7.3138467,7.3138467 0 0 1 7.31465,-7.31365 z"
         style="fill:#b3b3b3;fill-opacity:1"
         inkscape:export-filename="/home/lonmadi/Рабочий стол/vida4a/vidacha_operator/20.png"
         inkscape:export-xdpi="150"
         inkscape:export-ydpi="150" />
      <path
         inkscape:connector-curvature="0"
         id="path5514"
         d="m 792.45794,621.69008 c -0.54922,-0.22259 -1.00981,0.13751 -1.39318,0.58952 l -1.03196,1.21726 c -0.0561,0.0654 -0.0936,0.13686 -0.1155,0.21203 a 9.8955642,9.8955642 0 0 0 -1.90136,0.0306 c -0.0254,-0.066 -0.0619,-0.12923 -0.11252,-0.1871 l -1.05149,-1.2 c -0.19531,-0.22239 -0.40987,-0.42169 -0.64359,-0.53647 -0.23372,-0.11487 -0.48648,-0.14474 -0.75938,-0.029 l -2.62638,1.11448 c -0.54478,0.23188 -0.61475,0.81249 -0.56823,1.40205 l 0.13257,1.5898 c 0.0104,0.12729 0.058,0.23576 0.12901,0.32689 a 9.8955642,9.8955642 0 0 0 -1.09155,1.15627 c -0.0132,-0.006 -0.0231,-0.0122 -0.0362,-0.0185 -0.062,-0.0279 -0.13006,-0.0443 -0.2041,-0.0491 l -1.5923,-0.10665 c -0.59139,-0.0396 -1.17062,0.0408 -1.39324,0.59004 l -1.07143,2.64368 c -0.22262,0.54931 0.13743,1.00978 0.58951,1.3931 l 1.21725,1.03201 c 0.0986,0.0838 0.21135,0.12724 0.32788,0.14128 a 9.8955642,9.8955642 0 0 0 0.018,1.37189 c -0.14346,0.003 -0.2816,0.0486 -0.40009,0.1524 l -1.19999,1.05132 c -0.44491,0.39099 -0.79778,0.85786 -0.56841,1.4025 l 1.11471,2.62594 c 0.23197,0.54481 0.81244,0.61482 1.40304,0.5659 l 1.59026,-0.13249 c 0.12569,-0.0109 0.23345,-0.0574 0.32414,-0.12746 a 9.8955642,9.8955642 0 0 0 1.21625,1.21468 c -0.0457,0.0778 -0.0805,0.16359 -0.082,0.26502 l -0.1065,1.59182 c -0.0394,0.59142 0.0402,1.17098 0.58946,1.39356 l 2.64427,1.07167 c 0.54909,0.22255 1.00987,-0.138 1.39324,-0.59001 l 1.0319,-1.21677 c 0.0561,-0.0654 0.0934,-0.13639 0.11536,-0.21153 a 9.8955642,9.8955642 0 0 0 1.82571,-0.0255 c 0.024,0.0797 0.0636,0.15591 0.12447,0.22507 l 1.05203,1.19967 c 0.3909,0.44489 0.85735,0.7976 1.40307,0.5659 l 2.62579,-1.11476 c 0.54468,-0.23196 0.61524,-0.81233 0.56822,-1.40205 l -0.13249,-1.59031 c -0.0109,-0.12269 -0.0549,-0.22748 -0.1214,-0.31644 a 9.8955642,9.8955642 0 0 0 1.08793,-1.14039 c 0.0774,0.0454 0.16616,0.0745 0.26557,0.0811 l 1.5918,0.10644 c 0.59139,0.0396 1.17082,-0.0401 1.3934,-0.58942 l 1.07165,-2.6442 c 0.22261,-0.54926 -0.13781,-1.00988 -0.58989,-1.3932 l -1.21678,-1.0318 c -0.0566,-0.048 -0.11726,-0.0835 -0.18059,-0.10744 -0.0377,-0.0149 -0.0768,-0.0227 -0.11755,-0.0299 a 9.8955642,9.8955642 0 0 0 -0.0107,-1.39624 c 0.0763,-0.0249 0.14857,-0.064 0.216,-0.12185 l 1.20012,-1.05127 c 0.44552,-0.39073 0.79863,-0.85751 0.56841,-1.40249 l -1.11542,-2.62623 c -0.11589,-0.27235 -0.31872,-0.42578 -0.56673,-0.50534 -0.24801,-0.0795 -0.54088,-0.0853 -0.83605,-0.0606 l -1.59008,0.13309 c -0.0513,0.005 -0.0998,0.0168 -0.14686,0.032 a 9.8955642,9.8955642 0 0 0 -1.21499,-1.21258 c 0.0457,-0.0777 0.0806,-0.16401 0.0798,-0.26646 l 0.10654,-1.5923 c 0.0396,-0.59133 -0.0401,-1.17042 -0.58952,-1.39306 l -2.64415,-1.07162 z m -1.59906,7.6252 a 4.5911848,4.5911848 0 0 1 2.53057,5.97937 4.5911848,4.5911848 0 0 1 -5.97945,2.53049 4.5911848,4.5911848 0 0 1 -2.53103,-5.97962 4.5911848,4.5911848 0 0 1 5.97991,-2.53024 z"
         style="fill:#4d4d4d;fill-opacity:1"
         inkscape:export-filename="/home/lonmadi/Рабочий стол/vida4a/vidacha_operator/20.png"
         inkscape:export-xdpi="150"
         inkscape:export-ydpi="150" />
    </g>
  </g>
</svg>
