<?xml version="1.0" encoding="UTF-8" standalone="no"?>
<!-- Created with Inkscape (http://www.inkscape.org/) -->

<svg
   xmlns:dc="http://purl.org/dc/elements/1.1/"
   xmlns:cc="http://creativecommons.org/ns#"
   xmlns:rdf="http://www.w3.org/1999/02/22-rdf-syntax-ns#"
   xmlns:svg="http://www.w3.org/2000/svg"
   xmlns="http://www.w3.org/2000/svg"
   xmlns:sodipodi="http://sodipodi.sourceforge.net/DTD/sodipodi-0.dtd"
   xmlns:inkscape="http://www.inkscape.org/namespaces/inkscape"
   width="6.24404mm"
   height="8.4666662mm"
   viewBox="0 0 22.124551 29.999999"
   id="svg5066"
   version="1.1"
   inkscape:version="0.91 r13725"
   sodipodi:docname="icon-otchet-setting.svg">
  <defs
     id="defs5068" />
  <sodipodi:namedview
     id="base"
     pagecolor="#ffffff"
     bordercolor="#666666"
     borderopacity="1.0"
     inkscape:pageopacity="0.0"
     inkscape:pageshadow="2"
     inkscape:zoom="1.7198392"
     inkscape:cx="-182.78837"
     inkscape:cy="9.4514438"
     inkscape:document-units="px"
     inkscape:current-layer="layer1"
     showgrid="false"
     fit-margin-top="0"
     fit-margin-left="0"
     fit-margin-right="0"
     fit-margin-bottom="0"
     inkscape:window-width="1366"
     inkscape:window-height="719"
     inkscape:window-x="0"
     inkscape:window-y="25"
     inkscape:window-maximized="1" />
  <metadata
     id="metadata5071">
    <rdf:RDF>
      <cc:Work
         rdf:about="">
        <dc:format>image/svg+xml</dc:format>
        <dc:type
           rdf:resource="http://purl.org/dc/dcmitype/StillImage" />
        <dc:title></dc:title>
      </cc:Work>
    </rdf:RDF>
  </metadata>
  <g
     inkscape:label="Layer 1"
     inkscape:groupmode="layer"
     id="layer1"
     transform="translate(-213.24686,-680.64876)">
    <g
       transform="matrix(0.44224193,0,0,0.44224193,-81.237772,395.39437)"
       id="g6174">
      <path
         inkscape:connector-curvature="0"
         id="path5739"
         d="m 668.29199,656.23207 c -1.30068,0 -2.34769,1.04702 -2.34769,2.34768 l 0,51.87365 c 0,1.30068 1.04701,2.34769 2.34769,2.34769 l 45.22487,0 c 1.30067,0 2.3477,-1.04701 2.3477,-2.34769 l 0,-51.87365 c 0,-1.30066 -1.04703,-2.34768 -2.3477,-2.34768 l -45.22487,0 z m 3.35483,4.13163 38.2973,0 c 1.11062,0 2.0046,0.89419 2.0046,2.00482 l 0,44.29402 c 0,1.11062 -0.89398,2.0048 -2.0046,2.0048 l -38.2973,0 c -1.11062,0 -2.00481,-0.89418 -2.00481,-2.0048 l 0,-44.29402 c 0,-1.11063 0.89419,-2.00482 2.00481,-2.00482 z"
         style="fill:#4d4d4d;fill-opacity:1;fill-rule:evenodd;stroke:#5c5c5c;stroke-width:0.10790106;stroke-miterlimit:4;stroke-dasharray:none;stroke-opacity:1" />
      <g
         transform="matrix(0.10790106,0,0,0.10790106,482.93903,537.99409)"
         id="g5741"
         style="fill:#4d4d4d;fill-opacity:1">
        <path
           style="fill:#4d4d4d;fill-opacity:1;fill-rule:evenodd;stroke:#5c5c5c;stroke-width:1;stroke-miterlimit:4;stroke-dasharray:none;stroke-opacity:1"
           id="path5743"
           sodipodi:type="arc"
           sodipodi:cx="1794.536"
           sodipodi:cy="1240.7557"
           sodipodi:rx="37.880722"
           sodipodi:ry="37.880722"
           sodipodi:start="0"
           sodipodi:end="6.264807"
           sodipodi:open="true"
           d="m 1832.4167,1240.7557 a 37.880722,37.880722 0 0 1 -37.7066,37.8804 37.880722,37.880722 0 0 1 -38.0532,-37.5323 37.880722,37.880722 0 0 1 37.357,-38.2252 37.880722,37.880722 0 0 1 38.3964,37.181" />
        <rect
           style="fill:#4d4d4d;fill-opacity:1;fill-rule:evenodd;stroke:#5c5c5c;stroke-width:0.9192394;stroke-miterlimit:4;stroke-dasharray:none;stroke-opacity:1"
           id="rect5745"
           width="230.39554"
           height="43.517319"
           x="1870.7621"
           y="1218.9971"
           ry="21.758659" />
      </g>
      <g
         transform="matrix(0.10790106,0,0,0.10790106,482.93903,550.63769)"
         id="g5747"
         style="fill:#4d4d4d;fill-opacity:1">
        <path
           d="m 1832.4167,1240.7557 a 37.880722,37.880722 0 0 1 -37.7066,37.8804 37.880722,37.880722 0 0 1 -38.0532,-37.5323 37.880722,37.880722 0 0 1 37.357,-38.2252 37.880722,37.880722 0 0 1 38.3964,37.181"
           sodipodi:open="true"
           sodipodi:end="6.264807"
           sodipodi:start="0"
           sodipodi:ry="37.880722"
           sodipodi:rx="37.880722"
           sodipodi:cy="1240.7557"
           sodipodi:cx="1794.536"
           sodipodi:type="arc"
           id="path5749"
           style="fill:#4d4d4d;fill-opacity:1;fill-rule:evenodd;stroke:#5c5c5c;stroke-width:1;stroke-miterlimit:4;stroke-dasharray:none;stroke-opacity:1" />
        <rect
           ry="21.758659"
           y="1218.9971"
           x="1870.7621"
           height="43.517319"
           width="230.39554"
           id="rect5751"
           style="fill:#4d4d4d;fill-opacity:1;fill-rule:evenodd;stroke:#5c5c5c;stroke-width:0.9192394;stroke-miterlimit:4;stroke-dasharray:none;stroke-opacity:1" />
      </g>
      <g
         id="g5753"
         transform="matrix(0.10790106,0,0,0.10790106,482.93903,563.28129)"
         style="fill:#4d4d4d;fill-opacity:1">
        <path
           style="fill:#4d4d4d;fill-opacity:1;fill-rule:evenodd;stroke:#5c5c5c;stroke-width:1;stroke-miterlimit:4;stroke-dasharray:none;stroke-opacity:1"
           id="path5755"
           sodipodi:type="arc"
           sodipodi:cx="1794.536"
           sodipodi:cy="1240.7557"
           sodipodi:rx="37.880722"
           sodipodi:ry="37.880722"
           sodipodi:start="0"
           sodipodi:end="6.264807"
           sodipodi:open="true"
           d="m 1832.4167,1240.7557 a 37.880722,37.880722 0 0 1 -37.7066,37.8804 37.880722,37.880722 0 0 1 -38.0532,-37.5323 37.880722,37.880722 0 0 1 37.357,-38.2252 37.880722,37.880722 0 0 1 38.3964,37.181" />
        <rect
           style="fill:#4d4d4d;fill-opacity:1;fill-rule:evenodd;stroke:#5c5c5c;stroke-width:0.9192394;stroke-miterlimit:4;stroke-dasharray:none;stroke-opacity:1"
           id="rect5757"
           width="230.39554"
           height="43.517319"
           x="1870.7621"
           y="1218.9971"
           ry="21.758659" />
      </g>
      <g
         transform="matrix(0.10790106,0,0,0.10790106,482.01258,523.60655)"
         id="g5759"
         style="fill:#4d4d4d;fill-opacity:1">
        <rect
           style="fill:#4d4d4d;fill-opacity:1;fill-rule:evenodd;stroke:#5c5c5c;stroke-width:0.94165754;stroke-miterlimit:4;stroke-dasharray:none;stroke-opacity:1"
           id="rect5761"
           width="209.15993"
           height="102.08375"
           x="1831.3773"
           y="1192.7443"
           ry="28.111298" />
        <path
           style="fill:#4d4d4d;fill-opacity:1;fill-rule:evenodd;stroke:none"
           d="m 1935.2685,1125.2237 a 50.000015,50.000015 0 0 0 -49.3093,50.4546 50.000015,50.000015 0 0 0 50.2273,49.5402 50.000015,50.000015 0 0 0 49.7709,-49.9983 l -0.01,-0.9198 a 50.000015,50.000015 0 0 0 -50.6801,-49.0767 z m 0.096,17.374 a 32.627056,32.627056 0 0 1 8.6026,0.9925 32.627056,32.627056 0 0 1 23.6559,39.4922 l -0.1509,0.5806 a 32.627056,32.627056 0 0 1 -39.8153,23.1108 32.627056,32.627056 0 0 1 -23.292,-39.7088 32.627056,32.627056 0 0 1 30.9997,-24.4673 z"
           id="path5763"
           inkscape:connector-curvature="0" />
      </g>
    </g>
  </g>
</svg>
