<?xml version="1.0" encoding="UTF-8" standalone="no"?>
<!-- Created with Inkscape (http://www.inkscape.org/) -->

<svg
   xmlns:dc="http://purl.org/dc/elements/1.1/"
   xmlns:cc="http://creativecommons.org/ns#"
   xmlns:rdf="http://www.w3.org/1999/02/22-rdf-syntax-ns#"
   xmlns:svg="http://www.w3.org/2000/svg"
   xmlns="http://www.w3.org/2000/svg"
   xmlns:sodipodi="http://sodipodi.sourceforge.net/DTD/sodipodi-0.dtd"
   xmlns:inkscape="http://www.inkscape.org/namespaces/inkscape"
   width="26.147381"
   height="30"
   viewBox="0 0 26.147379 30.000001"
   id="svg4629"
   version="1.1"
   inkscape:version="0.91 r13725"
   sodipodi:docname="icon-login.svg">
  <defs
     id="defs4631" />
  <sodipodi:namedview
     id="base"
     pagecolor="#ffffff"
     bordercolor="#666666"
     borderopacity="1.0"
     inkscape:pageopacity="0.0"
     inkscape:pageshadow="2"
     inkscape:zoom="0.35"
     inkscape:cx="-447.66997"
     inkscape:cy="-132.94025"
     inkscape:document-units="px"
     inkscape:current-layer="layer1"
     showgrid="false"
     fit-margin-top="0"
     fit-margin-left="0"
     fit-margin-right="0"
     fit-margin-bottom="0"
     inkscape:window-width="1366"
     inkscape:window-height="719"
     inkscape:window-x="0"
     inkscape:window-y="25"
     inkscape:window-maximized="1"
     units="px" />
  <metadata
     id="metadata4634">
    <rdf:RDF>
      <cc:Work
         rdf:about="">
        <dc:format>image/svg+xml</dc:format>
        <dc:type
           rdf:resource="http://purl.org/dc/dcmitype/StillImage" />
        <dc:title></dc:title>
      </cc:Work>
    </rdf:RDF>
  </metadata>
  <g
     inkscape:label="Layer 1"
     inkscape:groupmode="layer"
     id="layer1"
     transform="translate(-208.38426,-369.42196)">
    <g
       id="g6508"
       transform="matrix(0.89927006,0,0,0.89927006,85.207544,-34.79249)">
      <path
         sodipodi:nodetypes="ssccssssssssccsssssss"
         id="rect4571"
         d="m 146.23056,449.49172 c -2.72772,0 -4.92351,2.19579 -4.92351,4.9235 l 0,3.96303 2.15356,2.15356 0,-4.66837 c 0,-2.39159 1.92519,-4.31678 4.31678,-4.31678 l 11.80153,0 c 2.39159,0 4.31785,1.92519 4.31785,4.31678 l 0,20.61696 c 0,2.39159 -1.92626,4.31677 -4.31785,4.31677 l -11.80153,0 c -2.39159,0 -4.31678,-1.92518 -4.31678,-4.31677 l 0,-4.6673 -2.15356,2.15249 0,3.96302 c 0,2.72772 2.19579,4.9235 4.92351,4.9235 l 14.8952,0 c 2.72771,0 4.92457,-2.19578 4.92457,-4.9235 l 0,-23.51339 c 0,-2.72771 -2.19686,-4.9235 -4.92457,-4.9235 z"
         style="opacity:1;fill:#4d4d4d;fill-opacity:1;fill-rule:evenodd;stroke:none;stroke-width:1.5;stroke-miterlimit:4;stroke-dasharray:none;stroke-dashoffset:0;stroke-opacity:1"
         inkscape:connector-curvature="0" />
      <g
         style="fill:#4d4d4d;fill-opacity:1"
         transform="matrix(0,0.34179628,-0.34179628,0,320.46563,434.71898)"
         id="g4799">
        <path
           inkscape:connector-curvature="0"
           style="opacity:1;fill:#4d4d4d;fill-opacity:1;fill-rule:evenodd;stroke:none;stroke-width:1.5;stroke-miterlimit:4;stroke-dasharray:none;stroke-dashoffset:0;stroke-opacity:1"
           d="m 92.023438,226.77539 -23.904297,23.90234 47.806639,0 -23.902342,-23.90234 z"
           transform="translate(0,252.36235)"
           id="rect4792" />
        <rect
           style="opacity:1;fill:#4d4d4d;fill-opacity:1;fill-rule:evenodd;stroke:none;stroke-width:1.5;stroke-miterlimit:4;stroke-dasharray:none;stroke-dashoffset:0;stroke-opacity:1"
           id="rect4797"
           width="19.719254"
           height="40.377518"
           x="82.162834"
           y="496.46719" />
      </g>
    </g>
  </g>
</svg>
