<?xml version="1.0" encoding="UTF-8" standalone="no"?>
<!-- Created with Inkscape (http://www.inkscape.org/) -->

<svg
   xmlns:dc="http://purl.org/dc/elements/1.1/"
   xmlns:cc="http://creativecommons.org/ns#"
   xmlns:rdf="http://www.w3.org/1999/02/22-rdf-syntax-ns#"
   xmlns:svg="http://www.w3.org/2000/svg"
   xmlns="http://www.w3.org/2000/svg"
   xmlns:sodipodi="http://sodipodi.sourceforge.net/DTD/sodipodi-0.dtd"
   xmlns:inkscape="http://www.inkscape.org/namespaces/inkscape"
   width="24.582098mm"
   height="10.801838mm"
   viewBox="0 0 87.101923 38.274229"
   id="svg5722"
   version="1.1"
   inkscape:version="0.91 r13725"
   sodipodi:docname="icon-avto-to.svg">
  <defs
     id="defs5724" />
  <sodipodi:namedview
     id="base"
     pagecolor="#ffffff"
     bordercolor="#666666"
     borderopacity="1.0"
     inkscape:pageopacity="0.0"
     inkscape:pageshadow="2"
     inkscape:zoom="3.959798"
     inkscape:cx="38.04535"
     inkscape:cy="13.032046"
     inkscape:document-units="px"
     inkscape:current-layer="layer1"
     showgrid="false"
     fit-margin-top="0"
     fit-margin-left="0"
     fit-margin-right="0"
     fit-margin-bottom="0"
     inkscape:window-width="1280"
     inkscape:window-height="971"
     inkscape:window-x="-8"
     inkscape:window-y="-8"
     inkscape:window-maximized="1" />
  <metadata
     id="metadata5727">
    <rdf:RDF>
      <cc:Work
         rdf:about="">
        <dc:format>image/svg+xml</dc:format>
        <dc:type
           rdf:resource="http://purl.org/dc/dcmitype/StillImage" />
        <dc:title></dc:title>
      </cc:Work>
    </rdf:RDF>
  </metadata>
  <g
     inkscape:label="Layer 1"
     inkscape:groupmode="layer"
     id="layer1"
     transform="translate(-214.55102,-530.6742)">
    <g
       id="g4823">
      <path
         inkscape:connector-curvature="0"
         id="path6281"
         d="m 216.2587,568.84953 c -0.77034,-0.30295 -1.18495,-0.67594 -1.49947,-1.34892 l -0.20821,-0.44548 0,-8.05578 0,-8.05577 0.20486,-0.65313 c 0.39288,-1.25258 0.44556,-1.32799 3.42778,-4.90699 0.44621,-0.53548 0.96781,-1.15737 1.15916,-1.38196 0.19132,-0.2246 0.57425,-0.84271 0.85094,-1.37357 0.27671,-0.53087 0.57794,-1.09885 0.66944,-1.2622 0.0915,-0.16334 0.34177,-0.63109 0.55618,-1.03945 0.21441,-0.40836 0.61566,-1.16011 0.89166,-1.67055 0.58446,-1.08094 2.77675,-5.19368 3.08702,-5.79125 0.57585,-1.1091 1.05431,-1.61006 1.89002,-1.97892 l 0.47888,-0.21136 9.98619,0 9.9862,0 0.47887,0.21136 c 0.81155,0.35819 1.29788,0.84606 1.78766,1.7933 0.36887,0.71343 2.76968,5.20755 3.42282,6.40727 0.36232,0.6655 0.65875,1.22506 0.65875,1.24346 0,0.0184 0.16187,0.32589 0.35972,0.6833 0.19784,0.3574 0.5882,1.08417 0.86746,1.61504 0.43346,0.824 0.67683,1.16738 1.6635,2.34712 3.3328,3.98491 3.37293,4.04148 3.77206,5.3154 l 0.20463,0.65313 0.0222,7.90728 c 0.0171,6.1012 7.9e-4,7.98298 -0.0695,8.23869 -0.20465,0.73995 -0.66895,1.29761 -1.36602,1.64065 -0.36755,0.18088 -0.37104,0.1811 -2.81815,0.1811 l -2.45014,0 -0.47028,-0.25496 c -0.51844,-0.28109 -0.88621,-0.67868 -1.14317,-1.23589 -0.16328,-0.35404 -0.16919,-0.44501 -0.19143,-2.9454 l -0.023,-2.58008 -14.6921,0 -14.6921,0 -0.023,2.58008 c -0.0222,2.50039 -0.0282,2.59136 -0.19142,2.9454 -0.27758,0.60193 -0.63418,0.97237 -1.21636,1.26362 l -0.52841,0.26436 -2.31024,-0.006 c -1.58705,-0.004 -2.37996,-0.0331 -2.53297,-0.0933 z m 9.659,-12.83146 c 1.07292,-0.53584 1.33559,-1.97031 0.50361,-2.7503 -0.32535,-0.30503 -0.77978,-0.47333 -1.95834,-0.72532 -2.69887,-0.57705 -3.22326,-0.68278 -4.25553,-0.85795 -1.0634,-0.18047 -1.10754,-0.18231 -1.3251,-0.0554 -0.31231,0.18212 -0.55229,0.6962 -0.68851,1.47493 -0.28849,1.64934 -0.0537,2.42331 0.88515,2.91807 0.28695,0.15121 0.38988,0.15592 3.40722,0.15592 3.03673,0 3.11901,-0.004 3.4315,-0.1599 z m 17.54989,0.0629 c 0.1425,-0.049 0.32928,-0.19569 0.41864,-0.32862 0.28615,-0.42562 1.06886,-3.0753 1.06886,-3.61833 0,-0.34929 -0.16081,-0.65305 -0.47097,-0.88962 l -0.24839,-0.18945 -6.48258,0 -6.48258,0 -0.24839,0.18945 c -0.31405,0.23954 -0.47136,0.54171 -0.46958,0.902 0.003,0.54007 0.78523,3.18615 1.06563,3.60322 0.091,0.13542 0.27694,0.28191 0.42049,0.33135 0.36844,0.12691 11.06042,0.12691 11.42887,0 z m 12.95973,-0.0589 c 0.93887,-0.49477 1.17365,-1.26874 0.88514,-2.91808 -0.13663,-0.78113 -0.37631,-1.29286 -0.69168,-1.47679 -0.22199,-0.12948 -0.25924,-0.12779 -1.36222,0.0618 -0.62369,0.10716 -1.5015,0.27358 -1.9507,0.3698 -0.44919,0.0962 -1.3847,0.29611 -2.07891,0.4442 -0.69421,0.1481 -1.41255,0.33573 -1.59631,0.41695 -0.88634,0.39179 -1.24471,1.23966 -0.91398,2.16241 0.14087,0.39304 0.43284,0.70634 0.87576,0.93976 0.28699,0.15123 0.38973,0.15592 3.41645,0.15592 3.02672,0 3.12947,-0.005 3.41645,-0.15592 z m -18.01225,-14.2635 c 0.49592,-0.46763 1.18156,-1.12378 3.8241,-3.65968 2.28534,-2.19309 2.44553,-2.33905 2.61612,-2.38371 0.2398,-0.0627 0.54529,0.16852 0.54529,0.41284 0,0.23169 -0.1778,0.41307 -3.49625,3.56703 -2.28326,2.17006 -2.51775,2.39948 -2.51775,2.46317 0,0.0338 2.57595,0.0614 5.72434,0.0614 5.16507,0 5.74956,-0.0119 5.98244,-0.12247 0.32956,-0.1564 0.49023,-0.40364 0.48887,-0.75236 -7.9e-4,-0.28008 -0.054,-0.39855 -1.59693,-3.57998 -2.12972,-4.39119 -2.14154,-4.41042 -2.97952,-4.84841 l -0.45438,-0.2375 -8.79825,0 -8.79825,0 -0.45438,0.2375 c -0.82817,0.43287 -0.94163,0.61716 -2.96202,4.81128 -0.29508,0.61253 -0.77895,1.61487 -1.07528,2.22741 -0.57222,1.18282 -0.64168,1.49002 -0.41512,1.8358 0.29057,0.44347 -0.0195,0.42519 7.23927,0.42704 l 6.63878,0.002 0.48892,-0.46102 z"
         style="fill:#4d4d4d;fill-opacity:1" />
      <path
         inkscape:connector-curvature="0"
         id="path4821"
         d="m 268.51097,568.17168 c -0.88648,-0.42441 -1.64433,-1.18793 -3.0522,-3.07501 -0.55941,-0.74981 -0.98896,-1.69649 -1.06176,-2.33991 -0.0334,-0.2949 -0.0156,-0.40206 0.12142,-0.73091 0.21439,-0.51469 0.46973,-0.92006 0.8003,-1.27054 0.2144,-0.22733 2.67254,-2.29114 3.66209,-3.07463 0.10203,-0.0807 0.57518,-0.46952 1.05145,-0.86386 0.47627,-0.39435 0.98265,-0.81083 1.12528,-0.92552 0.36932,-0.29697 1.85837,-1.53146 2.00044,-1.65846 0.24266,-0.21693 0.84913,-0.54196 1.31127,-0.70277 0.44343,-0.15429 0.54598,-0.16621 1.49677,-0.17394 0.92323,-0.008 1.03997,-0.0202 1.22234,-0.1329 0.56162,-0.3471 0.6574,-0.60618 0.70964,-1.91937 0.0485,-1.21985 0.14453,-1.58454 0.40023,-1.52036 0.22769,0.0571 0.72309,0.46222 1.14514,0.93636 0.80938,0.9093 1.20569,1.17842 1.75146,1.18939 0.8932,0.0179 1.04674,-1.07216 0.29274,-2.07834 -0.62949,-0.84005 -2.0433,-2.50115 -2.27319,-2.6708 -0.3164,-0.23351 -0.72584,-0.37821 -1.20087,-0.42441 -0.28187,-0.0274 -0.41935,0.002 -0.98349,0.21017 -0.8358,0.30845 -1.80997,0.54488 -2.24549,0.54498 -0.39495,6e-5 -1.18171,-0.23027 -1.64074,-0.48041 -1.2072,-0.65783 -2.21832,-1.85129 -3.17664,-3.74949 -0.44678,-0.88495 -0.61935,-1.35039 -0.83936,-2.26393 -0.21089,-0.87564 -0.28033,-1.94385 -0.17927,-2.7574 0.11532,-0.92821 0.3619,-1.26813 0.91383,-1.25973 0.39742,0.006 0.56533,0.14274 1.57835,1.28486 2.85542,3.21934 2.68365,3.05593 3.40725,3.24131 0.47675,0.12214 0.87247,0.077 1.34846,-0.15381 0.80138,-0.3886 2.62684,-1.95522 2.99088,-2.56679 0.22583,-0.37937 0.32219,-0.89446 0.255,-1.36307 -0.085,-0.5928 -0.0909,-0.60218 -1.24988,-2.00145 -2.46575,-2.97687 -2.40878,-2.89824 -2.40878,-3.32452 0,-0.62405 0.28475,-0.81047 1.23795,-0.81047 1.75334,0 3.38787,0.63326 5.43191,2.10444 0.44287,0.31876 1.60243,1.45703 1.83852,1.80478 0.48141,0.70907 0.61582,0.94193 0.79263,1.37314 0.25976,0.63349 0.33655,1.06663 0.2993,1.68816 -0.0357,0.59547 -0.26739,1.24599 -0.76397,2.14478 -0.58951,1.06699 -0.55938,0.97555 -0.55938,1.69795 0,0.60698 0.0127,0.67953 0.17192,0.98302 0.27264,0.51961 2.03214,2.59325 2.43929,2.8748 0.49097,0.33949 1.23278,0.37345 1.73457,0.0793 0.14821,-0.0868 1.00048,-0.77696 1.89394,-1.53357 0.89345,-0.7566 2.20087,-1.85957 2.90537,-2.45103 2.01313,-1.69012 2.53908,-2.27165 2.77098,-3.06381 0.0727,-0.24823 0.17342,-0.39267 0.49872,-0.71492 0.44299,-0.43884 0.69311,-0.6266 1.73477,-1.30223 1.04875,-0.68024 1.12422,-0.71022 1.78732,-0.71003 0.47369,1.3e-4 0.60484,0.0218 0.80428,0.13269 0.3611,0.20082 0.4903,0.3323 0.66889,0.68068 0.13164,0.25679 0.1634,0.39917 0.16409,0.73547 0.002,0.70645 -0.19148,1.02331 -1.31821,2.16524 -1.25832,1.2753 -1.67699,1.55217 -2.44986,1.62012 -0.70513,0.062 -1.41771,0.47799 -2.64014,1.54125 -0.24838,0.21604 -0.567,0.48663 -0.70803,0.60132 -0.14104,0.11468 -0.55628,0.4632 -0.92276,0.7745 -0.36649,0.31129 -1.25431,1.05906 -1.97295,1.66173 -1.63525,1.37137 -1.90326,1.64623 -2.02987,2.08173 -0.11734,0.40366 -0.0826,0.90766 0.085,1.23554 0.0912,0.1784 2.30257,2.84692 2.71021,3.27054 0.04,0.0417 0.18342,0.20653 0.31859,0.36646 0.27673,0.32742 0.42609,0.50323 1.59588,1.8783 1.15062,1.35257 1.30876,1.51149 1.86542,1.87464 0.46059,0.30048 0.7568,0.4449 2.07192,1.01016 1.06913,0.45954 2.01418,1.22909 2.56301,2.08705 0.4799,0.75019 0.79064,1.75589 0.84357,2.73019 0.0758,1.39506 -0.52349,2.90323 -1.56569,3.94032 -2.0887,2.07844 -5.42303,2.08654 -7.53131,0.0183 -1.03754,-1.01784 -1.53903,-2.22763 -1.57737,-3.80521 -0.0325,-1.33876 -0.0131,-1.30521 -2.61889,-4.52105 -0.88644,-1.09396 -1.73235,-2.14398 -1.8798,-2.33338 -0.827,-1.06224 -1.71281,-2.11352 -1.94291,-2.30587 -0.85958,-0.71852 -1.76279,-0.4848 -1.76279,0.45615 0,0.40577 0.0787,0.58207 0.52963,1.18652 0.17885,0.23975 0.40361,0.60168 0.49946,0.80429 0.351,0.74193 0.31471,0.7545 -1.73587,0.60125 -0.44422,-0.0332 -0.54122,-0.0223 -0.75035,0.0844 -0.4689,0.23921 -0.79311,0.79997 -0.79592,1.37659 -0.003,0.70778 -0.43615,1.7809 -0.99492,2.46743 -0.11807,0.14505 -1.65167,1.46673 -2.46469,2.12409 -0.28245,0.22837 -3.06139,2.54712 -3.53967,2.95349 -1.15337,0.97998 -2.23112,1.82424 -2.6296,2.05988 -0.91354,0.54023 -1.73344,0.66316 -2.37487,0.35607 z m 28.79478,-2.60538 c 1.14227,-0.42606 1.87156,-1.47992 1.87156,-2.70448 0,-0.81296 -0.27578,-1.46321 -0.86842,-2.04762 -1.12346,-1.10786 -2.91465,-1.1037 -4.02771,0.009 -0.57478,0.57477 -0.84659,1.23153 -0.84659,2.04556 0,2.01706 1.98558,3.40048 3.87116,2.69717 z"
         style="fill:#4d4d4d;fill-opacity:1" />
    </g>
  </g>
</svg>
