<?xml version="1.0" encoding="UTF-8" standalone="no"?>
<!-- Created with Inkscape (http://www.inkscape.org/) -->

<svg
   xmlns:dc="http://purl.org/dc/elements/1.1/"
   xmlns:cc="http://creativecommons.org/ns#"
   xmlns:rdf="http://www.w3.org/1999/02/22-rdf-syntax-ns#"
   xmlns:svg="http://www.w3.org/2000/svg"
   xmlns="http://www.w3.org/2000/svg"
   xmlns:sodipodi="http://sodipodi.sourceforge.net/DTD/sodipodi-0.dtd"
   xmlns:inkscape="http://www.inkscape.org/namespaces/inkscape"
   width="13.104214mm"
   height="10.801838mm"
   viewBox="0 0 46.432254 38.274229"
   id="svg5722"
   version="1.1"
   inkscape:version="0.91 r13725"
   sodipodi:docname="icon-avto.svg">
  <defs
     id="defs5724" />
  <sodipodi:namedview
     id="base"
     pagecolor="#ffffff"
     bordercolor="#666666"
     borderopacity="1.0"
     inkscape:pageopacity="0.0"
     inkscape:pageshadow="2"
     inkscape:zoom="0.98994949"
     inkscape:cx="110.81853"
     inkscape:cy="183.7078"
     inkscape:document-units="px"
     inkscape:current-layer="layer1"
     showgrid="false"
     fit-margin-top="0"
     fit-margin-left="0"
     fit-margin-right="0"
     fit-margin-bottom="0"
     inkscape:window-width="1280"
     inkscape:window-height="971"
     inkscape:window-x="-8"
     inkscape:window-y="-8"
     inkscape:window-maximized="1" />
  <metadata
     id="metadata5727">
    <rdf:RDF>
      <cc:Work
         rdf:about="">
        <dc:format>image/svg+xml</dc:format>
        <dc:type
           rdf:resource="http://purl.org/dc/dcmitype/StillImage" />
        <dc:title></dc:title>
      </cc:Work>
    </rdf:RDF>
  </metadata>
  <g
     inkscape:label="Layer 1"
     inkscape:groupmode="layer"
     id="layer1"
     transform="translate(-214.55102,-530.6742)">
    <path
       style="fill:#4d4d4d;fill-opacity:1"
       d="m 216.2587,568.84953 c -0.77034,-0.30295 -1.18495,-0.67594 -1.49947,-1.34892 l -0.20821,-0.44548 0,-8.05578 0,-8.05577 0.20486,-0.65313 c 0.39288,-1.25258 0.44556,-1.32799 3.42778,-4.90699 0.44621,-0.53548 0.96781,-1.15737 1.15916,-1.38196 0.19132,-0.2246 0.57425,-0.84271 0.85094,-1.37357 0.27671,-0.53087 0.57794,-1.09885 0.66944,-1.2622 0.0915,-0.16334 0.34177,-0.63109 0.55618,-1.03945 0.21441,-0.40836 0.61566,-1.16011 0.89166,-1.67055 0.58446,-1.08094 2.77675,-5.19368 3.08702,-5.79125 0.57585,-1.1091 1.05431,-1.61006 1.89002,-1.97892 l 0.47888,-0.21136 9.98619,0 9.9862,0 0.47887,0.21136 c 0.81155,0.35819 1.29788,0.84606 1.78766,1.7933 0.36887,0.71343 2.76968,5.20755 3.42282,6.40727 0.36232,0.6655 0.65875,1.22506 0.65875,1.24346 0,0.0184 0.16187,0.32589 0.35972,0.6833 0.19784,0.3574 0.5882,1.08417 0.86746,1.61504 0.43346,0.824 0.67683,1.16738 1.6635,2.34712 3.3328,3.98491 3.37293,4.04148 3.77206,5.3154 l 0.20463,0.65313 0.0222,7.90728 c 0.0171,6.1012 7.9e-4,7.98298 -0.0695,8.23869 -0.20465,0.73995 -0.66895,1.29761 -1.36602,1.64065 -0.36755,0.18088 -0.37104,0.1811 -2.81815,0.1811 l -2.45014,0 -0.47028,-0.25496 c -0.51844,-0.28109 -0.88621,-0.67868 -1.14317,-1.23589 -0.16328,-0.35404 -0.16919,-0.44501 -0.19143,-2.9454 l -0.023,-2.58008 -14.6921,0 -14.6921,0 -0.023,2.58008 c -0.0222,2.50039 -0.0282,2.59136 -0.19142,2.9454 -0.27758,0.60193 -0.63418,0.97237 -1.21636,1.26362 l -0.52841,0.26436 -2.31024,-0.006 c -1.58705,-0.004 -2.37996,-0.0331 -2.53297,-0.0933 z m 9.659,-12.83146 c 1.07292,-0.53584 1.33559,-1.97031 0.50361,-2.7503 -0.32535,-0.30503 -0.77978,-0.47333 -1.95834,-0.72532 -2.69887,-0.57705 -3.22326,-0.68278 -4.25553,-0.85795 -1.0634,-0.18047 -1.10754,-0.18231 -1.3251,-0.0554 -0.31231,0.18212 -0.55229,0.6962 -0.68851,1.47493 -0.28849,1.64934 -0.0537,2.42331 0.88515,2.91807 0.28695,0.15121 0.38988,0.15592 3.40722,0.15592 3.03673,0 3.11901,-0.004 3.4315,-0.1599 z m 17.54989,0.0629 c 0.1425,-0.049 0.32928,-0.19569 0.41864,-0.32862 0.28615,-0.42562 1.06886,-3.0753 1.06886,-3.61833 0,-0.34929 -0.16081,-0.65305 -0.47097,-0.88962 l -0.24839,-0.18945 -6.48258,0 -6.48258,0 -0.24839,0.18945 c -0.31405,0.23954 -0.47136,0.54171 -0.46958,0.902 0.003,0.54007 0.78523,3.18615 1.06563,3.60322 0.091,0.13542 0.27694,0.28191 0.42049,0.33135 0.36844,0.12691 11.06042,0.12691 11.42887,0 z m 12.95973,-0.0589 c 0.93887,-0.49477 1.17365,-1.26874 0.88514,-2.91808 -0.13663,-0.78113 -0.37631,-1.29286 -0.69168,-1.47679 -0.22199,-0.12948 -0.25924,-0.12779 -1.36222,0.0618 -0.62369,0.10716 -1.5015,0.27358 -1.9507,0.3698 -0.44919,0.0962 -1.3847,0.29611 -2.07891,0.4442 -0.69421,0.1481 -1.41255,0.33573 -1.59631,0.41695 -0.88634,0.39179 -1.24471,1.23966 -0.91398,2.16241 0.14087,0.39304 0.43284,0.70634 0.87576,0.93976 0.28699,0.15123 0.38973,0.15592 3.41645,0.15592 3.02672,0 3.12947,-0.005 3.41645,-0.15592 z m -18.01225,-14.2635 c 0.49592,-0.46763 1.18156,-1.12378 3.8241,-3.65968 2.28534,-2.19309 2.44553,-2.33905 2.61612,-2.38371 0.2398,-0.0627 0.54529,0.16852 0.54529,0.41284 0,0.23169 -0.1778,0.41307 -3.49625,3.56703 -2.28326,2.17006 -2.51775,2.39948 -2.51775,2.46317 0,0.0338 2.57595,0.0614 5.72434,0.0614 5.16507,0 5.74956,-0.0119 5.98244,-0.12247 0.32956,-0.1564 0.49023,-0.40364 0.48887,-0.75236 -7.9e-4,-0.28008 -0.054,-0.39855 -1.59693,-3.57998 -2.12972,-4.39119 -2.14154,-4.41042 -2.97952,-4.84841 l -0.45438,-0.2375 -8.79825,0 -8.79825,0 -0.45438,0.2375 c -0.82817,0.43287 -0.94163,0.61716 -2.96202,4.81128 -0.29508,0.61253 -0.77895,1.61487 -1.07528,2.22741 -0.57222,1.18282 -0.64168,1.49002 -0.41512,1.8358 0.29057,0.44347 -0.0195,0.42519 7.23927,0.42704 l 6.63878,0.002 0.48892,-0.46102 z"
       id="path6281"
       inkscape:connector-curvature="0" />
  </g>
</svg>
