<?xml version="1.0" encoding="UTF-8" standalone="no"?>
<!-- Created with Inkscape (http://www.inkscape.org/) -->

<svg
   xmlns:dc="http://purl.org/dc/elements/1.1/"
   xmlns:cc="http://creativecommons.org/ns#"
   xmlns:rdf="http://www.w3.org/1999/02/22-rdf-syntax-ns#"
   xmlns:svg="http://www.w3.org/2000/svg"
   xmlns="http://www.w3.org/2000/svg"
   xmlns:sodipodi="http://sodipodi.sourceforge.net/DTD/sodipodi-0.dtd"
   xmlns:inkscape="http://www.inkscape.org/namespaces/inkscape"
   width="19.407253mm"
   height="19.119911mm"
   viewBox="0 0 68.765858 67.747716"
   id="svg5036"
   version="1.1"
   inkscape:version="0.91 r13725"
   sodipodi:docname="icon-add-to-container.svg">
  <defs
     id="defs5038" />
  <sodipodi:namedview
     id="base"
     pagecolor="#ffffff"
     bordercolor="#666666"
     borderopacity="1.0"
     inkscape:pageopacity="0.0"
     inkscape:pageshadow="2"
     inkscape:zoom="1.979899"
     inkscape:cx="-128.64348"
     inkscape:cy="57.627672"
     inkscape:document-units="px"
     inkscape:current-layer="layer1"
     showgrid="false"
     fit-margin-top="0"
     fit-margin-left="0"
     fit-margin-right="0"
     fit-margin-bottom="0"
     inkscape:window-width="1366"
     inkscape:window-height="719"
     inkscape:window-x="0"
     inkscape:window-y="25"
     inkscape:window-maximized="1" />
  <metadata
     id="metadata5041">
    <rdf:RDF>
      <cc:Work
         rdf:about="">
        <dc:format>image/svg+xml</dc:format>
        <dc:type
           rdf:resource="http://purl.org/dc/dcmitype/StillImage" />
        <dc:title></dc:title>
      </cc:Work>
    </rdf:RDF>
  </metadata>
  <g
     inkscape:label="Layer 1"
     inkscape:groupmode="layer"
     id="layer1"
     transform="translate(-77.15917,-503.4964)">
    <g
       inkscape:export-ydpi="150"
       inkscape:export-xdpi="150"
       inkscape:export-filename="/home/lonmadi/Рабочий стол/vida4a/vidacha_operator/23.png"
       transform="matrix(0.95114947,0,0,0.95114947,-1263.1717,287.15217)"
       id="g7862">
      <rect
         style="opacity:1;fill:#4d4d4d;fill-opacity:1;stroke:none;stroke-width:0.97363579;stroke-opacity:1"
         id="rect7864"
         width="72.075218"
         height="30.788795"
         x="1409.392"
         y="248.43057"
         ry="11.333528" />
      <circle
         style="opacity:1;fill:#4d4d4d;fill-opacity:1;stroke:none;stroke-opacity:1"
         id="circle7866"
         cx="1419.9292"
         cy="293.01599"
         r="5.6667638" />
      <circle
         r="5.6667638"
         cy="293.01599"
         cx="1427.9292"
         id="circle7868"
         style="opacity:1;fill:#4d4d4d;fill-opacity:1;stroke:none;stroke-opacity:1" />
      <circle
         style="opacity:1;fill:#4d4d4d;fill-opacity:1;stroke:none;stroke-opacity:1"
         id="circle7870"
         cx="1461.9292"
         cy="293.01599"
         r="5.6667638" />
      <circle
         r="5.6667638"
         cy="293.01599"
         cx="1469.9292"
         id="circle7872"
         style="opacity:1;fill:#4d4d4d;fill-opacity:1;stroke:none;stroke-opacity:1" />
      <rect
         style="opacity:1;fill:#4d4d4d;fill-opacity:1;stroke:none;stroke-opacity:1"
         id="rect7874"
         width="69.620239"
         height="8.095377"
         x="1410.9764"
         y="282.06342"
         ry="0" />
      <rect
         style="opacity:1;fill:#4d4d4d;fill-opacity:1;stroke:none;stroke-opacity:1"
         id="rect7876"
         width="4.8572259"
         height="17.809828"
         x="1449.501"
         y="233.11023"
         ry="0" />
      <rect
         ry="0"
         y="233.11023"
         x="1463.501"
         height="17.809828"
         width="4.8572259"
         id="rect7878"
         style="opacity:1;fill:#4d4d4d;fill-opacity:1;stroke:none;stroke-opacity:1" />
      <rect
         style="opacity:1;fill:#4d4d4d;fill-opacity:1;stroke:none;stroke-opacity:1"
         id="rect7880"
         width="4.8572259"
         height="11.333527"
         x="237.58653"
         y="-1464.3582"
         ry="0"
         transform="matrix(0,1,-1,0,0,0)" />
      <g
         id="g7882"
         transform="translate(69.096249,-46.143647)">
        <path
           inkscape:connector-curvature="0"
           id="path7884"
           d="m 1348.7621,273.5992 c -1.3174,0 -2.3779,1.06049 -2.3779,2.37798 0,1.31746 1.0605,2.37822 2.3779,2.37822 l 4.1675,0 c -0.032,0.13528 -0.051,0.27593 -0.051,0.42143 l 0,3.7858 -11.2962,0 c -0.5138,0 -1.0172,0.0415 -1.5091,0.11755 l 0,6.01072 12.8638,0 a 3.8415792,3.8415792 0 0 0 2.7769,1.18923 3.8415792,3.8415792 0 0 0 2.7726,-1.18923 l 2.6238,0 c 1.9256,0 3.4757,1.55013 3.4757,3.47567 l 7.4969,0 c -0.073,-5.3326 -4.3872,-9.60394 -9.7378,-9.60394 l -3.3386,0 0,-3.7858 c 0,-0.1455 -0.019,-0.28615 -0.051,-0.42143 l 4.4419,0 c 1.3174,0 2.3779,-1.06076 2.3779,-2.37822 0,-1.31749 -1.0605,-2.37798 -2.3779,-2.37798 l -14.6348,0 z"
           style="opacity:1;fill:#0496f9;fill-opacity:1;fill-rule:evenodd;stroke:none;stroke-width:1;stroke-miterlimit:4;stroke-dasharray:none;stroke-opacity:1" />
        <circle
           r="2.0271554"
           cy="295.93219"
           cx="1368.629"
           id="circle7886"
           style="opacity:1;fill:#0496f9;fill-opacity:1;fill-rule:evenodd;stroke:none;stroke-width:1;stroke-miterlimit:4;stroke-dasharray:none;stroke-opacity:1" />
        <circle
           style="opacity:1;fill:#0496f9;fill-opacity:1;fill-rule:evenodd;stroke:none;stroke-width:1;stroke-miterlimit:4;stroke-dasharray:none;stroke-opacity:1"
           id="circle7888"
           cx="1368.7739"
           cy="304.93857"
           r="3.0407336" />
      </g>
      <path
         inkscape:connector-curvature="0"
         style="opacity:1;fill:#0496f9;fill-opacity:1;stroke:none;stroke-width:0.97363579;stroke-opacity:1"
         d="m 1413.0137,13.482422 c 0.1924,5.479104 4.6539,9.835937 10.1816,9.835937 l 44.4688,0 c 5.5276,0 9.9892,-4.356833 10.1816,-9.835937 l -64.832,0 z"
         transform="translate(0,252.36235)"
         id="path7890" />
    </g>
  </g>
</svg>
