<?xml version="1.0" encoding="UTF-8" standalone="no"?>
<!-- Created with Inkscape (http://www.inkscape.org/) -->

<svg
   xmlns:dc="http://purl.org/dc/elements/1.1/"
   xmlns:cc="http://creativecommons.org/ns#"
   xmlns:rdf="http://www.w3.org/1999/02/22-rdf-syntax-ns#"
   xmlns:svg="http://www.w3.org/2000/svg"
   xmlns="http://www.w3.org/2000/svg"
   xmlns:sodipodi="http://sodipodi.sourceforge.net/DTD/sodipodi-0.dtd"
   xmlns:inkscape="http://www.inkscape.org/namespaces/inkscape"
   width="89.93"
   height="49.999954"
   viewBox="0 0 89.93 49.999955"
   id="svg4608"
   version="1.1"
   inkscape:version="0.91 r13725"
   sodipodi:docname="icon-use-card.svg">
  <defs
     id="defs4610" />
  <sodipodi:namedview
     id="base"
     pagecolor="#ffffff"
     bordercolor="#666666"
     borderopacity="1.0"
     inkscape:pageopacity="0.0"
     inkscape:pageshadow="2"
     inkscape:zoom="2.8"
     inkscape:cx="5.5249973"
     inkscape:cy="-24.276921"
     inkscape:document-units="px"
     inkscape:current-layer="layer1"
     showgrid="false"
     fit-margin-top="0"
     fit-margin-left="0"
     fit-margin-right="0"
     fit-margin-bottom="0"
     inkscape:window-width="1366"
     inkscape:window-height="719"
     inkscape:window-x="0"
     inkscape:window-y="0"
     inkscape:window-maximized="1"
     units="px" />
  <metadata
     id="metadata4613">
    <rdf:RDF>
      <cc:Work
         rdf:about="">
        <dc:format>image/svg+xml</dc:format>
        <dc:type
           rdf:resource="http://purl.org/dc/dcmitype/StillImage" />
        <dc:title></dc:title>
      </cc:Work>
    </rdf:RDF>
  </metadata>
  <g
     inkscape:label="Layer 1"
     inkscape:groupmode="layer"
     id="layer1"
     transform="translate(-712.17785,-60.219337)">
    <g
       id="g5194"
       transform="matrix(0.66210212,0,0,0.66210212,255.83696,22.174381)">
      <g
         transform="matrix(0.84196763,0,0,0.84196763,422.42044,-337.47565)"
         id="g4948">
        <path
           style="fill:#666666;fill-rule:evenodd;stroke:none;stroke-width:1px;stroke-linecap:butt;stroke-linejoin:miter;stroke-opacity:1"
           d="m 471.25876,558.75484 c 2.92443,-14.00683 12.48137,-34.94445 2.53006,-44.46045 -5.69014,-5.12114 -18.20844,-21.62253 -18.20844,-21.62253 0,0 -1.13802,-1.13803 -3.98309,-0.56902 -2.84508,0.56902 -8.53521,1.13804 -8.53521,1.13804 l -7.39718,2.27605 1.70704,51.78024 7.39718,10.24226 z"
           id="path4524"
           inkscape:connector-curvature="0"
           sodipodi:nodetypes="cccsccccc" />
        <rect
           style="opacity:1;fill:#ffffff;fill-opacity:1;fill-rule:evenodd;stroke:none;stroke-width:1.5;stroke-miterlimit:4;stroke-dasharray:none;stroke-dashoffset:0;stroke-opacity:1"
           id="rect4714"
           width="48.036316"
           height="72.193748"
           x="404.56766"
           y="483.77289" />
        <path
           style="opacity:1;fill:#0496f9;fill-opacity:1;fill-rule:evenodd;stroke:none;stroke-width:1.5;stroke-miterlimit:4;stroke-dasharray:none;stroke-dashoffset:0;stroke-opacity:1"
           d="m 454.65415,485.871 c 0,-2.08002 -1.84829,-3.75361 -4.14338,-3.75361 l -43.49971,0 c -2.2951,0 -4.14174,1.67359 -4.14174,3.75361 l 0,68.20776 c 0,2.08002 1.84664,3.75509 4.14174,3.75509 l 43.49971,0 c 2.29509,0 4.14338,-1.67507 4.14338,-3.75509 z m -4.16627,0.89173 0,66.42577 c 0,0.63555 -0.5638,1.14653 -1.26508,1.14653 l -22.39382,0 0,-68.7203 22.39382,0 c 0.70128,0 1.26508,0.51246 1.26508,1.148 z m -36.87684,-1.148 0,68.7203 -5.31038,0 c -0.70127,0 -1.26672,-0.51098 -1.26672,-1.14653 l 0,-66.42577 c 0,-0.63554 0.56545,-1.148 1.26672,-1.148 z"
           id="path4716"
           inkscape:connector-curvature="0"
           sodipodi:nodetypes="ssssssssssssccssccssssc" />
        <path
           style="fill:#666666;fill-rule:evenodd;stroke:none;stroke-width:1px;stroke-linecap:butt;stroke-linejoin:miter;stroke-opacity:1"
           d="m 455.01137,525.10564 c 0,0 -21.05351,-22.19154 -24.46759,-22.76056 -3.41409,-0.56901 -7.55743,1.14349 -8.69545,6.83363 -1.13803,5.69013 15.53453,20.97612 15.53453,20.97612 0,0 0.65734,11.79452 2.36438,15.77761 1.70703,3.9831 4.85563,12.00975 4.85563,12.00975 l 10.39972,-0.37007 z"
           id="path4526"
           inkscape:connector-curvature="0"
           sodipodi:nodetypes="csscsccc" />
      </g>
      <path
         sodipodi:nodetypes="cccccc"
         inkscape:connector-curvature="0"
         id="rect5174"
         d="m 744.25097,67.131308 2.92651,0 0,65.846532 -5.4872,0 0,-41.839982 z"
         style="opacity:1;fill:#666666;fill-opacity:1;fill-rule:evenodd;stroke:none;stroke-width:1.5;stroke-miterlimit:4;stroke-dasharray:none;stroke-dashoffset:0;stroke-opacity:1" />
      <path
         sodipodi:nodetypes="sssssssss"
         inkscape:connector-curvature="0"
         id="rect5183"
         d="m 693.83888,57.460858 41.44224,0 c 2.55101,0 4.69649,2.05535 4.60469,4.60469 l -2.38743,66.307592 c -0.0918,2.54936 -2.0537,4.6047 -4.60469,4.6047 l -36.26947,0 c -2.55099,0 -4.49762,-2.05595 -4.60469,-4.6047 l -2.78534,-66.307592 c -0.10707,-2.54874 2.05369,-4.60469 4.60469,-4.60469 z"
         style="opacity:1;fill:#666666;fill-opacity:1;fill-rule:evenodd;stroke:none;stroke-width:1.5;stroke-miterlimit:4;stroke-dasharray:none;stroke-dashoffset:0;stroke-opacity:1" />
      <g
         id="g6878"
         transform="matrix(0.85981313,0,0,0.85981313,307.10704,-436.3743)">
        <rect
           ry="0"
           y="613.21466"
           x="453.16333"
           height="12.006891"
           width="12.006891"
           id="rect6880"
           style="opacity:1;fill:#0496f9;fill-opacity:1;fill-rule:evenodd;stroke:none;stroke-width:1.5;stroke-miterlimit:4;stroke-dasharray:none;stroke-dashoffset:0;stroke-opacity:1" />
        <rect
           style="opacity:1;fill:#0496f9;fill-opacity:1;fill-rule:evenodd;stroke:none;stroke-width:1.5;stroke-miterlimit:4;stroke-dasharray:none;stroke-dashoffset:0;stroke-opacity:1"
           id="rect6882"
           width="12.006891"
           height="12.006891"
           x="467.88147"
           y="613.21466"
           ry="0" />
        <rect
           ry="0"
           y="613.21466"
           x="482.59961"
           height="12.006891"
           width="12.006891"
           id="rect6884"
           style="opacity:1;fill:#0496f9;fill-opacity:1;fill-rule:evenodd;stroke:none;stroke-width:1.5;stroke-miterlimit:4;stroke-dasharray:none;stroke-dashoffset:0;stroke-opacity:1" />
        <rect
           style="opacity:1;fill:#0496f9;fill-opacity:1;fill-rule:evenodd;stroke:none;stroke-width:1.5;stroke-miterlimit:4;stroke-dasharray:none;stroke-dashoffset:0;stroke-opacity:1"
           id="rect6886"
           width="12.006891"
           height="12.006891"
           x="453.16333"
           y="627.54547"
           ry="0" />
        <rect
           ry="0"
           y="627.54547"
           x="467.88147"
           height="12.006891"
           width="12.006891"
           id="rect6888"
           style="opacity:1;fill:#0496f9;fill-opacity:1;fill-rule:evenodd;stroke:none;stroke-width:1.5;stroke-miterlimit:4;stroke-dasharray:none;stroke-dashoffset:0;stroke-opacity:1" />
        <rect
           style="opacity:1;fill:#0496f9;fill-opacity:1;fill-rule:evenodd;stroke:none;stroke-width:1.5;stroke-miterlimit:4;stroke-dasharray:none;stroke-dashoffset:0;stroke-opacity:1"
           id="rect6890"
           width="12.006891"
           height="12.006891"
           x="482.59961"
           y="627.54547"
           ry="0" />
        <rect
           ry="0"
           y="641.87628"
           x="453.16333"
           height="12.006891"
           width="12.006891"
           id="rect6892"
           style="opacity:1;fill:#0496f9;fill-opacity:1;fill-rule:evenodd;stroke:none;stroke-width:1.5;stroke-miterlimit:4;stroke-dasharray:none;stroke-dashoffset:0;stroke-opacity:1" />
        <rect
           style="opacity:1;fill:#0496f9;fill-opacity:1;fill-rule:evenodd;stroke:none;stroke-width:1.5;stroke-miterlimit:4;stroke-dasharray:none;stroke-dashoffset:0;stroke-opacity:1"
           id="rect6894"
           width="12.006891"
           height="12.006891"
           x="467.88147"
           y="641.87628"
           ry="0" />
        <rect
           ry="0"
           y="641.87628"
           x="482.59961"
           height="12.006891"
           width="12.006891"
           id="rect6896"
           style="opacity:1;fill:#0496f9;fill-opacity:1;fill-rule:evenodd;stroke:none;stroke-width:1.5;stroke-miterlimit:4;stroke-dasharray:none;stroke-dashoffset:0;stroke-opacity:1" />
      </g>
    </g>
  </g>
</svg>
