<?xml version="1.0" encoding="UTF-8" standalone="no"?>
<!-- Created with Inkscape (http://www.inkscape.org/) -->

<svg
   xmlns:dc="http://purl.org/dc/elements/1.1/"
   xmlns:cc="http://creativecommons.org/ns#"
   xmlns:rdf="http://www.w3.org/1999/02/22-rdf-syntax-ns#"
   xmlns:svg="http://www.w3.org/2000/svg"
   xmlns="http://www.w3.org/2000/svg"
   xmlns:sodipodi="http://sodipodi.sourceforge.net/DTD/sodipodi-0.dtd"
   xmlns:inkscape="http://www.inkscape.org/namespaces/inkscape"
   width="25.86253mm"
   height="14.775727mm"
   viewBox="0 0 91.638884 52.35494"
   id="svg5066"
   version="1.1"
   inkscape:version="0.91 r13725"
   sodipodi:docname="icon-vizor.svg">
  <defs
     id="defs5068" />
  <sodipodi:namedview
     id="base"
     pagecolor="#ffffff"
     bordercolor="#666666"
     borderopacity="1.0"
     inkscape:pageopacity="0.0"
     inkscape:pageshadow="2"
     inkscape:zoom="2.8022141"
     inkscape:cx="88.238422"
     inkscape:cy="5.5090988"
     inkscape:document-units="px"
     inkscape:current-layer="layer1"
     showgrid="false"
     fit-margin-top="0"
     fit-margin-left="0"
     fit-margin-right="0"
     fit-margin-bottom="0"
     inkscape:window-width="1280"
     inkscape:window-height="971"
     inkscape:window-x="-8"
     inkscape:window-y="-8"
     inkscape:window-maximized="1" />
  <metadata
     id="metadata5071">
    <rdf:RDF>
      <cc:Work
         rdf:about="">
        <dc:format>image/svg+xml</dc:format>
        <dc:type
           rdf:resource="http://purl.org/dc/dcmitype/StillImage" />
        <dc:title></dc:title>
      </cc:Work>
    </rdf:RDF>
  </metadata>
  <g
     inkscape:label="Layer 1"
     inkscape:groupmode="layer"
     id="layer1"
     transform="translate(-134.37043,-620.74482)">
    <g
       id="g5073"
       transform="matrix(0.52442981,0,0,0.52442984,133.09149,758.01436)"
       inkscape:export-filename="/home/aproken/Рабочий стол/vida4a/vidacha_operator/61.png"
       inkscape:export-xdpi="150"
       inkscape:export-ydpi="150">
      <path
         inkscape:connector-curvature="0"
         id="path4251-9"
         d="m 89.470981,-248.17114 c -20.907923,0 -37.875,16.93583 -37.875,37.84375 0,20.90792 16.967077,37.875 37.875,37.875 20.907919,0 37.843749,-16.96708 37.843749,-37.875 0,-20.90792 -16.93583,-37.84375 -37.843749,-37.84375 z m 0,2.5 c 19.527209,0 35.343749,15.81654 35.343749,35.34375 0,19.52721 -15.81654,35.375 -35.343749,35.375 -19.527211,0 -35.375,-15.84779 -35.375,-35.375 0,-19.52721 15.847789,-35.34375 35.375,-35.34375 z"
         style="fill:#4d4d4d;fill-opacity:1;stroke:none" />
      <path
         inkscape:connector-curvature="0"
         id="path5037-3"
         d="m 89.455359,-241.91445 c -3.592467,0 -7.041751,0.58785 -10.259487,1.69184 l 22.037278,24.01109 0.95438,-23.03503 c -3.895802,-1.71484 -8.207387,-2.6679 -12.732171,-2.6679 z m -13.100905,2.84143 c -6.851405,3.12515 -12.37697,8.61972 -15.5519,15.44344 l 31.472535,1.01945 -15.920635,-16.46289 z m 28.088856,0.93267 -1.14958,31.92804 15.92064,-14.74937 c -2.64458,-7.39541 -7.95064,-13.5012 -14.77106,-17.17867 z m -44.638509,16.85332 c -1.266145,3.41893 -1.952127,7.11571 -1.952127,10.97527 0,3.47321 0.570239,6.80823 1.605081,9.93412 l 21.299812,-19.93333 -20.952766,-0.97606 z m 60.450699,3.81748 -22.340952,20.2153 19.759802,1.17128 c 2.16011,-4.27667 3.38369,-9.10971 3.38369,-14.22879 l 0,-0.58564 c -0.0415,-2.2543 -0.31414,-4.45871 -0.80254,-6.57215 z m -45.137392,6.11666 -14.554148,13.83836 c 2.698491,6.08576 7.266564,11.15179 12.970764,14.48908 l 1.583384,-28.32744 z m 3.080012,12.29836 -0.802536,17.93782 c 3.718135,1.53715 7.785896,2.40762 12.059775,2.40762 2.228049,0 4.409357,-0.23395 6.507071,-0.67239 l -17.76431,-19.67305 z m 10.237798,5.11889 12.233292,13.16598 c 6.27889,-2.3836 11.5963,-6.69742 15.22655,-12.23329 l -27.459842,-0.93269 z"
         style="fill:#0496f9;fill-opacity:1;stroke:none" />
      <path
         sodipodi:nodetypes="cscsc"
         inkscape:connector-curvature="0"
         id="path5065-3"
         d="m 3.5714285,-209.82326 c 0,0 25.8733935,-51.9268 86.9972935,-51.9268 61.123898,0 85.217358,51.9268 85.217358,51.9268 0,0 -19.05892,-39.74805 -86.79081,-39.74805 -67.731891,0 -85.4238415,39.74805 -85.4238415,39.74805 z"
         style="fill:#4d4d4d;fill-opacity:1;stroke:none" />
      <path
         style="fill:#4d4d4d;fill-opacity:1;stroke:none"
         d="m 2.4387238,-209.82326 c 0,0 26.8835462,47.90531 88.0074462,47.90531 61.1239,0 86.73259,-47.90531 86.73259,-47.90531 0,0 -20.57415,38.75702 -88.306042,38.75702 -67.731891,0 -86.4339942,-38.75702 -86.4339942,-38.75702 z"
         id="path5069-8"
         inkscape:connector-curvature="0"
         sodipodi:nodetypes="cscsc" />
    </g>
  </g>
</svg>
