<?xml version="1.0" encoding="UTF-8" standalone="no"?>
<!-- Created with Inkscape (http://www.inkscape.org/) -->

<svg
   xmlns:dc="http://purl.org/dc/elements/1.1/"
   xmlns:cc="http://creativecommons.org/ns#"
   xmlns:rdf="http://www.w3.org/1999/02/22-rdf-syntax-ns#"
   xmlns:svg="http://www.w3.org/2000/svg"
   xmlns="http://www.w3.org/2000/svg"
   xmlns:sodipodi="http://sodipodi.sourceforge.net/DTD/sodipodi-0.dtd"
   xmlns:inkscape="http://www.inkscape.org/namespaces/inkscape"
   width="14.454576mm"
   height="14.111079mm"
   viewBox="0 0 51.216999 49.999887"
   id="svg5066"
   version="1.1"
   inkscape:version="0.91 r13725"
   sodipodi:docname="icon-oil-setting.svg">
  <defs
     id="defs5068">
    <filter
       inkscape:collect="always"
       style="color-interpolation-filters:sRGB"
       id="filter4934"
       x="-0.11659532"
       width="1.2331907"
       y="-0.085117035"
       height="1.1702341">
      <feGaussianBlur
         inkscape:collect="always"
         stdDeviation="1.8182477"
         id="feGaussianBlur4936" />
    </filter>
  </defs>
  <sodipodi:namedview
     id="base"
     pagecolor="#ffffff"
     bordercolor="#666666"
     borderopacity="1.0"
     inkscape:pageopacity="0.0"
     inkscape:pageshadow="2"
     inkscape:zoom="1.3544871"
     inkscape:cx="-178.53395"
     inkscape:cy="82.483758"
     inkscape:document-units="px"
     inkscape:current-layer="layer1"
     showgrid="false"
     fit-margin-top="0"
     fit-margin-left="0"
     fit-margin-right="0"
     fit-margin-bottom="0"
     inkscape:window-width="1366"
     inkscape:window-height="719"
     inkscape:window-x="0"
     inkscape:window-y="25"
     inkscape:window-maximized="1" />
  <metadata
     id="metadata5071">
    <rdf:RDF>
      <cc:Work
         rdf:about="">
        <dc:format>image/svg+xml</dc:format>
        <dc:type
           rdf:resource="http://purl.org/dc/dcmitype/StillImage" />
        <dc:title></dc:title>
      </cc:Work>
    </rdf:RDF>
  </metadata>
  <g
     inkscape:label="Layer 1"
     inkscape:groupmode="layer"
     id="layer1"
     transform="translate(-537.11518,-393.98728)">
    <g
       transform="matrix(0.60752514,0,0,0.60752514,140.09507,143.081)"
       id="g5706">
      <path
         inkscape:connector-curvature="0"
         id="path5994"
         d="m 701.93688,412.99736 c -1.5539,0 -2.31851,1.32871 -2.80496,2.80473 l -1.30896,3.97445 c -0.0719,0.2141 -0.0925,0.42475 -0.0719,0.62899 a 25.94734,25.94734 0 0 0 -4.59044,1.94702 c -0.12669,-0.13492 -0.27746,-0.25316 -0.45766,-0.34387 l -3.7371,-1.88057 c -0.69371,-0.34808 -1.4114,-0.62109 -2.09242,-0.66981 -0.68103,-0.0489 -1.32471,0.12745 -1.87384,0.67753 l -5.28485,5.29501 c -1.09552,1.10004 -0.69369,2.57995 0,3.96679 l 1.88791,3.73285 c 0.15074,0.29906 0.37308,0.51588 0.63547,0.66733 a 25.94734,25.94734 0 0 0 -1.51382,3.88493 c -0.0376,0 -0.0685,-0.006 -0.1062,-0.0117 -0.17814,-0.006 -0.35969,0.0205 -0.54436,0.0816 l -3.97447,1.30905 c -1.47614,0.48628 -2.80462,1.25202 -2.80462,2.80606 l 0,7.47971 c 0,1.55412 1.32848,2.31853 2.80462,2.80478 l 3.97447,1.30904 c 0.32203,0.10646 0.6389,0.10115 0.93592,0.0206 a 25.94734,25.94734 0 0 0 1.39494,3.31611 c -0.34564,0.14868 -0.63648,0.39542 -0.82217,0.76444 l -1.88069,3.73666 c -0.69611,1.38836 -1.09383,2.87046 0,3.96809 l 5.29509,5.2835 c 1.10033,1.09545 2.57989,0.69392 3.96696,-0.006 l 3.73401,-1.88823 c 0.2946,-0.15041 0.51078,-0.36939 0.66217,-0.62895 a 25.94734,25.94734 0 0 0 4.15197,1.75395 c -0.0342,0.23397 -0.0342,0.4768 0.0615,0.72481 l 1.30896,3.97323 c 0.4868,1.47599 1.25106,2.80599 2.80495,2.80599 l 7.48139,0 c 1.55355,0 2.31817,-1.33 2.80463,-2.80599 l 1.30929,-3.97323 c 0.072,-0.21409 0.0925,-0.42338 0.072,-0.62765 a 25.94734,25.94734 0 0 0 4.41162,-1.86007 c 0.13698,0.16993 0.30832,0.31621 0.52415,0.42443 l 3.73809,1.87916 c 1.3881,0.69617 2.86903,1.09391 3.96697,-0.006 l 5.2831,-5.2951 c 1.0952,-1.1001 0.69508,-2.57999 0,-3.9668 l -1.88823,-3.73415 c -0.14725,-0.28739 -0.35764,-0.49865 -0.6067,-0.64943 a 25.94734,25.94734 0 0 0 1.52069,-3.84277 c 0.23293,0.0342 0.47719,0.0171 0.7252,-0.0645 l 3.97312,-1.3091 c 1.47614,-0.48628 2.80565,-1.25075 2.80565,-2.80473 l 0,-7.48114 c 0,-1.55402 -1.32951,-2.31841 -2.80565,-2.80468 l -3.97312,-1.30903 c -0.18499,-0.061 -0.36725,-0.0874 -0.54469,-0.0833 -0.1062,0 -0.20896,0.0206 -0.31516,0.0432 a 25.94734,25.94734 0 0 0 -1.40111,-3.38253 c 0.161,-0.13571 0.29801,-0.3018 0.40492,-0.50886 l 1.88105,-3.73666 c 0.69782,-1.38835 1.09623,-2.87043 0,-3.96809 l -5.29715,-5.2835 c -0.54983,-0.54769 -1.19386,-0.7208 -1.87489,-0.66986 -0.68103,0.0511 -1.39836,0.32579 -2.09138,0.67621 l -3.733,1.8895 c -0.11995,0.0628 -0.22609,0.13903 -0.32543,0.22234 a 25.94734,25.94734 0 0 0 -4.14682,-1.7501 c 0.0342,-0.23397 0.0342,-0.47798 -0.0685,-0.72614 l -1.30932,-3.97442 c -0.48609,-1.47607 -1.25039,-2.80472 -2.8046,-2.80472 l -7.48105,0 z m 3.62404,20.10506 a 12.038631,12.038631 0 0 1 12.03858,12.03831 12.038631,12.038631 0 0 1 -12.03858,12.03849 12.038631,12.038631 0 0 1 -12.03994,-12.03849 12.038631,12.038631 0 0 1 12.03994,-12.03831 z"
         style="fill:#b3b3b3;fill-opacity:1"
         inkscape:export-filename="/home/lonmadi/Рабочий стол/vida4a/vidacha_operator/20.png"
         inkscape:export-xdpi="150"
         inkscape:export-ydpi="150" />
      <g
         inkscape:export-ydpi="150"
         inkscape:export-xdpi="150"
         transform="matrix(0.81805192,0,0,0.81805192,293.53313,46.864092)"
         id="g6191">
        <g
           id="g6055"
           transform="matrix(1.0651314,0,0,1.0651314,-28.919683,-34.95913)">
          <g
             inkscape:export-ydpi="150"
             inkscape:export-xdpi="150"
             inkscape:export-filename="/home/aproken/Рабочий стол/vida4a/vida4a13.png"
             style="opacity:0.63599997;fill:#4d4d4d;filter:url(#filter4934)"
             id="g6004"
             transform="matrix(1.0219886,0,0,1.0219886,345.90408,187.21121)">
            <ellipse
               ry="6.6204739"
               rx="18.653244"
               cy="303.50067"
               cx="115.48083"
               id="ellipse6006"
               style="fill:#4d4d4d;fill-opacity:1;fill-rule:evenodd;stroke:none" />
            <rect
               y="303.3988"
               x="97.707771"
               height="36.769093"
               width="35.621677"
               id="rect6008"
               style="fill:#4d4d4d;fill-opacity:1;fill-rule:evenodd;stroke:none" />
            <ellipse
               style="fill:#4d4d4d;fill-opacity:1;fill-rule:evenodd;stroke:none"
               id="ellipse6010"
               cx="115.36047"
               cy="341.52789"
               rx="18.653244"
               ry="6.6204739" />
            <ellipse
               style="fill:#4d4d4d;fill-opacity:1;fill-rule:evenodd;stroke:none"
               id="ellipse6012"
               cx="115.42064"
               cy="303.55157"
               rx="16.426889"
               ry="4.7361846" />
            <path
               style="fill:#4d4d4d;fill-opacity:1;fill-rule:evenodd;stroke:none"
               d="m 132.99338,340.67758 a 17.811725,4.8084377 0 0 1 -17.75575,4.50709 17.811725,4.8084377 0 0 1 -17.536794,-3.97471 17.811725,6.2072454 0 0 0 17.659044,5.45725 17.811725,6.2072454 0 0 0 17.79068,-5.98963 l -0.15718,0 z"
               id="path6014"
               inkscape:connector-curvature="0" />
            <ellipse
               ry="6.6204739"
               rx="18.653244"
               cy="322.7529"
               cx="115.36047"
               id="ellipse6016"
               style="fill:#4d4d4d;fill-opacity:1;fill-rule:evenodd;stroke:none" />
            <path
               inkscape:connector-curvature="0"
               id="path6018"
               d="m 132.99338,321.90262 a 17.811725,4.8084377 0 0 1 -17.75575,4.50708 17.811725,4.8084377 0 0 1 -17.536794,-3.9747 17.811725,6.2072454 0 0 0 17.659044,5.45724 17.811725,6.2072454 0 0 0 17.79068,-5.98962 l -0.15718,0 z"
               style="fill:#4d4d4d;fill-opacity:1;fill-rule:evenodd;stroke:none" />
            <ellipse
               ry="1.2222413"
               rx="2.7077289"
               cy="303.09326"
               cx="106.39493"
               id="ellipse6020"
               style="fill:#4d4d4d;fill-opacity:1;fill-rule:evenodd;stroke:none" />
          </g>
          <ellipse
             ry="6.766048"
             rx="19.063402"
             cy="495.44534"
             cx="463.57147"
             id="ellipse6022"
             style="fill:#4d4d4d;fill-opacity:1;fill-rule:evenodd;stroke:none" />
          <rect
             y="495.34116"
             x="445.40765"
             height="37.577591"
             width="36.404945"
             id="rect6024"
             style="fill:#4d4d4d;fill-opacity:1;fill-rule:evenodd;stroke:none" />
          <ellipse
             style="fill:#4d4d4d;fill-opacity:1;fill-rule:evenodd;stroke:none"
             id="ellipse6026"
             cx="463.44849"
             cy="534.30859"
             rx="19.063402"
             ry="6.766048" />
          <ellipse
             ry="6.766048"
             rx="19.063402"
             cy="515.12073"
             cx="463.44849"
             id="ellipse6028"
             style="fill:#4d4d4d;fill-opacity:1;fill-rule:evenodd;stroke:none" />
        </g>
        <g
           inkscape:export-ydpi="150"
           inkscape:export-xdpi="150"
           inkscape:export-filename="/home/aproken/Рабочий стол/vida4a/vida4a13.png"
           id="g6121"
           transform="matrix(1.1837307,0,0,1.1837307,276.64927,144.28017)">
          <circle
             r="9.2392225"
             cy="316.36078"
             cx="159.24715"
             id="circle6123"
             style="fill:#ffffff;fill-opacity:1;fill-rule:evenodd;stroke:none" />
          <path
             sodipodi:nodetypes="ccccccccccc"
             inkscape:connector-curvature="0"
             id="path6125"
             d="m 159.19906,309.83061 c 0,0 -1.28082,2.59635 -1.9263,3.89127 -0.59311,1.22596 -1.44094,2.76479 -1.88311,3.87684 -0.12908,0.40016 -0.1951,0.81799 -0.19572,1.23848 -2.2e-4,2.23854 1.81415,4.05342 4.05269,4.05381 2.23894,2.3e-4 4.05399,-1.81488 4.05376,-4.05381 -0.0569,-0.62776 -0.1682,-1.29583 -0.43566,-1.82678 -0.006,-0.009 -0.008,-0.0176 -0.013,-0.0266 -0.29621,-0.57403 -1.13022,-2.18809 -1.69078,-3.28531 -0.65743,-1.287 -1.96163,-3.86801 -1.96163,-3.86801 z"
             style="fill:#4d4d4d;fill-opacity:1;fill-rule:evenodd;stroke:none" />
          <path
             style="fill:#ffffff;fill-opacity:1;fill-rule:evenodd;stroke:none"
             d="m 159.21712,312.21567 0.01,9.90531 c 0,0 4.49072,-0.84324 2.61243,-4.77075 -1.87824,-3.92751 -2.62211,-5.13456 -2.62211,-5.13456 z"
             id="path6127"
             inkscape:connector-curvature="0"
             sodipodi:nodetypes="cczc" />
        </g>
      </g>
    </g>
  </g>
</svg>
