<?xml version="1.0" encoding="UTF-8" standalone="no"?>
<!-- Created with Inkscape (http://www.inkscape.org/) -->

<svg
   xmlns:dc="http://purl.org/dc/elements/1.1/"
   xmlns:cc="http://creativecommons.org/ns#"
   xmlns:rdf="http://www.w3.org/1999/02/22-rdf-syntax-ns#"
   xmlns:svg="http://www.w3.org/2000/svg"
   xmlns="http://www.w3.org/2000/svg"
   xmlns:sodipodi="http://sodipodi.sourceforge.net/DTD/sodipodi-0.dtd"
   xmlns:inkscape="http://www.inkscape.org/namespaces/inkscape"
   width="20.678684mm"
   height="19.474741mm"
   viewBox="0 0 73.270928 69.004987"
   id="svg5036"
   version="1.1"
   inkscape:version="0.91 r13725"
   sodipodi:docname="icon-main-setting.svg">
  <defs
     id="defs5038" />
  <sodipodi:namedview
     id="base"
     pagecolor="#ffffff"
     bordercolor="#666666"
     borderopacity="1.0"
     inkscape:pageopacity="0.0"
     inkscape:pageshadow="2"
     inkscape:zoom="0.35"
     inkscape:cx="-65.507395"
     inkscape:cy="40.216785"
     inkscape:document-units="px"
     inkscape:current-layer="layer1"
     showgrid="false"
     fit-margin-top="0"
     fit-margin-left="0"
     fit-margin-right="0"
     fit-margin-bottom="0"
     inkscape:window-width="1366"
     inkscape:window-height="719"
     inkscape:window-x="0"
     inkscape:window-y="25"
     inkscape:window-maximized="1" />
  <metadata
     id="metadata5041">
    <rdf:RDF>
      <cc:Work
         rdf:about="">
        <dc:format>image/svg+xml</dc:format>
        <dc:type
           rdf:resource="http://purl.org/dc/dcmitype/StillImage" />
        <dc:title></dc:title>
      </cc:Work>
    </rdf:RDF>
  </metadata>
  <g
     inkscape:label="Layer 1"
     inkscape:groupmode="layer"
     id="layer1"
     transform="translate(5.2068907,-503.574)">
    <g
       id="g6689"
       transform="translate(-449.61029,189.94066)">
      <path
         inkscape:connector-curvature="0"
         id="path6687"
         d="m 473.88922,313.7177 c -1.14722,-0.35288 -2.01348,0.45447 -2.7078,1.43372 l -1.86895,2.63706 c -0.10176,0.14173 -0.1648,0.29258 -0.19598,0.44804 a 20.042484,20.042484 0 0 0 -3.83122,0.39503 c -0.0629,-0.1285 -0.14738,-0.24991 -0.25981,-0.35782 l -2.33202,-2.23707 c -0.4331,-0.41452 -0.90097,-0.77905 -1.39269,-0.96969 -0.4917,-0.19079 -1.00696,-0.20678 -1.53733,0.0747 l -5.10419,2.70914 c -1.05863,0.56337 -1.09804,1.74721 -0.90083,2.92866 l 0.54613,3.18466 c 0.0435,0.25505 0.15827,0.46557 0.31762,0.63699 a 20.042484,20.042484 0 0 0 -1.99988,2.52446 c -0.0278,-0.009 -0.0491,-0.0203 -0.076,-0.0318 -0.13006,-0.0452 -0.27023,-0.0666 -0.42042,-0.0634 l -3.2316,0.0639 c -1.20027,0.0238 -2.35497,0.28746 -2.70788,1.43478 l -1.69858,5.52222 c -0.35293,1.14741 0.45428,2.01344 1.4337,2.70767 l 2.63704,1.86904 c 0.21359,0.1517 0.44877,0.21964 0.68633,0.22764 a 20.042484,20.042484 0 0 0 0.27681,2.76505 c -0.28896,0.0313 -0.55971,0.14738 -0.78059,0.37766 L 446.504,344.33 c -0.82921,0.86693 -1.45942,1.87082 -0.90111,2.92959 l 2.70948,5.10327 c 0.5636,1.05863 1.74713,1.09819 2.93025,0.89609 l 3.18559,-0.54609 c 0.25168,-0.0442 0.46098,-0.15674 0.63172,-0.31399 a 20.042484,20.042484 0 0 0 2.66704,2.2378 c -0.0786,0.16494 -0.1337,0.3442 -0.11911,0.54913 l 0.0641,3.23065 c 0.0242,1.20027 0.28644,2.35575 1.43366,2.70863 l 5.52345,1.69896 c 1.14697,0.3528 2.01351,-0.45549 2.70785,-1.43474 l 1.86893,-2.63606 c 0.10177,-0.14173 0.16449,-0.29156 0.19568,-0.44705 a 20.042484,20.042484 0 0 0 3.67945,-0.37142 c 0.0625,0.15652 0.15583,0.30345 0.29059,0.43235 l 2.3331,2.23628 c 0.86671,0.82921 1.86974,1.45915 2.93024,0.89609 l 5.10295,-2.70959 c 1.05839,-0.56349 1.09905,-1.74693 0.90082,-2.92865 l -0.54608,-3.1857 c -0.0435,-0.24565 -0.15078,-0.44938 -0.30042,-0.61724 a 20.042484,20.042484 0 0 0 1.99535,-2.49176 c 0.16421,0.0781 0.34834,0.12127 0.55006,0.1171 l 3.23061,-0.0642 c 1.20025,-0.0238 2.35543,-0.28631 2.70832,-1.43358 l 1.69891,-5.52328 c 0.35291,-1.14734 -0.45509,-2.01358 -1.43446,-2.70782 l -2.63607,-1.8687 c -0.12272,-0.087 -0.25128,-0.14791 -0.38324,-0.18515 -0.0784,-0.0241 -0.1589,-0.0323 -0.24243,-0.0398 a 20.042484,20.042484 0 0 0 -0.26629,-2.81547 c 0.14964,-0.0635 0.28858,-0.15513 0.4145,-0.28373 l 2.23734,-2.3316 c 0.83047,-0.86653 1.46118,-1.87027 0.90112,-2.92959 l -2.71102,-5.10371 c -0.28156,-0.52923 -0.71773,-0.80327 -1.23209,-0.92034 -0.51439,-0.117 -1.10639,-0.077 -1.69761,0.0243 l -3.18513,0.54727 c -0.10267,0.0192 -0.1985,0.0513 -0.29076,0.0902 a 20.042484,20.042484 0 0 0 -2.66411,-2.23378 c 0.0785,-0.16492 0.13397,-0.34508 0.11433,-0.55166 l -0.0641,-3.23163 c -0.0237,-1.20015 -0.28623,-2.35465 -1.43371,-2.7076 l -5.52319,-1.69888 z m -1.89008,15.66641 a 9.2989894,9.2989894 0 0 1 6.1542,11.62166 9.2989894,9.2989894 0 0 1 -11.62184,6.15407 9.2989894,9.2989894 0 0 1 -6.15517,-11.62211 9.2989894,9.2989894 0 0 1 11.62281,-6.15362 z"
         style="fill:#0496f9;fill-opacity:1"
         inkscape:export-filename="/home/lonmadi/Рабочий стол/vida4a/vidacha_operator/20.png"
         inkscape:export-xdpi="150"
         inkscape:export-ydpi="150" />
      <path
         inkscape:export-ydpi="150"
         inkscape:export-xdpi="150"
         inkscape:export-filename="/home/lonmadi/Рабочий стол/vida4a/vidacha_operator/20.png"
         style="fill:#4d4d4d;fill-opacity:1"
         d="m 496.08242,343.94126 c -0.93532,0 -1.39557,0.79979 -1.68837,1.68823 l -0.78788,2.39231 c -0.0433,0.12888 -0.0557,0.25567 -0.0433,0.37861 a 15.618298,15.618298 0 0 0 -2.76307,1.17196 c -0.0763,-0.0813 -0.16703,-0.15238 -0.27549,-0.20699 l -2.24945,-1.13195 c -0.41755,-0.20952 -0.84954,-0.37384 -1.25946,-0.40318 -0.40994,-0.0295 -0.79738,0.0767 -1.12793,0.40782 l -3.18105,3.18719 c -0.65942,0.66214 -0.41756,1.55292 0,2.38771 l 1.13638,2.24688 c 0.0908,0.18001 0.22454,0.31051 0.3825,0.40168 a 15.618298,15.618298 0 0 0 -0.9112,2.33844 c -0.0227,0 -0.0412,-0.004 -0.0639,-0.006 -0.10723,-0.004 -0.21652,0.0123 -0.32766,0.0491 l -2.39233,0.78795 c -0.88853,0.29271 -1.68817,0.75363 -1.68817,1.68903 l 0,4.50221 c 0,0.93547 0.79964,1.39558 1.68817,1.68827 l 2.39233,0.78795 c 0.19383,0.0641 0.38457,0.0608 0.56334,0.0123 a 15.618298,15.618298 0 0 0 0.83965,1.99605 c -0.20806,0.0895 -0.38312,0.238 -0.49488,0.46012 l -1.13204,2.24919 c -0.419,0.83568 -0.6584,1.72778 0,2.38847 l 3.18724,3.18028 c 0.66231,0.65937 1.5529,0.41768 2.3878,-0.004 l 2.24759,-1.13656 c 0.17733,-0.0906 0.30744,-0.22235 0.39858,-0.37859 a 15.618298,15.618298 0 0 0 2.49915,1.05575 c -0.0207,0.14084 -0.0207,0.28699 0.0371,0.43628 l 0.7879,2.39157 c 0.29301,0.88844 0.75305,1.68899 1.68837,1.68899 l 4.50321,0 c 0.93512,0 1.39536,-0.80055 1.68817,-1.68899 l 0.7881,-2.39157 c 0.0433,-0.12887 0.0557,-0.25484 0.0433,-0.3778 a 15.618298,15.618298 0 0 0 2.65544,-1.1196 c 0.0824,0.10226 0.18559,0.19032 0.31549,0.25545 l 2.25007,1.13112 c 0.83552,0.41904 1.72692,0.65844 2.3878,-0.004 l 3.18002,-3.18724 c 0.65922,-0.66218 0.41838,-1.55295 0,-2.3877 l -1.13658,-2.24767 c -0.0887,-0.173 -0.21526,-0.30017 -0.36517,-0.39091 a 15.618298,15.618298 0 0 0 0.91532,-2.31305 c 0.14021,0.0206 0.28723,0.0105 0.43652,-0.0388 l 2.39152,-0.78797 c 0.88851,-0.29271 1.68878,-0.75287 1.68878,-1.68823 l 0,-4.50308 c 0,-0.93541 -0.80027,-1.3955 -1.68878,-1.6882 l -2.39152,-0.78793 c -0.11134,-0.0367 -0.22104,-0.0526 -0.32786,-0.0501 -0.0639,0 -0.12577,0.0123 -0.1897,0.0259 a 15.618298,15.618298 0 0 0 -0.84336,-2.03602 c 0.0969,-0.0816 0.1794,-0.18166 0.24373,-0.30629 l 1.13225,-2.2492 c 0.42003,-0.83567 0.65984,-1.72777 0,-2.38847 l -3.18848,-3.18026 c -0.33096,-0.32967 -0.71861,-0.43386 -1.12854,-0.40321 -0.40993,0.0307 -0.84171,0.1961 -1.25885,0.40703 l -2.24697,1.13733 c -0.0721,0.0378 -0.13609,0.0837 -0.19589,0.13383 a 15.618298,15.618298 0 0 0 -2.49605,-1.05342 c 0.0207,-0.14083 0.0207,-0.28771 -0.0412,-0.43708 l -0.7881,-2.3923 c -0.2926,-0.88847 -0.75264,-1.68822 -1.68817,-1.68822 l -4.503,0 z m 2.1814,12.1017 a 7.2463267,7.2463267 0 0 1 7.2463,7.24613 7.2463267,7.2463267 0 0 1 -7.2463,7.24624 7.2463267,7.2463267 0 0 1 -7.24712,-7.24624 7.2463267,7.2463267 0 0 1 7.24712,-7.24613 z"
         id="path6685"
         inkscape:connector-curvature="0" />
    </g>
  </g>
</svg>
