<?xml version="1.0" encoding="UTF-8" standalone="no"?>
<!-- Created with Inkscape (http://www.inkscape.org/) -->

<svg
   xmlns:dc="http://purl.org/dc/elements/1.1/"
   xmlns:cc="http://creativecommons.org/ns#"
   xmlns:rdf="http://www.w3.org/1999/02/22-rdf-syntax-ns#"
   xmlns:svg="http://www.w3.org/2000/svg"
   xmlns="http://www.w3.org/2000/svg"
   xmlns:sodipodi="http://sodipodi.sourceforge.net/DTD/sodipodi-0.dtd"
   xmlns:inkscape="http://www.inkscape.org/namespaces/inkscape"
   width="13.804694mm"
   height="12.538931mm"
   viewBox="0 0 48.91427 44.429282"
   id="svg5066"
   version="1.1"
   inkscape:version="0.91 r13725"
   sodipodi:docname="icon-user-setting.svg">
  <defs
     id="defs5068" />
  <sodipodi:namedview
     id="base"
     pagecolor="#ffffff"
     bordercolor="#666666"
     borderopacity="1.0"
     inkscape:pageopacity="0.0"
     inkscape:pageshadow="2"
     inkscape:zoom="3.0325373"
     inkscape:cx="-57.446526"
     inkscape:cy="45.45384"
     inkscape:document-units="px"
     inkscape:current-layer="layer1"
     showgrid="false"
     fit-margin-top="0"
     fit-margin-left="0"
     fit-margin-right="0"
     fit-margin-bottom="0"
     inkscape:window-width="1366"
     inkscape:window-height="719"
     inkscape:window-x="0"
     inkscape:window-y="25"
     inkscape:window-maximized="1" />
  <metadata
     id="metadata5071">
    <rdf:RDF>
      <cc:Work
         rdf:about="">
        <dc:format>image/svg+xml</dc:format>
        <dc:type
           rdf:resource="http://purl.org/dc/dcmitype/StillImage" />
        <dc:title></dc:title>
      </cc:Work>
    </rdf:RDF>
  </metadata>
  <g
     inkscape:label="Layer 1"
     inkscape:groupmode="layer"
     id="layer1"
     transform="translate(-386.31828,-610.91687)">
    <g
       id="g4148">
      <path
         inkscape:export-ydpi="150"
         inkscape:export-xdpi="150"
         inkscape:export-filename="/home/lonmadi/Рабочий стол/vida4a/vidacha_operator/20.png"
         style="fill:#b3b3b3;fill-opacity:1"
         d="m 413.43937,610.91816 c -0.94405,0 -1.40858,0.80723 -1.70411,1.70396 l -0.79524,2.41462 c -0.0437,0.13007 -0.0562,0.25805 -0.0437,0.38213 a 15.763858,15.763858 0 0 0 -2.78883,1.18287 c -0.077,-0.082 -0.16858,-0.1538 -0.27805,-0.20891 l -2.27041,-1.1425 c -0.42144,-0.21147 -0.85747,-0.37734 -1.27121,-0.40694 -0.41375,-0.0298 -0.80481,0.0774 -1.13842,0.41162 l -3.21071,3.2169 c -0.66557,0.66831 -0.42145,1.5674 0,2.40996 l 1.14696,2.26782 c 0.0915,0.18169 0.22665,0.31341 0.38606,0.40542 a 15.763858,15.763858 0 0 0 -0.91969,2.36023 c -0.0228,0 -0.0416,-0.004 -0.0645,-0.008 -0.10823,-0.004 -0.21852,0.0125 -0.33072,0.0496 l -2.41462,0.79529 c -0.8968,0.29543 -1.7039,0.76064 -1.7039,1.70477 l 0,4.54418 c 0,0.94417 0.8071,1.40858 1.7039,1.70399 l 2.41462,0.79528 c 0.19565,0.0647 0.38815,0.0615 0.56861,0.0125 a 15.763858,15.763858 0 0 0 0.84746,2.01465 c -0.20999,0.0903 -0.38667,0.24022 -0.49949,0.46441 l -1.14258,2.27015 c -0.42291,0.84347 -0.66453,1.7439 0,2.41075 l 3.21694,3.20989 c 0.66849,0.66552 1.56736,0.42158 2.41006,-0.004 l 2.26853,-1.14716 c 0.17898,-0.0913 0.31031,-0.22442 0.4023,-0.38211 a 15.763858,15.763858 0 0 0 2.52245,1.06557 c -0.0208,0.14215 -0.0208,0.28968 0.0375,0.44036 l 0.79523,2.41386 c 0.29574,0.89671 0.76006,1.70473 1.7041,1.70473 l 4.5452,0 c 0.94382,0 1.40834,-0.80802 1.7039,-1.70473 l 0.79544,-2.41386 c 0.0437,-0.13007 0.0562,-0.25723 0.0437,-0.38133 a 15.763858,15.763858 0 0 0 2.6802,-1.13004 c 0.0833,0.10323 0.18732,0.1921 0.31844,0.25785 l 2.27101,1.14165 c 0.84332,0.42295 1.74304,0.66459 2.41007,-0.004 l 3.20966,-3.21694 c 0.66536,-0.66836 0.42228,-1.56744 0,-2.40997 l -1.14717,-2.26861 c -0.0895,-0.1746 -0.21728,-0.30295 -0.36859,-0.39456 a 15.763858,15.763858 0 0 0 0.92387,-2.3346 c 0.14152,0.0208 0.28991,0.0104 0.44059,-0.0392 l 2.4138,-0.79532 c 0.8968,-0.29543 1.70452,-0.75986 1.70452,-1.70397 l 0,-4.54503 c 0,-0.94411 -0.80772,-1.40851 -1.70452,-1.70393 l -2.4138,-0.79528 c -0.1124,-0.0371 -0.22312,-0.0531 -0.33092,-0.0506 -0.0645,0 -0.12695,0.0125 -0.19147,0.0263 a 15.763858,15.763858 0 0 0 -0.85122,-2.055 c 0.0978,-0.0824 0.18105,-0.18335 0.246,-0.30914 l 1.14279,-2.27015 c 0.42396,-0.84347 0.666,-1.74387 0,-2.41075 l -3.21818,-3.20989 c -0.33404,-0.33274 -0.72531,-0.43791 -1.13906,-0.40696 -0.41375,0.0311 -0.84955,0.19792 -1.27059,0.41082 l -2.26791,1.14793 c -0.0728,0.0381 -0.13736,0.0845 -0.19771,0.13507 a 15.763858,15.763858 0 0 0 -2.51933,-1.06323 c 0.0208,-0.14215 0.0208,-0.29039 -0.0416,-0.44116 l -0.79545,-2.41459 c -0.29532,-0.89676 -0.75965,-1.70396 -1.70389,-1.70396 l -4.54498,0 z m 2.20172,12.21448 a 7.3138624,7.3138624 0 0 1 7.31384,7.31367 7.3138624,7.3138624 0 0 1 -7.31384,7.31378 7.3138624,7.3138624 0 0 1 -7.31466,-7.31378 7.3138624,7.3138624 0 0 1 7.31466,-7.31367 z"
         id="path5998"
         inkscape:connector-curvature="0" />
      <g
         inkscape:export-ydpi="150"
         inkscape:export-xdpi="150"
         transform="matrix(0.44627289,0,0,0.44627289,312.85159,421.61027)"
         id="g5911">
        <path
           style="opacity:1;fill:#5c5c5c;fill-opacity:1;stroke:none;stroke-width:1;stroke-miterlimit:4;stroke-dasharray:none;stroke-dashoffset:0;stroke-opacity:1"
           d="m 183.3867,496.33734 -10.98393,1.97979 c -5.94953,0 -9.03194,5.04679 -7.30127,10.73904 2.50888,7.03141 2.89738,14.59627 7.30127,14.69485 l 22.51791,0 0.46528,0 22.51791,0 c 4.40389,-0.0986 4.79239,-7.66344 7.30127,-14.69485 1.73067,-5.69225 -1.35174,-10.73904 -7.30127,-10.73904 l -10.98393,-1.97979 c -3.61799,5.05642 -6.85262,6.37825 -11.20057,6.37825 -0.1098,0 -0.22238,-0.0105 -0.33341,-0.015 l 0,-0.0226 c -0.0785,0.007 -0.15536,0.006 -0.23359,0.0113 -0.0776,-0.005 -0.1538,-0.005 -0.23169,-0.0113 l 0,0.0226 c -0.11103,0.005 -0.22361,0.015 -0.33341,0.015 -4.34795,0 -7.58258,-1.32183 -11.20057,-6.37825 z"
           id="rect5868"
           inkscape:connector-curvature="0"
           sodipodi:nodetypes="ccccccccccscccccsc" />
        <g
           id="g5893"
           transform="matrix(0.88754162,0,0,0.88754162,21.950273,55.978507)">
          <path
             sodipodi:nodetypes="szsssss"
             inkscape:connector-curvature="0"
             id="path5855"
             d="m 212.56929,471.02194 c 0,12.42988 -9.61066,26.74892 -17.36812,26.74892 -7.75746,0 -17.36812,-13.96549 -17.36812,-26.39537 0,-6.87462 1.17109,-9.14025 5.16422,-13.2685 3.22677,-3.33598 7.45668,-5.34869 12.2039,-5.34869 5.04084,0 9.49841,2.26939 12.79102,5.98271 3.64547,4.11127 4.5771,5.74991 4.5771,12.28093 z"
             style="opacity:1;fill:#5c5c5c;fill-opacity:1;stroke:none;stroke-width:1;stroke-miterlimit:4;stroke-dasharray:none;stroke-dashoffset:0;stroke-opacity:1" />
          <ellipse
             transform="matrix(0.91799501,-0.39659194,0.39659194,0.91799501,0,0)"
             style="opacity:1;fill:#5c5c5c;fill-opacity:1;stroke:none;stroke-width:1;stroke-miterlimit:4;stroke-dasharray:none;stroke-dashoffset:0;stroke-opacity:1"
             id="ellipse5889"
             cx="-23.181786"
             cy="512.7807"
             rx="4.0658641"
             ry="5.6568542" />
          <ellipse
             ry="5.6568542"
             rx="4.0658641"
             cy="358.0433"
             cx="-381.35403"
             id="ellipse5891"
             style="opacity:1;fill:#5c5c5c;fill-opacity:1;stroke:none;stroke-width:1;stroke-miterlimit:4;stroke-dasharray:none;stroke-dashoffset:0;stroke-opacity:1"
             transform="matrix(-0.91799501,-0.39659194,-0.39659194,0.91799501,0,0)" />
        </g>
      </g>
    </g>
  </g>
</svg>
