<?xml version="1.0" encoding="UTF-8" standalone="no"?>
<!-- Created with Inkscape (http://www.inkscape.org/) -->

<svg
   xmlns:dc="http://purl.org/dc/elements/1.1/"
   xmlns:cc="http://creativecommons.org/ns#"
   xmlns:rdf="http://www.w3.org/1999/02/22-rdf-syntax-ns#"
   xmlns:svg="http://www.w3.org/2000/svg"
   xmlns="http://www.w3.org/2000/svg"
   xmlns:sodipodi="http://sodipodi.sourceforge.net/DTD/sodipodi-0.dtd"
   xmlns:inkscape="http://www.inkscape.org/namespaces/inkscape"
   width="17.044811mm"
   height="14.11111mm"
   viewBox="0 0 60.395 49.999995"
   id="svg6480"
   version="1.1"
   inkscape:version="0.91 r13725"
   sodipodi:docname="icon-use-key.svg">
  <defs
     id="defs6482" />
  <sodipodi:namedview
     id="base"
     pagecolor="#ffffff"
     bordercolor="#666666"
     borderopacity="1.0"
     inkscape:pageopacity="0.0"
     inkscape:pageshadow="2"
     inkscape:zoom="0.51408156"
     inkscape:cx="28.450861"
     inkscape:cy="-139.82778"
     inkscape:document-units="px"
     inkscape:current-layer="layer1"
     showgrid="false"
     fit-margin-top="0"
     fit-margin-left="0"
     fit-margin-right="0"
     fit-margin-bottom="0"
     inkscape:window-width="1366"
     inkscape:window-height="719"
     inkscape:window-x="0"
     inkscape:window-y="25"
     inkscape:window-maximized="1" />
  <metadata
     id="metadata6485">
    <rdf:RDF>
      <cc:Work
         rdf:about="">
        <dc:format>image/svg+xml</dc:format>
        <dc:type
           rdf:resource="http://purl.org/dc/dcmitype/StillImage" />
        <dc:title></dc:title>
      </cc:Work>
    </rdf:RDF>
  </metadata>
  <g
     inkscape:label="Layer 1"
     inkscape:groupmode="layer"
     id="layer1"
     transform="translate(-343.59638,-180.736)">
    <g
       id="g7058"
       transform="matrix(0.67979356,0,0,0.67979356,266.96918,67.200337)">
      <g
         transform="matrix(1.2803736,0,0,1.2803736,-467.49708,-618.12895)"
         id="g6867">
        <rect
           style="opacity:1;fill:#0496f9;fill-opacity:1;fill-rule:evenodd;stroke:none;stroke-width:1.5;stroke-miterlimit:4;stroke-dasharray:none;stroke-dashoffset:0;stroke-opacity:1"
           id="rect6849"
           width="12.006891"
           height="12.006891"
           x="453.16333"
           y="613.21466"
           ry="0" />
        <rect
           ry="0"
           y="613.21466"
           x="467.88147"
           height="12.006891"
           width="12.006891"
           id="rect6851"
           style="opacity:1;fill:#0496f9;fill-opacity:1;fill-rule:evenodd;stroke:none;stroke-width:1.5;stroke-miterlimit:4;stroke-dasharray:none;stroke-dashoffset:0;stroke-opacity:1" />
        <rect
           style="opacity:1;fill:#0496f9;fill-opacity:1;fill-rule:evenodd;stroke:none;stroke-width:1.5;stroke-miterlimit:4;stroke-dasharray:none;stroke-dashoffset:0;stroke-opacity:1"
           id="rect6853"
           width="12.006891"
           height="12.006891"
           x="482.59961"
           y="613.21466"
           ry="0" />
        <rect
           ry="0"
           y="627.54547"
           x="453.16333"
           height="12.006891"
           width="12.006891"
           id="rect6855"
           style="opacity:1;fill:#0496f9;fill-opacity:1;fill-rule:evenodd;stroke:none;stroke-width:1.5;stroke-miterlimit:4;stroke-dasharray:none;stroke-dashoffset:0;stroke-opacity:1" />
        <rect
           style="opacity:1;fill:#0496f9;fill-opacity:1;fill-rule:evenodd;stroke:none;stroke-width:1.5;stroke-miterlimit:4;stroke-dasharray:none;stroke-dashoffset:0;stroke-opacity:1"
           id="rect6857"
           width="12.006891"
           height="12.006891"
           x="467.88147"
           y="627.54547"
           ry="0" />
        <rect
           ry="0"
           y="627.54547"
           x="482.59961"
           height="12.006891"
           width="12.006891"
           id="rect6859"
           style="opacity:1;fill:#0496f9;fill-opacity:1;fill-rule:evenodd;stroke:none;stroke-width:1.5;stroke-miterlimit:4;stroke-dasharray:none;stroke-dashoffset:0;stroke-opacity:1" />
        <rect
           style="opacity:1;fill:#0496f9;fill-opacity:1;fill-rule:evenodd;stroke:none;stroke-width:1.5;stroke-miterlimit:4;stroke-dasharray:none;stroke-dashoffset:0;stroke-opacity:1"
           id="rect6861"
           width="12.006891"
           height="12.006891"
           x="453.16333"
           y="641.87628"
           ry="0" />
        <rect
           ry="0"
           y="641.87628"
           x="467.88147"
           height="12.006891"
           width="12.006891"
           id="rect6863"
           style="opacity:1;fill:#0496f9;fill-opacity:1;fill-rule:evenodd;stroke:none;stroke-width:1.5;stroke-miterlimit:4;stroke-dasharray:none;stroke-dashoffset:0;stroke-opacity:1" />
        <rect
           style="opacity:1;fill:#0496f9;fill-opacity:1;fill-rule:evenodd;stroke:none;stroke-width:1.5;stroke-miterlimit:4;stroke-dasharray:none;stroke-dashoffset:0;stroke-opacity:1"
           id="rect6865"
           width="12.006891"
           height="12.006891"
           x="482.59961"
           y="641.87628"
           ry="0" />
      </g>
      <g
         transform="matrix(0.90549757,0,0,0.90549757,-471.52484,-262.74161)"
         id="g4811">
        <circle
           style="opacity:1;fill:#ffffff;fill-opacity:1;fill-rule:evenodd;stroke:none;stroke-width:1.5;stroke-miterlimit:4;stroke-dasharray:none;stroke-dashoffset:0;stroke-opacity:1"
           id="path4809"
           cx="675.46246"
           cy="504.15073"
           r="8.4558277" />
        <path
           style="fill:#5f6a71;fill-opacity:1;fill-rule:evenodd;stroke:none;stroke-width:1px;stroke-linecap:butt;stroke-linejoin:miter;stroke-opacity:1"
           d="m 685.66354,548.83453 c -4.05034,-3.37457 -3.00289,-9.80653 1.68212,-10.65094 1.67514,-0.1978 11.81827,1.6096 11.81827,1.6096 0,0 -27.25625,-30.55582 -27.93546,-32.43542 -3.10707,-5.02669 3.35038,-10.73146 7.25481,-7.71595 1.23984,1.09481 12.49054,13.94237 12.49054,13.94237 -0.92045,-3.29319 4.01112,-7.8919 6.99757,-6.57501 1.59598,0.79146 3.74588,2.95472 3.74588,2.95472 -1.42348,-3.3817 4.98561,-7.81762 7.12287,-6.06719 1.77403,0.63978 4.379,3.33725 4.379,3.33725 -0.18126,-3.10203 1.65495,-5.82247 4.45845,-5.94857 1.82684,-0.0197 4.05592,1.15426 5.29575,2.24909 1.23983,1.09483 18.04989,21.19054 19.03248,23.42629 0.98257,2.23575 1.55623,5.43437 1.24621,7.23481 -0.31005,1.80043 -1.58962,5.34853 -2.17661,6.46306 -0.587,1.11454 -13.69763,13.93141 -16.56067,14.10623 -2.86304,0.1748 -11.62716,2.22212 -16.77121,0.15109 -4.77061,-2.68337 -18.55646,-3.57928 -22.08,-6.08143 z"
           id="path4549"
           inkscape:connector-curvature="0"
           sodipodi:nodetypes="cccccccccccsssszcc" />
      </g>
    </g>
  </g>
</svg>
