<?xml version="1.0" encoding="UTF-8" standalone="no"?>
<!-- Created with Inkscape (http://www.inkscape.org/) -->

<svg
   xmlns:dc="http://purl.org/dc/elements/1.1/"
   xmlns:cc="http://creativecommons.org/ns#"
   xmlns:rdf="http://www.w3.org/1999/02/22-rdf-syntax-ns#"
   xmlns:svg="http://www.w3.org/2000/svg"
   xmlns="http://www.w3.org/2000/svg"
   xmlns:sodipodi="http://sodipodi.sourceforge.net/DTD/sodipodi-0.dtd"
   xmlns:inkscape="http://www.inkscape.org/namespaces/inkscape"
   width="21.787153mm"
   height="15.878214mm"
   viewBox="0 0 77.198574 56.261388"
   id="svg5836"
   version="1.1"
   inkscape:version="0.91 r13725"
   sodipodi:docname="icon-main-settings.svg">
  <defs
     id="defs5838" />
  <sodipodi:namedview
     id="base"
     pagecolor="#ffffff"
     bordercolor="#666666"
     borderopacity="1.0"
     inkscape:pageopacity="0.0"
     inkscape:pageshadow="2"
     inkscape:zoom="0.35"
     inkscape:cx="-153.54357"
     inkscape:cy="-240.44074"
     inkscape:document-units="px"
     inkscape:current-layer="layer1"
     showgrid="false"
     fit-margin-top="0"
     fit-margin-left="0"
     fit-margin-right="0"
     fit-margin-bottom="0"
     inkscape:window-width="1366"
     inkscape:window-height="719"
     inkscape:window-x="0"
     inkscape:window-y="25"
     inkscape:window-maximized="1" />
  <metadata
     id="metadata5841">
    <rdf:RDF>
      <cc:Work
         rdf:about="">
        <dc:format>image/svg+xml</dc:format>
        <dc:type
           rdf:resource="http://purl.org/dc/dcmitype/StillImage" />
        <dc:title></dc:title>
      </cc:Work>
    </rdf:RDF>
  </metadata>
  <g
     inkscape:label="Layer 1"
     inkscape:groupmode="layer"
     id="layer1"
     transform="translate(-478.54357,-235.66008)">
    <g
       id="g5528"
       transform="matrix(0.83448745,0,0,0.83448745,317.95725,-110.24822)">
      <path
         inkscape:connector-curvature="0"
         id="path5514"
         d="m 216.77267,444.33035 c -0.86684,-0.35131 -1.59379,0.21704 -2.19887,0.93046 l -1.62875,1.9212 c -0.0886,0.10316 -0.14767,0.21602 -0.1823,0.33465 a 15.618298,15.618298 0 0 0 -3.00095,0.0483 c -0.0401,-0.10408 -0.0976,-0.20397 -0.17758,-0.29531 l -1.65958,-1.89398 c -0.30826,-0.351 -0.64691,-0.66555 -1.0158,-0.84672 -0.36886,-0.18129 -0.7678,-0.22843 -1.19852,-0.0457 l -4.14525,1.759 c -0.85984,0.36598 -0.97028,1.28237 -0.89685,2.21287 l 0.20924,2.5092 c 0.0165,0.20092 0.0915,0.37211 0.20361,0.51594 a 15.618298,15.618298 0 0 0 -1.72281,1.82496 c -0.0209,-0.009 -0.0365,-0.0193 -0.0572,-0.0292 -0.0979,-0.044 -0.20526,-0.07 -0.32213,-0.0775 l -2.51313,-0.16831 c -0.93341,-0.0624 -1.84762,0.0643 -2.19897,0.93126 l -1.69106,4.17255 c -0.35136,0.86698 0.21691,1.59375 0.93044,2.19875 l 1.9212,1.62883 c 0.15556,0.13223 0.33356,0.20083 0.51748,0.22298 a 15.618298,15.618298 0 0 0 0.0285,2.16527 c -0.22643,0.005 -0.44446,0.0767 -0.63147,0.24055 l -1.89397,1.65931 c -0.7022,0.61711 -1.25914,1.35397 -0.89711,2.21358 l 1.75934,4.14456 c 0.36614,0.85987 1.2823,0.97038 2.21445,0.89317 l 2.50993,-0.20913 c 0.19837,-0.0173 0.36844,-0.0906 0.51159,-0.20117 a 15.618298,15.618298 0 0 0 1.91962,1.91716 c -0.0721,0.12274 -0.127,0.25819 -0.12945,0.41827 l -0.16808,2.51239 c -0.0621,0.93345 0.0635,1.84818 0.93035,2.19949 l 4.17349,1.69143 c 0.86664,0.35124 1.59389,-0.21782 2.19896,-0.93123 l 1.62867,-1.92044 c 0.0886,-0.10315 0.14735,-0.21527 0.18207,-0.33386 a 15.618298,15.618298 0 0 0 2.88154,-0.0402 c 0.0379,0.12574 0.10052,0.24608 0.19645,0.35524 l 1.66045,1.89344 c 0.61695,0.70218 1.35316,1.25887 2.21447,0.89317 l 4.14431,-1.75944 c 0.85968,-0.3661 0.97106,-1.28211 0.89684,-2.21287 l -0.20911,-2.51 c -0.0172,-0.19365 -0.0867,-0.35905 -0.19161,-0.49946 a 15.618298,15.618298 0 0 0 1.7171,-1.79988 c 0.1222,0.0718 0.26225,0.11764 0.41914,0.12797 l 2.51237,0.168 c 0.9334,0.0624 1.84791,-0.0634 2.19923,-0.9303 l 1.69139,-4.17337 c 0.35135,-0.86691 -0.21751,-1.59391 -0.93102,-2.1989 l -1.92047,-1.62851 c -0.0894,-0.0758 -0.18507,-0.13179 -0.28503,-0.16957 -0.0595,-0.0236 -0.1212,-0.0358 -0.18553,-0.0472 a 15.618298,15.618298 0 0 0 -0.0169,-2.2037 c 0.12046,-0.0392 0.2345,-0.10098 0.34093,-0.19233 l 1.89416,-1.65923 c 0.70316,-0.61671 1.26049,-1.35342 0.89713,-2.21357 l -1.7605,-4.14502 c -0.1829,-0.42984 -0.50303,-0.67201 -0.89446,-0.79758 -0.39144,-0.1255 -0.85369,-0.13463 -1.31955,-0.0956 l -2.50964,0.21007 c -0.081,0.008 -0.15757,0.0265 -0.2318,0.0504 a 15.618298,15.618298 0 0 0 -1.91763,-1.91382 c 0.0721,-0.12275 0.12721,-0.25887 0.12598,-0.42055 l 0.16816,-2.51315 c 0.0625,-0.93332 -0.0634,-1.84731 -0.93045,-2.1987 l -4.1733,-1.69135 z m -2.52381,12.03495 a 7.2463267,7.2463267 0 0 1 3.99404,9.43733 7.2463267,7.2463267 0 0 1 -9.43745,3.9939 7.2463267,7.2463267 0 0 1 -3.99475,-9.43772 7.2463267,7.2463267 0 0 1 9.43816,-3.99351 z"
         style="fill:#4d4d4d;fill-opacity:1"
         inkscape:export-filename="/home/lonmadi/Рабочий стол/vida4a/vidacha_operator/20.png"
         inkscape:export-xdpi="150"
         inkscape:export-ydpi="150" />
      <path
         inkscape:connector-curvature="0"
         id="path5520"
         d="m 249.07578,414.51588 c -1.55389,0 -2.31851,1.32871 -2.80496,2.80473 l -1.30896,3.97445 c -0.0718,0.2141 -0.0925,0.42475 -0.0718,0.62899 a 25.94734,25.94734 0 0 0 -4.59043,1.94702 c -0.12669,-0.13492 -0.27747,-0.25316 -0.45767,-0.34387 l -3.73709,-1.88057 c -0.69371,-0.34808 -1.4114,-0.62109 -2.09242,-0.66981 -0.68104,-0.0489 -1.32473,0.12745 -1.87384,0.67753 l -5.28485,5.29501 c -1.09552,1.10004 -0.6937,2.57995 0,3.96679 l 1.88791,3.73285 c 0.15073,0.29906 0.37306,0.51588 0.63545,0.66733 a 25.94734,25.94734 0 0 0 -1.5138,3.88493 c -0.0376,0 -0.0685,-0.006 -0.1062,-0.0117 -0.17814,-0.006 -0.35969,0.0205 -0.54436,0.0816 l -3.97447,1.30905 c -1.47614,0.48628 -2.80462,1.25202 -2.80462,2.80606 l 0,7.47971 c 0,1.55412 1.32848,2.31853 2.80462,2.80478 l 3.97447,1.30904 c 0.32203,0.10646 0.63889,0.10115 0.93592,0.0206 a 25.94734,25.94734 0 0 0 1.39493,3.31611 c -0.34565,0.14868 -0.63647,0.39542 -0.82217,0.76444 l -1.88068,3.73666 c -0.69611,1.38836 -1.09383,2.87046 0,3.96809 l 5.29509,5.2835 c 1.10033,1.09545 2.57988,0.69392 3.96696,-0.006 l 3.734,-1.88823 c 0.29461,-0.15041 0.51078,-0.36939 0.66218,-0.62895 a 25.94734,25.94734 0 0 0 4.15197,1.75395 c -0.0342,0.23397 -0.0342,0.4768 0.0616,0.72481 l 1.30897,3.97323 c 0.48679,1.47599 1.25105,2.80599 2.80494,2.80599 l 7.4814,0 c 1.55354,0 2.31815,-1.33 2.80462,-2.80599 l 1.3093,-3.97323 c 0.0718,-0.21409 0.0925,-0.42338 0.0718,-0.62765 a 25.94734,25.94734 0 0 0 4.41161,-1.86007 c 0.13699,0.16993 0.30832,0.31621 0.52415,0.42443 l 3.7381,1.87916 c 1.38809,0.69617 2.86903,1.09391 3.96697,-0.006 l 5.2831,-5.2951 c 1.0952,-1.1001 0.69508,-2.57999 0,-3.9668 l -1.88824,-3.73415 c -0.14724,-0.28739 -0.35764,-0.49865 -0.60669,-0.64943 a 25.94734,25.94734 0 0 0 1.52068,-3.84277 c 0.23294,0.0342 0.47719,0.0171 0.7252,-0.0645 l 3.97313,-1.3091 c 1.47614,-0.48628 2.80564,-1.25075 2.80564,-2.80473 l 0,-7.48114 c 0,-1.55402 -1.3295,-2.31841 -2.80564,-2.80468 l -3.97313,-1.30903 c -0.18499,-0.061 -0.36724,-0.0874 -0.54468,-0.0833 -0.1062,0 -0.20896,0.0206 -0.31516,0.0432 a 25.94734,25.94734 0 0 0 -1.40111,-3.38253 c 0.161,-0.13571 0.29801,-0.3018 0.40491,-0.50886 l 1.88105,-3.73666 c 0.69782,-1.38835 1.09623,-2.87043 0,-3.96809 l -5.29714,-5.2835 c -0.54983,-0.54769 -1.19386,-0.7208 -1.87489,-0.66986 -0.68104,0.0511 -1.39837,0.32579 -2.09139,0.67621 l -3.73299,1.8895 c -0.11995,0.0628 -0.22609,0.13903 -0.32543,0.22234 a 25.94734,25.94734 0 0 0 -4.14682,-1.7501 c 0.0342,-0.23397 0.0342,-0.47798 -0.0685,-0.72614 l -1.3093,-3.97442 c -0.48611,-1.47607 -1.2504,-2.80472 -2.80461,-2.80472 l -7.48104,0 z m 3.62405,20.10506 a 12.038631,12.038631 0 0 1 12.03858,12.03831 12.038631,12.038631 0 0 1 -12.03858,12.03849 12.038631,12.038631 0 0 1 -12.03995,-12.03849 12.038631,12.038631 0 0 1 12.03995,-12.03831 z"
         style="fill:#b3b3b3;fill-opacity:1"
         inkscape:export-filename="/home/lonmadi/Рабочий стол/vida4a/vidacha_operator/20.png"
         inkscape:export-xdpi="150"
         inkscape:export-ydpi="150" />
    </g>
  </g>
</svg>
