<?xml version="1.0" encoding="UTF-8" standalone="no"?>
<!-- Created with Inkscape (http://www.inkscape.org/) -->

<svg
   xmlns:dc="http://purl.org/dc/elements/1.1/"
   xmlns:cc="http://creativecommons.org/ns#"
   xmlns:rdf="http://www.w3.org/1999/02/22-rdf-syntax-ns#"
   xmlns:svg="http://www.w3.org/2000/svg"
   xmlns="http://www.w3.org/2000/svg"
   xmlns:sodipodi="http://sodipodi.sourceforge.net/DTD/sodipodi-0.dtd"
   xmlns:inkscape="http://www.inkscape.org/namespaces/inkscape"
   width="43.953819mm"
   height="12.459406mm"
   viewBox="0 0 155.74188 44.147501"
   id="svg5224"
   version="1.1"
   inkscape:version="0.91 r13725"
   sodipodi:docname="logo-company.svg">
  <defs
     id="defs5226" />
  <sodipodi:namedview
     id="base"
     pagecolor="#ffffff"
     bordercolor="#666666"
     borderopacity="1.0"
     inkscape:pageopacity="0.0"
     inkscape:pageshadow="2"
     inkscape:zoom="0.57562114"
     inkscape:cx="-409.42758"
     inkscape:cy="-179.72618"
     inkscape:document-units="px"
     inkscape:current-layer="layer1"
     showgrid="false"
     fit-margin-top="0"
     fit-margin-left="0"
     fit-margin-right="0"
     fit-margin-bottom="0"
     inkscape:window-width="1366"
     inkscape:window-height="719"
     inkscape:window-x="0"
     inkscape:window-y="25"
     inkscape:window-maximized="1" />
  <metadata
     id="metadata5229">
    <rdf:RDF>
      <cc:Work
         rdf:about="">
        <dc:format>image/svg+xml</dc:format>
        <dc:type
           rdf:resource="http://purl.org/dc/dcmitype/StillImage" />
        <dc:title />
      </cc:Work>
    </rdf:RDF>
  </metadata>
  <g
     inkscape:label="Layer 1"
     inkscape:groupmode="layer"
     id="layer1"
     transform="translate(-590.70048,-184.57417)">
    <g
       id="g4155">
      <g
         id="text6365"
         style="font-style:normal;font-weight:normal;font-size:17.64702034px;line-height:125%;font-family:Sans;text-align:center;letter-spacing:0px;word-spacing:0px;text-anchor:middle;fill:#4d4d4d;fill-opacity:1;stroke:none">
        <path
           id="path4141"
           style="font-style:normal;font-variant:normal;font-weight:600;font-stretch:normal;font-size:27.31274796px;line-height:125%;font-family:'URW Gothic L';-inkscape-font-specification:'URW Gothic L Semi-Bold';text-align:center;writing-mode:lr-tb;text-anchor:middle;fill:#4d4d4d"
           d="m 614.3157,196.55585 -3.05903,0 -7.81144,20.18412 3.68722,0 5.68105,-15.34976 5.98149,15.34976 3.38678,0 -7.86607,-20.18412 z" />
        <path
           id="path4143"
           style="font-style:normal;font-variant:normal;font-weight:600;font-stretch:normal;font-size:27.31274796px;line-height:125%;font-family:'URW Gothic L';-inkscape-font-specification:'URW Gothic L Semi-Bold';text-align:center;writing-mode:lr-tb;text-anchor:middle;fill:#4d4d4d"
           d="m 634.09611,196.20079 c -6.00881,0 -10.65198,4.56123 -10.65198,10.46078 0,5.81762 4.6978,10.43347 10.62466,10.43347 5.87224,0 10.40616,-4.56123 10.40616,-10.46078 0,-5.76299 -4.61585,-10.43347 -10.37884,-10.43347 z m -0.0546,3.60528 c 3.74185,0 6.66431,3.0044 6.66431,6.88281 0,3.87841 -2.84053,6.80088 -6.66431,6.80088 -3.82378,0 -6.82819,-3.0044 -6.82819,-6.82819 0,-3.90572 2.94978,-6.8555 6.82819,-6.8555 z" />
        <path
           id="path4145"
           style="font-style:normal;font-variant:normal;font-weight:600;font-stretch:normal;font-size:27.31274796px;line-height:125%;font-family:'URW Gothic L';-inkscape-font-specification:'URW Gothic L Semi-Bold';text-align:center;writing-mode:lr-tb;text-anchor:middle;fill:#4d4d4d"
           d="m 647.41405,216.73997 3.74185,0 0,-16.60615 8.46695,0 0,-3.57797 -12.2088,0 0,20.18412 z" />
        <path
           id="path4147"
           style="font-style:normal;font-variant:normal;font-weight:600;font-stretch:normal;font-size:27.31274796px;line-height:125%;font-family:'URW Gothic L';-inkscape-font-specification:'URW Gothic L Semi-Bold';text-align:center;writing-mode:lr-tb;text-anchor:middle;fill:#4d4d4d"
           d="m 671.43775,196.20079 c -6.0088,0 -10.65197,4.56123 -10.65197,10.46078 0,5.81762 4.69779,10.43347 10.62466,10.43347 5.87224,0 10.40616,-4.56123 10.40616,-10.46078 0,-5.76299 -4.61586,-10.43347 -10.37885,-10.43347 z m -0.0546,3.60528 c 3.74184,0 6.66431,3.0044 6.66431,6.88281 0,3.87841 -2.84053,6.80088 -6.66431,6.80088 -3.82379,0 -6.82819,-3.0044 -6.82819,-6.82819 0,-3.90572 2.94978,-6.8555 6.82819,-6.8555 z" />
        <path
           id="path4149"
           style="font-style:normal;font-variant:normal;font-weight:600;font-stretch:normal;font-size:27.31274796px;line-height:125%;font-family:'URW Gothic L';-inkscape-font-specification:'URW Gothic L Semi-Bold';text-align:center;writing-mode:lr-tb;text-anchor:middle;fill:#4d4d4d"
           d="m 688.19711,216.73997 3.74185,0 0,-16.60615 5.10748,0 0,-3.57797 -13.95681,0 0,3.57797 5.10748,0 0,16.60615 z" />
        <path
           id="path4151"
           style="font-style:normal;font-variant:normal;font-weight:600;font-stretch:normal;font-size:27.31274796px;line-height:125%;font-family:'URW Gothic L';-inkscape-font-specification:'URW Gothic L Semi-Bold';text-align:center;writing-mode:lr-tb;text-anchor:middle;fill:#4d4d4d"
           d="m 715.30587,216.73997 0,-20.18412 -4.26079,0 -8.3577,14.69426 0,-14.69426 -3.74185,0 0,20.18412 4.17885,0 8.43964,-14.66694 0,14.66694 3.74185,0 z" />
        <path
           id="path4153"
           style="font-style:normal;font-variant:normal;font-weight:600;font-stretch:normal;font-size:27.31274796px;line-height:125%;font-family:'URW Gothic L';-inkscape-font-specification:'URW Gothic L Semi-Bold';text-align:center;writing-mode:lr-tb;text-anchor:middle;fill:#4d4d4d"
           d="m 719.00333,216.73997 3.74184,0 0,-16.60615 7.21057,0 0,16.60615 3.74184,0 0,-20.18412 -14.69425,0 0,20.18412 z" />
      </g>
      <rect
         y="185.24626"
         x="591.37256"
         height="42.803322"
         width="154.39771"
         id="rect6523"
         style="opacity:1;fill:none;fill-opacity:1;fill-rule:evenodd;stroke:#999999;stroke-width:1.34417903;stroke-miterlimit:4;stroke-dasharray:none;stroke-dashoffset:0;stroke-opacity:1" />
    </g>
  </g>
</svg>
