<?xml version="1.0" encoding="UTF-8" standalone="no"?>
<!-- Created with Inkscape (http://www.inkscape.org/) -->

<svg
   xmlns:dc="http://purl.org/dc/elements/1.1/"
   xmlns:cc="http://creativecommons.org/ns#"
   xmlns:rdf="http://www.w3.org/1999/02/22-rdf-syntax-ns#"
   xmlns:svg="http://www.w3.org/2000/svg"
   xmlns="http://www.w3.org/2000/svg"
   xmlns:sodipodi="http://sodipodi.sourceforge.net/DTD/sodipodi-0.dtd"
   xmlns:inkscape="http://www.inkscape.org/namespaces/inkscape"
   width="43.745998"
   height="52.999962"
   id="svg5528"
   version="1.1"
   inkscape:version="0.91 r13725"
   sodipodi:docname="logo.svg">
  <defs
     id="defs5530" />
  <sodipodi:namedview
     id="base"
     pagecolor="#ffffff"
     bordercolor="#666666"
     borderopacity="1.0"
     inkscape:pageopacity="0.0"
     inkscape:pageshadow="2"
     inkscape:zoom="3.2512905"
     inkscape:cx="-38.814765"
     inkscape:cy="-1.4110749"
     inkscape:document-units="px"
     inkscape:current-layer="layer1"
     showgrid="false"
     inkscape:window-width="1366"
     inkscape:window-height="719"
     inkscape:window-x="0"
     inkscape:window-y="25"
     inkscape:window-maximized="1"
     fit-margin-top="0"
     fit-margin-left="0"
     fit-margin-right="0"
     fit-margin-bottom="0" />
  <metadata
     id="metadata5533">
    <rdf:RDF>
      <cc:Work
         rdf:about="">
        <dc:format>image/svg+xml</dc:format>
        <dc:type
           rdf:resource="http://purl.org/dc/dcmitype/StillImage" />
        <dc:title></dc:title>
      </cc:Work>
    </rdf:RDF>
  </metadata>
  <g
     inkscape:label="Layer 1"
     inkscape:groupmode="layer"
     id="layer1"
     transform="translate(-4.127,-994.3622)">
    <g
       id="g4138"
       transform="matrix(0.84126923,0,0,0.84126923,4.127,162.04224)">
      <g
         transform="translate(-542.67047,714.26326)"
         id="g5568">
        <path
           sodipodi:nodetypes="cccccc"
           id="path9801"
           d="m 542.67047,275.09892 c 0,0 0,26.00658 0,38.14302 0.38995,13.83207 11.90701,24.84856 25.98694,24.85698 14.36661,-5e-5 26.01302,-11.44585 26.01306,-25.56495 l 0,-37.43505 z"
           style="fill:#666666;fill-opacity:1;fill-rule:evenodd;stroke:none"
           inkscape:connector-curvature="0"
           inkscape:export-filename="/home/aproken/Рабочий стол/vida4a/vidacha_operator/61.png"
           inkscape:export-xdpi="150"
           inkscape:export-ydpi="150" />
        <path
           inkscape:connector-curvature="0"
           style="fill:#e6e6e6;fill-opacity:1;fill-rule:evenodd;stroke:none"
           d="m 543.24792,275.09892 c 0,0 0,25.81632 0,37.86396 0.38129,13.73087 11.64256,24.66675 25.40978,24.67511 14.04752,-5e-5 25.43527,-11.36209 25.43532,-25.37789 l 0,-37.16118 z"
           id="circle9744"
           sodipodi:nodetypes="cccccc"
           inkscape:export-filename="/home/aproken/Рабочий стол/vida4a/vidacha_operator/61.png"
           inkscape:export-xdpi="150"
           inkscape:export-ydpi="150" />
        <path
           sodipodi:nodetypes="ccccccccccc"
           inkscape:connector-curvature="0"
           id="path9746"
           d="m 568.52511,283.69836 c 0,0 -3.52608,7.13157 -5.30307,10.6884 -1.63283,3.36742 -3.9669,7.59424 -5.18418,10.64877 -0.35535,1.09915 -0.53711,2.24684 -0.53881,3.40182 -5.4e-4,6.14874 4.99432,11.1338 11.15699,11.13487 6.16375,5.4e-4 11.16056,-4.98506 11.15993,-11.13487 -0.15665,-1.72431 -0.46306,-3.55934 -1.19937,-5.01774 -0.0166,-0.0247 -0.0221,-0.0484 -0.0357,-0.0731 -0.81546,-1.57673 -3.11147,-6.01017 -4.65469,-9.02398 -1.80988,-3.53509 -5.40033,-10.62451 -5.40033,-10.62451 z"
           style="fill:#0496f9;fill-opacity:1;fill-rule:evenodd;stroke:none"
           inkscape:export-filename="/home/aproken/Рабочий стол/vida4a/vidacha_operator/61.png"
           inkscape:export-xdpi="150"
           inkscape:export-ydpi="150" />
        <path
           style="fill:#ffffff;fill-opacity:1;fill-rule:evenodd;stroke:none"
           d="m 568.57482,290.24957 0.0275,27.20756 c 0,0 12.36287,-2.31618 7.19198,-13.10414 -5.17077,-10.78795 -7.21862,-14.10342 -7.21862,-14.10342 z"
           id="path9748"
           inkscape:connector-curvature="0"
           sodipodi:nodetypes="cczc"
           inkscape:export-filename="/home/aproken/Рабочий стол/vida4a/vidacha_operator/61.png"
           inkscape:export-xdpi="150"
           inkscape:export-ydpi="150" />
      </g>
    </g>
  </g>
</svg>
