<?xml version="1.0" encoding="UTF-8" standalone="no"?>
<!-- Created with Inkscape (http://www.inkscape.org/) -->

<svg
   xmlns:dc="http://purl.org/dc/elements/1.1/"
   xmlns:cc="http://creativecommons.org/ns#"
   xmlns:rdf="http://www.w3.org/1999/02/22-rdf-syntax-ns#"
   xmlns:svg="http://www.w3.org/2000/svg"
   xmlns="http://www.w3.org/2000/svg"
   xmlns:sodipodi="http://sodipodi.sourceforge.net/DTD/sodipodi-0.dtd"
   xmlns:inkscape="http://www.inkscape.org/namespaces/inkscape"
   width="23.424513mm"
   height="20.859259mm"
   viewBox="0 0 83.000243 73.910756"
   id="svg2"
   version="1.1"
   inkscape:version="0.91 r13725"
   sodipodi:docname="spid.svg">
  <defs
     id="defs4" />
  <sodipodi:namedview
     id="base"
     pagecolor="#ffffff"
     bordercolor="#666666"
     borderopacity="1.0"
     inkscape:pageopacity="0.0"
     inkscape:pageshadow="2"
     inkscape:zoom="0.7"
     inkscape:cx="-357.28628"
     inkscape:cy="363.69747"
     inkscape:document-units="px"
     inkscape:current-layer="layer1"
     showgrid="false"
     inkscape:window-width="1280"
     inkscape:window-height="971"
     inkscape:window-x="-8"
     inkscape:window-y="-8"
     inkscape:window-maximized="1"
     fit-margin-top="0"
     fit-margin-left="0"
     fit-margin-right="0"
     fit-margin-bottom="0" />
  <metadata
     id="metadata7">
    <rdf:RDF>
      <cc:Work
         rdf:about="">
        <dc:format>image/svg+xml</dc:format>
        <dc:type
           rdf:resource="http://purl.org/dc/dcmitype/StillImage" />
        <dc:title></dc:title>
      </cc:Work>
    </rdf:RDF>
  </metadata>
  <g
     inkscape:label="Layer 1"
     inkscape:groupmode="layer"
     id="layer1"
     transform="translate(-518.18319,-495.59856)">
    <g
       id="g4235"
       transform="matrix(0.17089896,0,0,0.17089896,498.44181,472.18076)">
      <path
         id="path4147"
         d="m 357.94922,137.02734 c -5.26655,0.007 -10.55043,0.18315 -15.8457,0.53125 -70.23208,4.61692 -135.48569,40.09436 -178.05079,96.80469 -37.16958,49.52177 -54.31329,113.17345 -46.80664,173.78516 3.0473,24.6051 7.42546,40.72778 18.82032,69.3164 2.61594,6.56317 9.86639,20.29084 15.79687,29.90821 l 4.45508,7.22461 15.66211,0.27539 15.66211,0.27539 8,-7.03711 c 4.4,-3.86991 12.95,-11.28787 19,-16.48438 6.05,-5.19652 12.0125,-10.32426 13.25,-11.39453 1.2375,-1.07028 2.25,-2.37698 2.25,-2.9043 0,-0.9719 -8.11178,-10.59109 -15.59961,-18.5 l -4.09766,-4.33007 -8.40234,7.16797 c -4.62043,3.94252 -8.85039,7.69953 -9.40039,8.3496 -0.55,0.65007 -5.58089,5.10677 -11.17969,9.90235 l -10.17969,8.71875 -1.68359,-3.24414 c -9.11786,-17.57006 -12.97792,-26.51602 -17.79883,-41.24414 -5.99783,-18.32364 -10.12273,-45.32623 -9.4707,-62 l 0.3125,-8 23.75,-0.26953 23.75,-0.26758 0,-14.98242 0,-14.98047 -21.94141,0 c -12.06754,0 -22.17162,-0.37534 -22.45508,-0.83399 -0.83309,-1.34796 4.97476,-24.85168 8.68946,-35.16601 6.80404,-18.89227 16.48765,-37.97489 25.91797,-51.06641 1.80868,-2.51087 4.63906,-6.43019 6.28906,-8.71094 1.65,-2.28075 3.44613,-4.16464 3.99023,-4.18554 0.5441,-0.0209 8.42513,7.38809 17.51367,16.46484 l 16.52344,16.50391 10.8418,-10.875 10.8418,-10.875 -16.60547,-16.60547 c -9.13302,-9.13301 -16.60547,-17.01071 -16.60547,-17.50586 0,-0.49514 2.8125,-3.3392 6.25,-6.32031 24.28204,-21.05812 54.3738,-36.43696 87.75,-44.84375 9.18939,-2.31462 24.82509,-4.98047 29.20703,-4.98047 0.41809,0 0.881,12.2625 1.02734,27.25 l 0.26563,27.25 15.25,0.27539 15.25,0.27539 0,-27.4668 c 0,-15.10686 0.38554,-27.70371 0.85547,-27.99414 1.16415,-0.71948 24.99911,2.02156 33.64453,3.86914 36.06547,7.7074 67.07054,22.86995 95.34961,46.62891 11.11163,9.33557 11.92483,6.61334 -7.91602,26.47851 l -17.41601,17.4375 10.73828,10.74024 10.73828,10.73828 16.76367,-16.74219 c 9.21983,-9.20787 17.05515,-16.74023 17.41016,-16.74023 0.82117,0 6.90289,8.32944 13.14453,18 12.91245,20.00609 26.10487,53.59128 29.22656,74.4082 l 0.68359,4.55469 -23.36132,0.26758 -23.36133,0.26953 0,15 0,15 25.25,0.26758 25.25,0.26562 0,5.87695 c 0,20.63007 -5.15548,49.49351 -12.69727,71.08985 -2.83834,8.12777 -15.80662,36 -16.75,36 -0.31803,0 -8.67886,-8.1 -18.58008,-18 -9.90122,-9.89999 -18.18876,-18 -18.41601,-18 -0.22725,0 -5.1573,4.8375 -10.95703,10.75 l -10.54492,10.75 20.22265,20.59765 20.22266,20.59766 16.21875,0.15234 16.2207,0.15235 3.66602,-5.73242 c 31.00607,-48.47028 43.96416,-112.25434 34.28515,-168.76758 -6.45517,-37.69004 -22.88236,-75.85858 -45.81054,-106.44336 -18.32833,-24.44886 -44.89201,-48.00755 -72.53321,-64.32617 -1.67549,-0.98916 -8.65104,-4.52926 -15.5,-7.86719 -33.34549,-16.25135 -69.37436,-24.53325 -106.24023,-24.48438 z m -87.12305,169.12305 c -0.9789,-0.076 1.41377,2.90796 6.41211,8.89063 3.1529,3.77379 23.05921,28.51563 43.12891,53.60742 8.13848,10.17501 16.98366,21.20758 19.65625,24.51758 2.67259,3.31 5.19162,7.585 5.59765,9.5 1.48042,6.98217 6.58759,12.72895 13.97071,15.71679 3.70861,1.50082 13.51177,0.85974 17.32617,-1.13281 10.14689,-5.3005 13.99316,-18.11397 8.79101,-29.28711 -2.74022,-5.88542 -7.5985,-9.66934 -14.33593,-11.16406 -5.0574,-1.122 -5.78609,-1.57492 -23.23047,-14.45117 -7.425,-5.48064 -15.3,-11.2854 -17.5,-12.89844 -2.2,-1.61303 -8.07376,-5.94062 -13.05274,-9.61719 -4.97898,-3.67657 -12.40398,-9.137 -16.5,-12.13476 -4.09602,-2.99777 -11.49726,-8.43463 -16.44726,-12.08204 -8.48671,-6.25341 -12.83751,-9.38886 -13.81641,-9.46484 z"
         style="fill:#4d4d4d;fill-opacity:1"
         inkscape:connector-curvature="0" />
      <rect
         y="529.10321"
         x="240.16144"
         height="40.406101"
         width="27.065918"
         id="rect4152"
         style="opacity:1;fill:#4d4d4d;fill-opacity:1;fill-rule:evenodd;stroke:none;stroke-width:1;stroke-miterlimit:4;stroke-dasharray:none;stroke-dashoffset:0;stroke-opacity:1" />
      <rect
         style="opacity:1;fill:#4d4d4d;fill-opacity:1;fill-rule:evenodd;stroke:none;stroke-width:1;stroke-miterlimit:4;stroke-dasharray:none;stroke-dashoffset:0;stroke-opacity:1"
         id="rect4154"
         width="27.065918"
         height="40.406101"
         x="270.06281"
         y="529.10321" />
      <rect
         y="529.10321"
         x="299.96417"
         height="40.406101"
         width="27.065918"
         id="rect4156"
         style="opacity:1;fill:#4d4d4d;fill-opacity:1;fill-rule:evenodd;stroke:none;stroke-width:1;stroke-miterlimit:4;stroke-dasharray:none;stroke-dashoffset:0;stroke-opacity:1" />
      <rect
         style="opacity:1;fill:#4d4d4d;fill-opacity:1;fill-rule:evenodd;stroke:none;stroke-width:1;stroke-miterlimit:4;stroke-dasharray:none;stroke-dashoffset:0;stroke-opacity:1"
         id="rect4158"
         width="27.065918"
         height="40.406101"
         x="329.86554"
         y="529.10321" />
      <rect
         y="529.10321"
         x="359.76691"
         height="40.406101"
         width="27.065918"
         id="rect4160"
         style="opacity:1;fill:#4d4d4d;fill-opacity:1;fill-rule:evenodd;stroke:none;stroke-width:1;stroke-miterlimit:4;stroke-dasharray:none;stroke-dashoffset:0;stroke-opacity:1" />
      <rect
         style="opacity:1;fill:#4d4d4d;fill-opacity:1;fill-rule:evenodd;stroke:none;stroke-width:1;stroke-miterlimit:4;stroke-dasharray:none;stroke-dashoffset:0;stroke-opacity:1"
         id="rect4162"
         width="27.065918"
         height="40.406101"
         x="389.66827"
         y="529.10321" />
      <rect
         style="opacity:1;fill:#4d4d4d;fill-opacity:1;fill-rule:evenodd;stroke:none;stroke-width:1;stroke-miterlimit:4;stroke-dasharray:none;stroke-dashoffset:0;stroke-opacity:1"
         id="rect4164"
         width="27.065918"
         height="40.406101"
         x="419.56964"
         y="529.10321" />
      <rect
         y="529.10321"
         x="449.47101"
         height="40.406101"
         width="27.065918"
         id="rect4166"
         style="opacity:1;fill:#4d4d4d;fill-opacity:1;fill-rule:evenodd;stroke:none;stroke-width:1;stroke-miterlimit:4;stroke-dasharray:none;stroke-dashoffset:0;stroke-opacity:1" />
      <g
         id="text4188"
         style="font-style:normal;font-weight:normal;font-size:40px;line-height:125%;font-family:sans-serif;text-align:center;letter-spacing:0px;word-spacing:0px;text-anchor:middle;fill:#ffffff;fill-opacity:1;stroke:none;stroke-width:1px;stroke-linecap:butt;stroke-linejoin:miter;stroke-opacity:1">
        <path
           id="path4201"
           d="m 253.6944,537.30432 q -3.04688,0 -4.58985,3.00781 -1.52343,2.98829 -1.52343,9.00391 0,5.99609 1.52343,9.00391 1.54297,2.98828 4.58985,2.98828 3.0664,0 4.58984,-2.98828 1.54297,-3.00782 1.54297,-9.00391 0,-6.01562 -1.54297,-9.00391 -1.52344,-3.00781 -4.58984,-3.00781 z m 0,-3.125 q 4.90234,0 7.48047,3.88672 2.59765,3.86719 2.59765,11.25 0,7.36328 -2.59765,11.25 -2.57813,3.86719 -7.48047,3.86719 -4.90235,0 -7.5,-3.86719 -2.57813,-3.88672 -2.57813,-11.25 0,-7.38281 2.57813,-11.25 2.59765,-3.88672 7.5,-3.88672 z"
           inkscape:connector-curvature="0" />
      </g>
      <g
         transform="translate(29.901369,0)"
         style="font-style:normal;font-weight:normal;font-size:40px;line-height:125%;font-family:sans-serif;text-align:center;letter-spacing:0px;word-spacing:0px;text-anchor:middle;fill:#ffffff;fill-opacity:1;stroke:none;stroke-width:1px;stroke-linecap:butt;stroke-linejoin:miter;stroke-opacity:1"
         id="g4203">
        <path
           inkscape:connector-curvature="0"
           d="m 253.6944,537.30432 q -3.04688,0 -4.58985,3.00781 -1.52343,2.98829 -1.52343,9.00391 0,5.99609 1.52343,9.00391 1.54297,2.98828 4.58985,2.98828 3.0664,0 4.58984,-2.98828 1.54297,-3.00782 1.54297,-9.00391 0,-6.01562 -1.54297,-9.00391 -1.52344,-3.00781 -4.58984,-3.00781 z m 0,-3.125 q 4.90234,0 7.48047,3.88672 2.59765,3.86719 2.59765,11.25 0,7.36328 -2.59765,11.25 -2.57813,3.86719 -7.48047,3.86719 -4.90235,0 -7.5,-3.86719 -2.57813,-3.88672 -2.57813,-11.25 0,-7.38281 2.57813,-11.25 2.59765,-3.88672 7.5,-3.88672 z"
           id="path4205" />
      </g>
      <g
         id="g4207"
         style="font-style:normal;font-weight:normal;font-size:40px;line-height:125%;font-family:sans-serif;text-align:center;letter-spacing:0px;word-spacing:0px;text-anchor:middle;fill:#ffffff;fill-opacity:1;stroke:none;stroke-width:1px;stroke-linecap:butt;stroke-linejoin:miter;stroke-opacity:1"
         transform="translate(59.802736,-1.3937378e-5)">
        <path
           id="path4209"
           d="m 253.6944,537.30432 q -3.04688,0 -4.58985,3.00781 -1.52343,2.98829 -1.52343,9.00391 0,5.99609 1.52343,9.00391 1.54297,2.98828 4.58985,2.98828 3.0664,0 4.58984,-2.98828 1.54297,-3.00782 1.54297,-9.00391 0,-6.01562 -1.54297,-9.00391 -1.52344,-3.00781 -4.58984,-3.00781 z m 0,-3.125 q 4.90234,0 7.48047,3.88672 2.59765,3.86719 2.59765,11.25 0,7.36328 -2.59765,11.25 -2.57813,3.86719 -7.48047,3.86719 -4.90235,0 -7.5,-3.86719 -2.57813,-3.88672 -2.57813,-11.25 0,-7.38281 2.57813,-11.25 2.59765,-3.88672 7.5,-3.88672 z"
           inkscape:connector-curvature="0" />
      </g>
      <g
         transform="translate(89.704104,-1.3937378e-5)"
         style="font-style:normal;font-weight:normal;font-size:40px;line-height:125%;font-family:sans-serif;text-align:center;letter-spacing:0px;word-spacing:0px;text-anchor:middle;fill:#ffffff;fill-opacity:1;stroke:none;stroke-width:1px;stroke-linecap:butt;stroke-linejoin:miter;stroke-opacity:1"
         id="g4211">
        <path
           inkscape:connector-curvature="0"
           d="m 253.6944,537.30432 q -3.04688,0 -4.58985,3.00781 -1.52343,2.98829 -1.52343,9.00391 0,5.99609 1.52343,9.00391 1.54297,2.98828 4.58985,2.98828 3.0664,0 4.58984,-2.98828 1.54297,-3.00782 1.54297,-9.00391 0,-6.01562 -1.54297,-9.00391 -1.52344,-3.00781 -4.58984,-3.00781 z m 0,-3.125 q 4.90234,0 7.48047,3.88672 2.59765,3.86719 2.59765,11.25 0,7.36328 -2.59765,11.25 -2.57813,3.86719 -7.48047,3.86719 -4.90235,0 -7.5,-3.86719 -2.57813,-3.88672 -2.57813,-11.25 0,-7.38281 2.57813,-11.25 2.59765,-3.88672 7.5,-3.88672 z"
           id="path4213" />
      </g>
      <g
         id="g4215"
         style="font-style:normal;font-weight:normal;font-size:40px;line-height:125%;font-family:sans-serif;text-align:center;letter-spacing:0px;word-spacing:0px;text-anchor:middle;fill:#ffffff;fill-opacity:1;stroke:none;stroke-width:1px;stroke-linecap:butt;stroke-linejoin:miter;stroke-opacity:1"
         transform="translate(119.60547,-1.3937378e-5)">
        <path
           id="path4217"
           d="m 253.6944,537.30432 q -3.04688,0 -4.58985,3.00781 -1.52343,2.98829 -1.52343,9.00391 0,5.99609 1.52343,9.00391 1.54297,2.98828 4.58985,2.98828 3.0664,0 4.58984,-2.98828 1.54297,-3.00782 1.54297,-9.00391 0,-6.01562 -1.54297,-9.00391 -1.52344,-3.00781 -4.58984,-3.00781 z m 0,-3.125 q 4.90234,0 7.48047,3.88672 2.59765,3.86719 2.59765,11.25 0,7.36328 -2.59765,11.25 -2.57813,3.86719 -7.48047,3.86719 -4.90235,0 -7.5,-3.86719 -2.57813,-3.88672 -2.57813,-11.25 0,-7.38281 2.57813,-11.25 2.59765,-3.88672 7.5,-3.88672 z"
           inkscape:connector-curvature="0" />
      </g>
      <rect
         style="opacity:1;fill:#4d4d4d;fill-opacity:1;fill-rule:evenodd;stroke:none;stroke-width:1;stroke-miterlimit:4;stroke-dasharray:none;stroke-dashoffset:0;stroke-opacity:1"
         id="rect4219"
         width="27.065918"
         height="40.406101"
         x="389.66827"
         y="529.10321" />
      <g
         transform="translate(149.50684,-1.3937378e-5)"
         style="font-style:normal;font-weight:normal;font-size:40px;line-height:125%;font-family:sans-serif;text-align:center;letter-spacing:0px;word-spacing:0px;text-anchor:middle;fill:#ffffff;fill-opacity:1;stroke:none;stroke-width:1px;stroke-linecap:butt;stroke-linejoin:miter;stroke-opacity:1"
         id="g4221">
        <path
           inkscape:connector-curvature="0"
           d="m 253.6944,537.30432 q -3.04688,0 -4.58985,3.00781 -1.52343,2.98829 -1.52343,9.00391 0,5.99609 1.52343,9.00391 1.54297,2.98828 4.58985,2.98828 3.0664,0 4.58984,-2.98828 1.54297,-3.00782 1.54297,-9.00391 0,-6.01562 -1.54297,-9.00391 -1.52344,-3.00781 -4.58984,-3.00781 z m 0,-3.125 q 4.90234,0 7.48047,3.88672 2.59765,3.86719 2.59765,11.25 0,7.36328 -2.59765,11.25 -2.57813,3.86719 -7.48047,3.86719 -4.90235,0 -7.5,-3.86719 -2.57813,-3.88672 -2.57813,-11.25 0,-7.38281 2.57813,-11.25 2.59765,-3.88672 7.5,-3.88672 z"
           id="path4223" />
      </g>
      <g
         id="g4225"
         style="font-style:normal;font-weight:normal;font-size:40px;line-height:125%;font-family:sans-serif;text-align:center;letter-spacing:0px;word-spacing:0px;text-anchor:middle;fill:#ffffff;fill-opacity:1;stroke:none;stroke-width:1px;stroke-linecap:butt;stroke-linejoin:miter;stroke-opacity:1"
         transform="translate(179.40821,-1.3937378e-5)">
        <path
           id="path4227"
           d="m 253.6944,537.30432 q -3.04688,0 -4.58985,3.00781 -1.52343,2.98829 -1.52343,9.00391 0,5.99609 1.52343,9.00391 1.54297,2.98828 4.58985,2.98828 3.0664,0 4.58984,-2.98828 1.54297,-3.00782 1.54297,-9.00391 0,-6.01562 -1.54297,-9.00391 -1.52344,-3.00781 -4.58984,-3.00781 z m 0,-3.125 q 4.90234,0 7.48047,3.88672 2.59765,3.86719 2.59765,11.25 0,7.36328 -2.59765,11.25 -2.57813,3.86719 -7.48047,3.86719 -4.90235,0 -7.5,-3.86719 -2.57813,-3.88672 -2.57813,-11.25 0,-7.38281 2.57813,-11.25 2.59765,-3.88672 7.5,-3.88672 z"
           inkscape:connector-curvature="0" />
      </g>
      <rect
         y="529.10321"
         x="449.47101"
         height="40.406101"
         width="27.065918"
         id="rect4229"
         style="opacity:1;fill:#4d4d4d;fill-opacity:1;fill-rule:evenodd;stroke:none;stroke-width:1;stroke-miterlimit:4;stroke-dasharray:none;stroke-dashoffset:0;stroke-opacity:1" />
      <g
         transform="translate(209.30957,-1.3937378e-5)"
         style="font-style:normal;font-weight:normal;font-size:40px;line-height:125%;font-family:sans-serif;text-align:center;letter-spacing:0px;word-spacing:0px;text-anchor:middle;fill:#ffffff;fill-opacity:1;stroke:none;stroke-width:1px;stroke-linecap:butt;stroke-linejoin:miter;stroke-opacity:1"
         id="g4231">
        <path
           inkscape:connector-curvature="0"
           d="m 253.6944,537.30432 q -3.04688,0 -4.58985,3.00781 -1.52343,2.98829 -1.52343,9.00391 0,5.99609 1.52343,9.00391 1.54297,2.98828 4.58985,2.98828 3.0664,0 4.58984,-2.98828 1.54297,-3.00782 1.54297,-9.00391 0,-6.01562 -1.54297,-9.00391 -1.52344,-3.00781 -4.58984,-3.00781 z m 0,-3.125 q 4.90234,0 7.48047,3.88672 2.59765,3.86719 2.59765,11.25 0,7.36328 -2.59765,11.25 -2.57813,3.86719 -7.48047,3.86719 -4.90235,0 -7.5,-3.86719 -2.57813,-3.88672 -2.57813,-11.25 0,-7.38281 2.57813,-11.25 2.59765,-3.88672 7.5,-3.88672 z"
           id="path4233" />
      </g>
    </g>
  </g>
</svg>
