<?xml version="1.0" encoding="UTF-8" standalone="no"?>
<!-- Created with Inkscape (http://www.inkscape.org/) -->

<svg
   xmlns:dc="http://purl.org/dc/elements/1.1/"
   xmlns:cc="http://creativecommons.org/ns#"
   xmlns:rdf="http://www.w3.org/1999/02/22-rdf-syntax-ns#"
   xmlns:svg="http://www.w3.org/2000/svg"
   xmlns="http://www.w3.org/2000/svg"
   xmlns:sodipodi="http://sodipodi.sourceforge.net/DTD/sodipodi-0.dtd"
   xmlns:inkscape="http://www.inkscape.org/namespaces/inkscape"
   width="17.333679mm"
   height="15.881757mm"
   viewBox="0 0 61.41855 56.27394"
   id="svg6439"
   version="1.1"
   inkscape:version="0.91 r13725"
   sodipodi:docname="tasks.svg">
  <defs
     id="defs6441" />
  <sodipodi:namedview
     id="base"
     pagecolor="#ffffff"
     bordercolor="#666666"
     borderopacity="1.0"
     inkscape:pageopacity="0.0"
     inkscape:pageshadow="2"
     inkscape:zoom="3.3615829"
     inkscape:cx="-15.367058"
     inkscape:cy="58.613689"
     inkscape:document-units="px"
     inkscape:current-layer="layer1"
     showgrid="false"
     fit-margin-top="1"
     fit-margin-left="0.5"
     fit-margin-right="0.5"
     fit-margin-bottom="1"
     inkscape:window-width="1366"
     inkscape:window-height="719"
     inkscape:window-x="0"
     inkscape:window-y="25"
     inkscape:window-maximized="1" />
  <metadata
     id="metadata6444">
    <rdf:RDF>
      <cc:Work
         rdf:about="">
        <dc:format>image/svg+xml</dc:format>
        <dc:type
           rdf:resource="http://purl.org/dc/dcmitype/StillImage" />
        <dc:title></dc:title>
      </cc:Work>
    </rdf:RDF>
  </metadata>
  <g
     inkscape:label="Layer 1"
     inkscape:groupmode="layer"
     id="layer1"
     transform="translate(-115.36053,-286.2335)">
    <g
       transform="matrix(0.73374428,0,0,0.73374428,393.27211,-228.17462)"
       id="g6285">
      <rect
         style="fill:#4d4d4d;fill-opacity:1;fill-rule:evenodd;stroke:none"
         id="rect6287"
         width="29.94441"
         height="20.295656"
         x="-333.54459"
         y="747.01031"
         ry="3.0179682"
         inkscape:export-xdpi="150"
         inkscape:export-ydpi="150" />
      <path
         inkscape:connector-curvature="0"
         id="path6289"
         d="m -336.1704,717.19135 c -1.18782,0 -2.14367,0.95584 -2.14367,2.14368 0,0.93563 0.59666,1.7199 1.42912,2.01402 l 0,1.54067 c -0.19516,-0.0101 -0.52436,0.009 -0.97486,0.21406 -0.71473,0.32488 -1.94947,1.16914 -2.27432,2.33866 -0.3249,1.16951 -0.32529,3.96298 -0.2603,6.23705 0.0649,2.27405 0,35.21627 0,36.32083 0,1.10454 0.38976,4.93758 3.50847,4.93757 l 35.60628,0 c 1.88421,0 3.70343,-0.45446 3.70343,-2.53361 l 0,-27.61347 c 0,-1.81925 -0.65024,-3.89842 -0.65024,-3.89842 0,0 -0.5673,-1.1751 -1.45524,-2.36577 l 1.63915,-1.72258 c 0.77231,-0.8118 0.76694,-2.1131 -0.013,-2.91752 l -8.93648,-9.21589 c -0.39001,-0.40221 -0.89755,-0.60139 -1.40399,-0.59898 -0.50647,0.003 -1.01182,0.20615 -1.39797,0.61205 l -1.86629,1.96177 c -1.13546,-0.89505 -2.38795,-1.67233 -3.97881,-1.67233 -2.20912,0 -11.43493,-0.19497 -11.43493,-0.19497 l -0.19497,0.003 0,-1.43213 c 0.83247,-0.29412 1.42911,-1.07839 1.42911,-2.01403 0,-1.18784 -0.9558,-2.14367 -2.14367,-2.14367 l -8.18675,0 z m 27.74715,7.06016 c 0.41745,-0.003 0.83532,0.16296 1.15675,0.49446 l 7.36468,7.59581 c 0.64285,0.66299 0.64757,1.73489 0.0111,2.40397 l -0.68441,0.71958 c -1.86178,-2.02518 -8.41131,-8.61478 -9.8008,-9.7626 -0.0182,-0.0149 -0.0371,-0.0312 -0.0552,-0.0462 l 0.85527,-0.89947 c 0.31825,-0.33454 0.73528,-0.50353 1.15273,-0.50552 z m -20.57645,27.40645 19.99556,0 c 1.33632,0 2.412,1.07568 2.412,2.412 l 0,8.04103 c 0,1.33632 -1.07568,2.41201 -2.412,2.41201 l -19.99556,0 c -1.33632,0 -2.412,-1.07569 -2.412,-2.41201 l 0,-8.04103 c 0,-1.33632 1.07568,-2.412 2.412,-2.412 z"
         style="fill:#0496f9;fill-opacity:1;fill-rule:evenodd;stroke:none"
         inkscape:export-xdpi="150"
         inkscape:export-ydpi="150" />
      <path
         sodipodi:nodetypes="czssssscccccccssscssssscc"
         inkscape:connector-curvature="0"
         id="path6291"
         d="m -376.34355,712.92596 c 0,0 3.52132,0.43329 5.07299,2.53647 1.55167,2.10318 2.34137,5.07299 2.34137,7.02413 0,1.95114 -0.51833,16.20871 -0.19512,18.53587 0.48779,3.51206 3.12183,3.99986 3.9023,2.24383 0.78044,-1.75603 -0.0975,-18.63344 0.29266,-19.99924 0.39023,-1.36581 0.78046,-2.43894 1.95116,-2.82917 1.17068,-0.39023 0.78045,-2.53648 0.78045,-2.53648 l 7.99969,-8.87772 3.02427,-0.97556 1.75603,-2.14626 6.82901,0 0,3.51205 -6.43877,0.19512 c 0,0 -0.78045,-1.75603 -0.97557,0.39024 -0.19511,2.14626 0.68289,2.7316 -0.87803,4.87786 -1.56091,2.14626 -3.31694,5.07297 -5.26809,5.4632 -1.95114,0.39023 -3.4145,1.3658 -3.99983,2.53649 -0.58536,1.17068 -0.78047,16.38961 -0.78047,18.73099 0,2.75933 -0.58535,5.07299 -2.34137,6.24366 -1.75603,1.17068 -5.26809,0.78047 -6.43878,0.39024 -1.17068,-0.39024 -2.73161,-2.43895 -3.31694,-4.19498 -0.58535,-1.75602 -0.53915,-18.83485 -0.39023,-20.58456 0.39023,-4.5852 -2.92673,-5.56077 -2.92673,-5.56077 z"
         style="fill:#4d4d4d;fill-opacity:1;fill-rule:evenodd;stroke:none"
         inkscape:export-xdpi="150"
         inkscape:export-ydpi="150" />
      <circle
         style="fill:#0496f9;fill-opacity:1;fill-rule:evenodd;stroke:none"
         id="circle6293"
         cx="-337.92365"
         cy="708.4679"
         r="2.0271554"
         inkscape:export-xdpi="150"
         inkscape:export-ydpi="150" />
      <circle
         r="3.0407336"
         cy="712.15082"
         cx="-332.78812"
         id="circle6295"
         style="fill:#0496f9;fill-opacity:1;fill-rule:evenodd;stroke:none"
         inkscape:export-xdpi="150"
         inkscape:export-ydpi="150" />
    </g>
  </g>
</svg>
